<?xml version="1.0" encoding="utf-8"?>
<!-- Generator: Moho 12.2 build 21774 -->
<!DOCTYPE svg PUBLIC "-//W3C//DTD SVG 1.1//EN" "http://www.w3.org/Graphics/SVG/1.1/DTD/svg11.dtd">
<svg version="1.1" id="Frame_0" xmlns="http://www.w3.org/2000/svg" xmlns:xlink="http://www.w3.org/1999/xlink" width="870px" height="1050px">
<g id="Grass">
<path fill="#ffffff" fill-rule="evenodd" stroke="#000000" stroke-width="1" stroke-linecap="round" stroke-linejoin="round" d="M 10.682 800.195 C 10.767 800.195 857.351 800.195 857.435 800.195 C 857.435 800.116 857.435 12.942 857.435 12.864 C 857.351 12.864 10.767 12.864 10.682 12.864 C 10.682 12.942 10.682 800.116 10.682 800.195 Z"/>
</g>
<g id="Sands">
<path fill="#ffffff" fill-rule="evenodd" stroke="#000000" stroke-width="1" stroke-linecap="round" stroke-linejoin="round" d="M 10.682 922.009 C 10.767 922.009 854.380 922.009 854.464 922.009 C 854.464 922.003 854.464 868.535 854.464 868.530 C 854.380 868.530 10.767 868.530 10.682 868.530 C 10.682 868.535 10.682 922.003 10.682 922.009 Z"/>
</g>
<g id="Boards">
<path fill="none" stroke="#000000" stroke-width="1" stroke-linecap="round" stroke-linejoin="round" d="M 641.841 968.938 C 641.841 968.943 641.841 1017.597 641.841 1017.602 C 641.846 1017.602 692.885 1017.602 692.891 1017.602 C 692.891 1017.597 692.891 968.943 692.891 968.938 C 692.885 968.938 641.846 968.938 641.841 968.938 M 518.273 968.938 C 518.273 968.943 518.273 1017.597 518.273 1017.602 C 518.279 1017.602 569.318 1017.602 569.323 1017.602 C 569.323 1017.597 569.323 968.943 569.323 968.938 C 569.318 968.938 518.279 968.938 518.273 968.938 M 397.569 968.938 C 397.569 968.943 397.569 1017.597 397.569 1017.602 C 397.574 1017.602 448.613 1017.602 448.618 1017.602 C 448.618 1017.597 448.618 968.943 448.618 968.938 C 448.613 968.938 397.574 968.938 397.569 968.938 M 274.478 968.461 C 274.478 968.466 274.478 1017.120 274.478 1017.125 C 274.483 1017.125 325.522 1017.125 325.528 1017.125 C 325.528 1017.120 325.528 968.466 325.528 968.461 C 325.522 968.461 274.483 968.461 274.478 968.461 M 151.388 968.461 C 151.388 968.466 151.388 1017.120 151.388 1017.125 C 151.393 1017.125 202.432 1017.125 202.437 1017.125 C 202.437 1017.120 202.437 968.466 202.437 968.461 C 202.432 968.461 151.393 968.461 151.388 968.461 M 15.915 919.295 C 15.915 919.300 15.915 968.633 15.915 968.638 C 15.998 968.638 852.249 968.638 852.333 968.638 C 852.333 968.633 852.333 919.300 852.333 919.295 C 852.249 919.295 15.998 919.295 15.915 919.295 "/>
<path fill="none" stroke="#000000" stroke-width="1" stroke-linecap="round" stroke-linejoin="round" d="M 641.841 968.938 C 641.841 968.943 641.841 1017.597 641.841 1017.602 C 641.846 1017.602 692.885 1017.602 692.891 1017.602 C 692.891 1017.597 692.891 968.943 692.891 968.938 C 692.885 968.938 641.846 968.938 641.841 968.938 M 518.273 968.938 C 518.273 968.943 518.273 1017.597 518.273 1017.602 C 518.279 1017.602 569.318 1017.602 569.323 1017.602 C 569.323 1017.597 569.323 968.943 569.323 968.938 C 569.318 968.938 518.279 968.938 518.273 968.938 M 397.569 968.938 C 397.569 968.943 397.569 1017.597 397.569 1017.602 C 397.574 1017.602 448.613 1017.602 448.618 1017.602 C 448.618 1017.597 448.618 968.943 448.618 968.938 C 448.613 968.938 397.574 968.938 397.569 968.938 M 274.478 968.461 C 274.478 968.466 274.478 1017.120 274.478 1017.125 C 274.483 1017.125 325.522 1017.125 325.528 1017.125 C 325.528 1017.120 325.528 968.466 325.528 968.461 C 325.522 968.461 274.483 968.461 274.478 968.461 M 151.388 968.461 C 151.388 968.466 151.388 1017.120 151.388 1017.125 C 151.393 1017.125 202.432 1017.125 202.437 1017.125 C 202.437 1017.120 202.437 968.466 202.437 968.461 C 202.432 968.461 151.393 968.461 151.388 968.461 M 15.915 919.295 C 15.915 919.300 15.915 968.633 15.915 968.638 C 15.998 968.638 852.249 968.638 852.333 968.638 C 852.333 968.633 852.333 919.300 852.333 919.295 C 852.249 919.295 15.998 919.295 15.915 919.295 "/>
<path fill="#ffffff" fill-rule="evenodd" stroke="none" d="M 641.841 968.938 C 641.841 968.943 641.841 1017.597 641.841 1017.602 C 641.846 1017.602 692.885 1017.602 692.891 1017.602 C 692.891 1017.597 692.891 968.943 692.891 968.938 C 692.885 968.938 641.846 968.938 641.841 968.938 M 518.273 968.938 C 518.273 968.943 518.273 1017.597 518.273 1017.602 C 518.279 1017.602 569.318 1017.602 569.323 1017.602 C 569.323 1017.597 569.323 968.943 569.323 968.938 C 569.318 968.938 518.279 968.938 518.273 968.938 M 397.569 968.938 C 397.569 968.943 397.569 1017.597 397.569 1017.602 C 397.574 1017.602 448.613 1017.602 448.618 1017.602 C 448.618 1017.597 448.618 968.943 448.618 968.938 C 448.613 968.938 397.574 968.938 397.569 968.938 M 274.478 968.461 C 274.478 968.466 274.478 1017.120 274.478 1017.125 C 274.483 1017.125 325.522 1017.125 325.528 1017.125 C 325.528 1017.120 325.528 968.466 325.528 968.461 C 325.522 968.461 274.483 968.461 274.478 968.461 M 151.388 968.461 C 151.388 968.466 151.388 1017.120 151.388 1017.125 C 151.393 1017.125 202.432 1017.125 202.437 1017.125 C 202.437 1017.120 202.437 968.466 202.437 968.461 C 202.432 968.461 151.393 968.461 151.388 968.461 M 15.915 919.295 C 15.915 919.300 15.915 968.633 15.915 968.638 C 15.998 968.638 852.249 968.638 852.333 968.638 C 852.333 968.633 852.333 919.300 852.333 919.295 C 852.249 919.295 15.998 919.295 15.915 919.295 Z"/>
</g>
<g id="BoardsAnfas">
<path fill="#ffffff" fill-rule="evenodd" stroke="none" d="M 150.911 1017.602 C 150.911 1017.603 150.911 1029.051 150.911 1029.052 C 150.916 1029.052 201.955 1029.052 201.960 1029.052 C 201.960 1029.051 201.960 1017.603 201.960 1017.602 C 201.955 1017.602 150.916 1017.602 150.911 1017.602 M 274.001 1017.125 C 274.001 1017.126 274.001 1028.574 274.001 1028.575 C 274.007 1028.575 325.045 1028.575 325.050 1028.575 C 325.050 1028.574 325.050 1017.126 325.050 1017.125 C 325.045 1017.125 274.007 1017.125 274.001 1017.125 M 397.092 1018.079 C 397.092 1018.080 397.092 1029.528 397.092 1029.529 C 397.097 1029.529 448.136 1029.529 448.141 1029.529 C 448.141 1029.528 448.141 1018.080 448.141 1018.079 C 448.136 1018.079 397.097 1018.079 397.092 1018.079 M 518.274 1018.079 C 518.274 1018.080 518.274 1029.528 518.274 1029.529 C 518.279 1029.529 569.318 1029.529 569.323 1029.529 C 569.323 1029.528 569.323 1018.080 569.323 1018.079 C 569.318 1018.079 518.279 1018.079 518.274 1018.079 M 642.318 1017.602 C 642.318 1017.603 642.318 1029.051 642.318 1029.052 C 642.323 1029.052 693.362 1029.052 693.367 1029.052 C 693.367 1029.051 693.367 1017.603 693.367 1017.602 C 693.362 1017.602 642.323 1017.602 642.318 1017.602 Z"/>
</g>
<g id="Flour">
<path fill="none" stroke="#000000" stroke-width="6" stroke-linecap="round" stroke-linejoin="round" d="M 730.977 643.769 C 730.977 643.771 730.977 666.712 730.977 666.714 C 730.982 666.714 778.900 666.714 778.904 666.714 C 778.904 666.712 778.904 643.771 778.904 643.769 C 778.900 643.769 730.982 643.769 730.977 643.769 M 632.532 642.658 C 632.532 642.661 632.532 665.602 632.532 665.604 C 632.537 665.604 680.454 665.604 680.459 665.604 C 680.459 665.602 680.459 642.661 680.459 642.658 C 680.454 642.658 632.537 642.658 632.532 642.658 M 535.197 642.103 C 535.197 642.106 535.197 665.047 535.197 665.049 C 535.202 665.049 583.119 665.049 583.124 665.049 C 583.124 665.047 583.124 642.106 583.124 642.103 C 583.119 642.103 535.202 642.103 535.197 642.103 M 338.491 702.614 C 338.491 702.616 338.491 726.853 338.491 726.855 C 338.496 726.855 387.339 726.855 387.344 726.855 C 387.344 726.853 387.344 702.616 387.344 702.614 C 387.339 702.614 338.496 702.614 338.491 702.614 M 240.786 702.984 C 240.786 702.986 240.786 727.223 240.786 727.225 C 240.791 727.225 289.634 727.225 289.639 727.225 C 289.639 727.223 289.639 702.986 289.639 702.984 C 289.634 702.984 240.791 702.984 240.786 702.984 M 142.156 702.984 C 142.156 702.986 142.156 727.223 142.156 727.225 C 142.160 727.225 191.003 727.225 191.008 727.225 C 191.008 727.223 191.008 702.986 191.008 702.984 C 191.003 702.984 142.160 702.984 142.156 702.984 M 43.895 702.429 C 43.895 702.431 43.895 727.037 43.895 727.040 C 43.900 727.040 90.522 727.040 90.527 727.040 C 90.527 727.037 90.527 702.431 90.527 702.429 C 90.522 702.429 43.900 702.429 43.895 702.429 M 67.788 57.881 C 67.788 57.879 68.063 35.798 68.063 35.796 C 68.084 35.796 275.956 37.860 275.976 37.860 C 275.976 37.876 276.492 199.325 276.492 199.341 C 276.492 199.349 278.993 278.293 278.994 278.301 C 279.010 278.301 438.445 280.427 438.461 280.427 C 438.461 280.422 437.044 229.403 437.044 229.398 C 437.036 229.398 354.838 228.689 354.829 228.689 C 354.829 228.669 352.703 26.716 352.703 26.696 C 352.727 26.696 595.779 27.405 595.803 27.405 C 595.824 27.405 804.153 28.114 804.174 28.114 C 804.174 28.138 801.339 271.189 801.339 271.213 C 801.339 271.231 802.048 443.421 802.048 443.439 C 802.048 443.445 801.339 510.763 801.339 510.770 C 801.327 510.770 683.699 510.061 683.687 510.061 C 683.687 510.048 681.561 376.830 681.561 376.817 C 681.543 376.817 500.141 378.943 500.123 378.943 C 500.117 378.943 448.389 377.526 448.384 377.525 C 448.367 377.525 277.593 376.817 277.576 376.817 C 277.576 376.825 276.159 462.566 276.159 462.575 C 276.138 462.575 69.226 460.449 69.205 460.449 C 69.205 460.428 69.205 250.681 69.205 250.660 C 69.205 250.641 67.788 57.901 67.788 57.881 "/>
<path fill="none" stroke="#000000" stroke-width="1" stroke-linecap="round" stroke-linejoin="round" d="M 730.977 643.769 C 730.977 643.771 730.977 666.712 730.977 666.714 C 730.982 666.714 778.900 666.714 778.904 666.714 C 778.904 666.712 778.904 643.771 778.904 643.769 C 778.900 643.769 730.982 643.769 730.977 643.769 M 632.532 642.658 C 632.532 642.661 632.532 665.602 632.532 665.604 C 632.537 665.604 680.454 665.604 680.459 665.604 C 680.459 665.602 680.459 642.661 680.459 642.658 C 680.454 642.658 632.537 642.658 632.532 642.658 M 535.197 642.103 C 535.197 642.106 535.197 665.047 535.197 665.049 C 535.202 665.049 583.119 665.049 583.124 665.049 C 583.124 665.047 583.124 642.106 583.124 642.103 C 583.119 642.103 535.202 642.103 535.197 642.103 M 338.491 702.614 C 338.491 702.616 338.491 726.853 338.491 726.855 C 338.496 726.855 387.339 726.855 387.344 726.855 C 387.344 726.853 387.344 702.616 387.344 702.614 C 387.339 702.614 338.496 702.614 338.491 702.614 M 240.786 702.984 C 240.786 702.986 240.786 727.223 240.786 727.225 C 240.791 727.225 289.634 727.225 289.639 727.225 C 289.639 727.223 289.639 702.986 289.639 702.984 C 289.634 702.984 240.791 702.984 240.786 702.984 M 142.156 702.984 C 142.156 702.986 142.156 727.223 142.156 727.225 C 142.160 727.225 191.003 727.225 191.008 727.225 C 191.008 727.223 191.008 702.986 191.008 702.984 C 191.003 702.984 142.160 702.984 142.156 702.984 M 43.895 702.429 C 43.895 702.431 43.895 727.037 43.895 727.040 C 43.900 727.040 90.522 727.040 90.527 727.040 C 90.527 727.037 90.527 702.431 90.527 702.429 C 90.522 702.429 43.900 702.429 43.895 702.429 M 67.788 57.881 C 67.788 57.879 68.063 35.798 68.063 35.796 C 68.084 35.796 275.956 37.860 275.976 37.860 C 275.976 37.876 276.492 199.325 276.492 199.341 C 276.492 199.349 278.993 278.293 278.994 278.301 C 279.010 278.301 438.445 280.427 438.461 280.427 C 438.461 280.422 437.044 229.403 437.044 229.398 C 437.036 229.398 354.838 228.689 354.829 228.689 C 354.829 228.669 352.703 26.716 352.703 26.696 C 352.727 26.696 595.779 27.405 595.803 27.405 C 595.824 27.405 804.153 28.114 804.174 28.114 C 804.174 28.138 801.339 271.189 801.339 271.213 C 801.339 271.231 802.048 443.421 802.048 443.439 C 802.048 443.445 801.339 510.763 801.339 510.770 C 801.327 510.770 683.699 510.061 683.687 510.061 C 683.687 510.048 681.561 376.830 681.561 376.817 C 681.543 376.817 500.141 378.943 500.123 378.943 C 500.117 378.943 448.389 377.526 448.384 377.525 C 448.367 377.525 277.593 376.817 277.576 376.817 C 277.576 376.825 276.159 462.566 276.159 462.575 C 276.138 462.575 69.226 460.449 69.205 460.449 C 69.205 460.428 69.205 250.681 69.205 250.660 C 69.205 250.641 67.788 57.901 67.788 57.881 "/>
<path fill="none" stroke="#000000" stroke-width="1" stroke-linecap="round" stroke-linejoin="round" d="M 730.977 643.769 C 730.977 643.771 730.977 666.712 730.977 666.714 C 730.982 666.714 778.900 666.714 778.904 666.714 C 778.904 666.712 778.904 643.771 778.904 643.769 C 778.900 643.769 730.982 643.769 730.977 643.769 M 632.532 642.658 C 632.532 642.661 632.532 665.602 632.532 665.604 C 632.537 665.604 680.454 665.604 680.459 665.604 C 680.459 665.602 680.459 642.661 680.459 642.658 C 680.454 642.658 632.537 642.658 632.532 642.658 M 535.197 642.103 C 535.197 642.106 535.197 665.047 535.197 665.049 C 535.202 665.049 583.119 665.049 583.124 665.049 C 583.124 665.047 583.124 642.106 583.124 642.103 C 583.119 642.103 535.202 642.103 535.197 642.103 M 338.491 702.614 C 338.491 702.616 338.491 726.853 338.491 726.855 C 338.496 726.855 387.339 726.855 387.344 726.855 C 387.344 726.853 387.344 702.616 387.344 702.614 C 387.339 702.614 338.496 702.614 338.491 702.614 M 240.786 702.984 C 240.786 702.986 240.786 727.223 240.786 727.225 C 240.791 727.225 289.634 727.225 289.639 727.225 C 289.639 727.223 289.639 702.986 289.639 702.984 C 289.634 702.984 240.791 702.984 240.786 702.984 M 142.156 702.984 C 142.156 702.986 142.156 727.223 142.156 727.225 C 142.160 727.225 191.003 727.225 191.008 727.225 C 191.008 727.223 191.008 702.986 191.008 702.984 C 191.003 702.984 142.160 702.984 142.156 702.984 M 43.895 702.429 C 43.895 702.431 43.895 727.037 43.895 727.040 C 43.900 727.040 90.522 727.040 90.527 727.040 C 90.527 727.037 90.527 702.431 90.527 702.429 C 90.522 702.429 43.900 702.429 43.895 702.429 M 67.788 57.881 C 67.788 57.879 68.063 35.798 68.063 35.796 C 68.084 35.796 275.956 37.860 275.976 37.860 C 275.976 37.876 276.492 199.325 276.492 199.341 C 276.492 199.349 278.993 278.293 278.994 278.301 C 279.010 278.301 438.445 280.427 438.461 280.427 C 438.461 280.422 437.044 229.403 437.044 229.398 C 437.036 229.398 354.838 228.689 354.829 228.689 C 354.829 228.669 352.703 26.716 352.703 26.696 C 352.727 26.696 595.779 27.405 595.803 27.405 C 595.824 27.405 804.153 28.114 804.174 28.114 C 804.174 28.138 801.339 271.189 801.339 271.213 C 801.339 271.231 802.048 443.421 802.048 443.439 C 802.048 443.445 801.339 510.763 801.339 510.770 C 801.327 510.770 683.699 510.061 683.687 510.061 C 683.687 510.048 681.561 376.830 681.561 376.817 C 681.543 376.817 500.141 378.943 500.123 378.943 C 500.117 378.943 448.389 377.526 448.384 377.525 C 448.367 377.525 277.593 376.817 277.576 376.817 C 277.576 376.825 276.159 462.566 276.159 462.575 C 276.138 462.575 69.226 460.449 69.205 460.449 C 69.205 460.428 69.205 250.681 69.205 250.660 C 69.205 250.641 67.788 57.901 67.788 57.881 "/>
<path fill="#ffffff" fill-rule="evenodd" stroke="none" d="M 730.977 643.769 C 730.977 643.771 730.977 666.712 730.977 666.714 C 730.982 666.714 778.900 666.714 778.904 666.714 C 778.904 666.712 778.904 643.771 778.904 643.769 C 778.900 643.769 730.982 643.769 730.977 643.769 M 632.532 642.658 C 632.532 642.661 632.532 665.602 632.532 665.604 C 632.537 665.604 680.454 665.604 680.459 665.604 C 680.459 665.602 680.459 642.661 680.459 642.658 C 680.454 642.658 632.537 642.658 632.532 642.658 M 535.197 642.103 C 535.197 642.106 535.197 665.047 535.197 665.049 C 535.202 665.049 583.119 665.049 583.124 665.049 C 583.124 665.047 583.124 642.106 583.124 642.103 C 583.119 642.103 535.202 642.103 535.197 642.103 M 338.491 702.614 C 338.491 702.616 338.491 726.853 338.491 726.855 C 338.496 726.855 387.339 726.855 387.344 726.855 C 387.344 726.853 387.344 702.616 387.344 702.614 C 387.339 702.614 338.496 702.614 338.491 702.614 M 240.786 702.984 C 240.786 702.986 240.786 727.223 240.786 727.225 C 240.791 727.225 289.634 727.225 289.639 727.225 C 289.639 727.223 289.639 702.986 289.639 702.984 C 289.634 702.984 240.791 702.984 240.786 702.984 M 142.156 702.984 C 142.156 702.986 142.156 727.223 142.156 727.225 C 142.160 727.225 191.003 727.225 191.008 727.225 C 191.008 727.223 191.008 702.986 191.008 702.984 C 191.003 702.984 142.160 702.984 142.156 702.984 M 43.895 702.429 C 43.895 702.431 43.895 727.037 43.895 727.040 C 43.900 727.040 90.522 727.040 90.527 727.040 C 90.527 727.037 90.527 702.431 90.527 702.429 C 90.522 702.429 43.900 702.429 43.895 702.429 M 67.788 57.881 C 67.788 57.879 68.063 35.798 68.063 35.796 C 68.084 35.796 275.956 37.860 275.976 37.860 C 275.976 37.876 276.492 199.325 276.492 199.341 C 276.492 199.349 278.993 278.293 278.994 278.301 C 279.010 278.301 438.445 280.427 438.461 280.427 C 438.461 280.422 437.044 229.403 437.044 229.398 C 437.036 229.398 354.838 228.689 354.829 228.689 C 354.829 228.669 352.703 26.716 352.703 26.696 C 352.727 26.696 595.779 27.405 595.803 27.405 C 595.824 27.405 804.153 28.114 804.174 28.114 C 804.174 28.138 801.339 271.189 801.339 271.213 C 801.339 271.231 802.048 443.421 802.048 443.439 C 802.048 443.445 801.339 510.763 801.339 510.770 C 801.327 510.770 683.699 510.061 683.687 510.061 C 683.687 510.048 681.561 376.830 681.561 376.817 C 681.543 376.817 500.141 378.943 500.123 378.943 C 500.117 378.943 448.389 377.526 448.384 377.525 C 448.367 377.525 277.593 376.817 277.576 376.817 C 277.576 376.825 276.159 462.566 276.159 462.575 C 276.138 462.575 69.226 460.449 69.205 460.449 C 69.205 460.428 69.205 250.681 69.205 250.660 C 69.205 250.641 67.788 57.901 67.788 57.881 Z"/>
</g>
<g id="WallAnfas">
<path fill="#ffffff" fill-rule="evenodd" stroke="none" d="M 682.696 316.516 C 682.694 316.515 632.370 329.520 632.371 329.521 C 632.371 329.521 631.806 305.772 631.806 305.772 C 631.807 305.772 682.690 292.768 682.696 292.767 C 682.696 292.767 731.041 292.767 731.041 292.767 C 731.041 292.767 731.041 316.516 731.041 316.516 C 731.041 316.516 682.696 316.516 682.696 316.516 M 80.697 74.440 C 80.697 74.442 80.697 96.502 80.697 96.504 C 80.704 96.504 142.071 96.504 142.077 96.504 C 142.077 96.502 142.077 74.442 142.077 74.440 C 142.071 74.440 80.704 74.440 80.697 74.440 M 692.318 968.361 C 692.318 968.362 692.318 979.227 692.318 979.228 C 692.334 979.228 852.601 979.228 852.617 979.228 C 852.617 979.227 852.617 968.362 852.617 968.361 C 852.601 968.361 692.334 968.361 692.318 968.361 M 569.603 969.267 C 569.603 969.268 569.603 981.040 569.603 981.041 C 569.610 981.041 641.595 981.041 641.602 981.041 C 641.602 981.040 641.602 969.268 641.602 969.267 C 641.595 969.267 569.610 969.267 569.603 969.267 M 447.342 968.814 C 447.342 968.815 447.342 980.586 447.342 980.588 C 447.349 980.588 519.334 980.588 519.341 980.588 C 519.341 980.586 519.341 968.815 519.341 968.814 C 519.334 968.814 447.349 968.814 447.342 968.814 M 325.533 968.361 C 325.533 968.362 325.533 980.133 325.533 980.135 C 325.540 980.135 397.525 980.135 397.532 980.135 C 397.532 980.133 397.532 968.362 397.532 968.361 C 397.525 968.361 325.540 968.361 325.533 968.361 M 202.366 969.267 C 202.366 969.268 202.366 980.133 202.366 980.135 C 202.373 980.135 275.263 980.135 275.270 980.135 C 275.270 980.133 275.270 969.268 275.270 969.267 C 275.263 969.267 202.373 969.267 202.366 969.267 M 16.256 968.814 C 16.256 968.815 16.256 980.586 16.256 980.587 C 16.270 980.587 150.731 980.587 150.744 980.587 C 150.744 980.586 150.744 968.815 150.744 968.814 C 150.731 968.814 16.270 968.814 16.256 968.814 M 78.400 811.003 C 78.400 811.006 78.400 835.133 78.400 835.135 C 78.394 835.135 18.711 835.135 18.705 835.135 C 18.705 835.133 18.705 811.006 18.705 811.003 C 18.711 811.003 78.394 811.003 78.400 811.003 M 189.215 811.003 C 189.215 811.006 189.215 836.720 189.215 836.723 C 189.208 836.723 116.192 836.723 116.185 836.723 C 116.185 836.720 116.185 811.006 116.185 811.003 C 116.192 811.003 189.208 811.003 189.215 811.003 M 300.666 811.638 C 300.666 811.641 300.666 837.356 300.666 837.358 C 300.658 837.358 227.643 837.358 227.635 837.358 C 227.635 837.356 227.635 811.641 227.635 811.638 C 227.643 811.638 300.658 811.638 300.666 811.638 M 411.481 811.003 C 411.481 811.006 411.481 836.720 411.481 836.723 C 411.474 836.723 338.458 836.723 338.451 836.723 C 338.451 836.720 338.451 811.006 338.451 811.003 C 338.458 811.003 411.474 811.003 411.481 811.003 M 606.440 811.003 C 606.440 811.006 606.440 836.720 606.440 836.723 C 606.433 836.723 533.417 836.723 533.410 836.723 C 533.410 836.720 533.410 811.006 533.410 811.003 C 533.417 811.003 606.433 811.003 606.440 811.003 M 716.303 810.686 C 716.303 810.688 716.303 836.403 716.303 836.405 C 716.296 836.405 643.281 836.405 643.273 836.405 C 643.273 836.403 643.273 810.688 643.273 810.686 C 643.281 810.686 716.296 810.686 716.303 810.686 M 814.418 812.273 C 814.418 812.276 814.418 837.038 814.418 837.040 C 814.412 837.040 753.778 837.040 753.772 837.040 C 753.772 837.038 753.772 812.276 753.772 812.273 C 753.778 812.273 814.412 812.273 814.418 812.273 M 815.053 801.160 C 815.053 801.162 815.053 824.654 815.053 824.657 C 815.056 824.657 850.929 824.657 850.933 824.657 C 850.933 824.654 850.933 801.162 850.933 801.160 C 850.929 801.160 815.056 801.160 815.053 801.160 M 717.256 800.842 C 717.256 800.845 717.256 824.337 717.256 824.339 C 717.259 824.339 753.132 824.339 753.136 824.339 C 753.136 824.337 753.136 800.845 753.136 800.842 C 753.132 800.842 717.259 800.842 717.256 800.842 M 606.758 800.842 C 606.758 800.845 606.758 824.337 606.758 824.339 C 606.762 824.339 642.634 824.339 642.638 824.339 C 642.638 824.337 642.638 800.845 642.638 800.842 C 642.634 800.842 606.762 800.842 606.758 800.842 M 78.717 800.525 C 78.717 800.528 78.717 824.020 78.717 824.022 C 78.720 824.022 114.593 824.022 114.597 824.022 C 114.597 824.020 114.597 800.528 114.597 800.525 C 114.593 800.525 78.720 800.525 78.717 800.525 M 190.803 800.208 C 190.803 800.210 190.803 823.702 190.803 823.705 C 190.806 823.705 226.679 823.705 226.683 823.705 C 226.683 823.702 226.683 800.210 226.683 800.208 C 226.679 800.208 190.806 800.208 190.803 800.208 M 301.618 800.208 C 301.618 800.210 301.618 823.702 301.618 823.705 C 301.622 823.705 337.494 823.705 337.498 823.705 C 337.498 823.702 337.498 800.210 337.498 800.208 C 337.494 800.208 301.622 800.208 301.618 800.208 M 496.895 800.842 C 496.895 800.845 496.895 824.337 496.895 824.339 C 496.898 824.339 532.771 824.339 532.775 824.339 C 532.775 824.337 532.775 800.845 532.775 800.842 C 532.771 800.842 496.898 800.842 496.895 800.842 M 412.116 799.572 C 412.116 799.575 412.116 823.067 412.116 823.069 C 412.120 823.069 447.993 823.069 447.996 823.069 C 447.996 823.067 447.996 799.575 447.996 799.572 C 447.993 799.572 412.120 799.572 412.116 799.572 M 633.784 619.877 C 633.784 619.879 633.784 643.341 633.784 643.343 C 633.789 643.343 679.863 643.343 679.868 643.343 C 679.868 643.341 679.868 619.879 679.868 619.877 C 679.863 619.877 633.789 619.877 633.784 619.877 M 339.752 678.683 C 339.752 678.686 339.752 702.147 339.752 702.150 C 339.757 702.150 385.831 702.150 385.836 702.150 C 385.836 702.147 385.836 678.686 385.836 678.683 C 385.831 678.683 339.757 678.683 339.752 678.683 M 242.213 678.966 C 242.213 678.969 242.213 702.430 242.213 702.433 C 242.217 702.433 288.292 702.433 288.297 702.433 C 288.297 702.430 288.297 678.969 288.297 678.966 C 288.292 678.966 242.217 678.966 242.213 678.966 M 143.543 679.249 C 143.543 679.252 143.543 702.713 143.543 702.716 C 143.547 702.716 189.622 702.716 189.627 702.716 C 189.627 702.713 189.627 679.252 189.627 679.249 C 189.622 679.249 143.547 679.249 143.543 679.249 M 44.307 678.966 C 44.307 678.969 44.307 702.430 44.307 702.433 C 44.312 702.433 90.386 702.433 90.391 702.433 C 90.391 702.430 90.391 678.969 90.391 678.966 C 90.386 678.966 44.312 678.966 44.307 678.966 M 103.114 727.878 C 103.114 727.880 103.114 751.341 103.114 751.343 C 103.110 751.343 68.060 751.343 68.057 751.343 C 68.057 751.341 68.057 727.880 68.057 727.878 C 68.060 727.878 103.110 727.878 103.114 727.878 M 164.747 728.161 C 164.747 728.163 164.747 751.624 164.747 751.626 C 164.744 751.626 129.693 751.626 129.690 751.626 C 129.690 751.624 129.690 728.163 129.690 728.161 C 129.693 728.161 164.744 728.161 164.747 728.161 M 263.135 727.878 C 263.135 727.880 263.135 751.341 263.135 751.343 C 263.131 751.343 228.081 751.343 228.078 751.343 C 228.078 751.341 228.078 727.880 228.078 727.878 C 228.081 727.878 263.131 727.878 263.135 727.878 M 399.125 728.160 C 399.125 728.163 399.125 751.624 399.125 751.626 C 399.121 751.626 364.071 751.626 364.067 751.626 C 364.067 751.624 364.067 728.163 364.067 728.160 C 364.071 728.160 399.121 728.160 399.125 728.160 M 595.900 666.244 C 595.900 666.246 595.900 689.708 595.900 689.710 C 595.896 689.710 560.846 689.710 560.843 689.710 C 560.843 689.708 560.843 666.246 560.843 666.244 C 560.846 666.244 595.896 666.244 595.900 666.244 M 654.706 666.809 C 654.706 666.812 654.706 690.273 654.706 690.275 C 654.703 690.275 619.652 690.275 619.649 690.275 C 619.649 690.273 619.649 666.812 619.649 666.809 C 619.652 666.809 654.703 666.809 654.706 666.809 M 55.051 728.160 C 55.051 728.162 55.051 751.906 55.051 751.909 C 55.048 751.909 30.739 751.909 30.736 751.909 C 30.736 751.906 30.736 728.162 30.736 728.160 C 30.739 728.160 55.048 728.160 55.051 728.160 M 202.915 727.877 C 202.915 727.879 202.915 751.623 202.915 751.626 C 202.912 751.626 178.603 751.626 178.600 751.626 C 178.600 751.623 178.600 727.879 178.600 727.877 C 178.603 727.877 202.912 727.877 202.915 727.877 M 301.302 728.442 C 301.302 728.445 301.302 752.189 301.302 752.191 C 301.300 752.191 276.991 752.191 276.988 752.191 C 276.988 752.189 276.988 728.445 276.988 728.442 C 276.991 728.442 301.300 728.442 301.302 728.442 M 350.214 728.160 C 350.214 728.162 350.214 751.906 350.214 751.909 C 350.211 751.909 325.902 751.909 325.899 751.909 C 325.899 751.906 325.899 728.162 325.899 728.160 C 325.902 728.160 350.211 728.160 350.214 728.160 M 546.423 666.526 C 546.423 666.529 546.423 690.273 546.423 690.275 C 546.421 690.275 522.112 690.275 522.109 690.275 C 522.109 690.273 522.109 666.529 522.109 666.526 C 522.112 666.526 546.421 666.526 546.423 666.526 M 693.440 667.375 C 693.440 667.377 693.440 691.121 693.440 691.124 C 693.437 691.124 669.128 691.124 669.125 691.124 C 669.125 691.121 669.125 667.377 669.125 667.375 C 669.128 667.375 693.437 667.375 693.440 667.375 M 743.199 667.375 C 743.199 667.377 743.199 691.121 743.199 691.124 C 743.196 691.124 718.887 691.124 718.884 691.124 C 718.884 691.121 718.884 667.377 718.884 667.375 C 718.887 667.375 743.196 667.375 743.199 667.375 M 791.827 667.658 C 791.827 667.660 791.827 691.121 791.827 691.124 C 791.823 691.124 756.773 691.124 756.769 691.124 C 756.769 691.121 756.769 667.660 756.769 667.658 C 756.773 667.658 791.823 667.658 791.827 667.658 M 730.476 620.160 C 730.476 620.162 730.476 642.776 730.476 642.778 C 730.481 642.778 779.100 642.778 779.104 642.778 C 779.104 642.776 779.104 620.162 779.104 620.160 C 779.100 620.160 730.481 620.160 730.476 620.160 M 535.680 619.594 C 535.680 619.597 535.680 640.514 535.680 640.516 C 535.685 640.516 583.172 640.516 583.177 640.516 C 583.177 640.514 583.177 619.597 583.177 619.594 C 583.172 619.594 535.685 619.594 535.680 619.594 M 613.711 582.841 C 613.711 582.843 613.711 605.739 613.711 605.741 C 613.699 605.741 496.110 605.741 496.098 605.741 C 496.098 605.739 496.098 582.843 496.098 582.841 C 496.110 582.841 613.699 582.841 613.711 582.841 M 804.549 582.841 C 804.549 582.843 804.549 606.021 804.549 606.024 C 804.530 606.024 614.384 606.024 614.365 606.024 C 614.365 606.021 614.365 582.843 614.365 582.841 C 614.384 582.841 804.530 582.841 804.549 582.841 M 791.544 486.715 C 791.544 486.717 791.544 510.461 791.544 510.464 C 791.533 510.464 681.010 510.464 680.999 510.464 C 680.999 510.461 680.999 486.717 680.999 486.715 C 681.010 486.715 791.533 486.715 791.544 486.715 M 682.130 426.778 C 682.130 426.775 682.130 402.466 682.130 402.463 C 682.131 402.463 693.721 402.463 693.722 402.463 C 693.722 402.466 693.722 426.775 693.722 426.778 C 693.721 426.778 682.131 426.778 682.130 426.778 M 694.570 366.275 C 694.570 366.272 694.570 340.833 694.570 340.830 C 694.580 340.830 790.121 340.830 790.130 340.830 C 790.130 340.833 790.130 366.272 790.130 366.275 C 790.121 366.275 694.580 366.275 694.570 366.275 M 767.512 292.767 C 767.512 292.769 767.512 316.513 767.512 316.516 C 767.511 316.516 755.639 316.516 755.638 316.516 C 755.638 316.513 755.638 292.769 755.638 292.767 C 755.639 292.767 767.511 292.767 767.512 292.767 M 681.848 352.987 C 681.848 352.989 681.848 378.430 681.848 378.432 C 681.829 378.432 498.661 378.432 498.643 378.432 C 498.643 378.430 498.643 352.989 498.643 352.987 C 498.661 352.987 681.829 352.987 681.848 352.987 M 448.318 352.704 C 448.318 352.707 448.318 377.864 448.318 377.867 C 448.301 377.867 277.854 377.867 277.837 377.867 C 277.837 377.864 277.837 352.707 277.837 352.704 C 277.854 352.704 448.301 352.704 448.318 352.704 M 277.271 437.238 C 277.271 437.241 277.271 461.833 277.271 461.835 C 277.250 461.835 67.512 461.835 67.491 461.835 C 67.491 461.833 67.491 437.241 67.491 437.238 C 67.512 437.238 277.250 437.238 277.271 437.238 M 239.669 351.573 C 239.669 351.576 239.669 375.885 239.669 375.887 C 239.663 375.887 179.737 375.887 179.731 375.887 C 179.731 375.885 179.731 351.576 179.731 351.573 C 179.737 351.573 239.663 351.573 239.669 351.573 M 166.727 363.730 C 166.727 363.733 166.727 388.607 166.727 388.610 C 166.728 388.610 178.034 388.610 178.035 388.610 C 178.035 388.607 178.035 363.733 178.035 363.730 C 178.034 363.730 166.728 363.730 166.727 363.730 M 165.595 352.138 C 165.595 352.141 165.595 375.885 165.595 375.887 C 165.587 375.887 80.504 375.887 80.496 375.887 C 80.496 375.885 80.496 352.141 80.496 352.138 C 80.504 352.138 165.587 352.138 165.595 352.138 M 179.731 315.385 C 179.731 315.387 179.731 339.131 179.731 339.134 C 179.737 339.134 240.228 339.134 240.234 339.134 C 240.234 339.131 240.234 315.387 240.234 315.385 C 240.228 315.385 179.737 315.385 179.731 315.385 M 265.397 291.636 C 265.397 291.638 265.397 315.665 265.397 315.667 C 265.398 315.667 277.552 315.667 277.554 315.667 C 277.554 315.665 277.554 291.638 277.554 291.636 C 277.552 291.636 265.398 291.636 265.397 291.636 M 448.318 267.605 C 448.318 267.607 448.318 292.482 448.318 292.484 C 448.308 292.484 350.506 292.484 350.496 292.484 C 350.496 292.482 350.496 267.607 350.496 267.605 C 350.506 267.605 448.308 267.605 448.318 267.605 M 278.684 268.170 C 278.684 268.172 278.684 291.068 278.684 291.070 C 278.689 291.070 325.895 291.070 325.899 291.070 C 325.899 291.068 325.899 268.172 325.899 268.170 C 325.895 268.170 278.689 268.170 278.684 268.170 M 351.627 208.515 C 351.627 208.518 351.627 231.131 351.627 231.133 C 351.636 231.133 438.132 231.133 438.141 231.133 C 438.141 231.131 438.141 208.518 438.141 208.515 C 438.132 208.515 351.636 208.515 351.627 208.515 M 498.643 268.735 C 498.643 268.738 498.643 292.482 498.643 292.484 C 498.654 292.484 608.329 292.484 608.340 292.484 C 608.340 292.482 608.340 268.738 608.340 268.735 C 608.329 268.735 498.654 268.735 498.643 268.735 M 511.365 207.950 C 511.365 207.952 511.365 231.696 511.365 231.699 C 511.374 231.699 596.174 231.699 596.182 231.699 C 596.182 231.696 596.182 207.952 596.182 207.950 C 596.174 207.950 511.374 207.950 511.365 207.950 M 646.224 244.704 C 646.224 244.706 646.224 267.602 646.224 267.605 C 646.235 267.605 754.779 267.605 754.790 267.605 C 754.790 267.602 754.790 244.706 754.790 244.704 C 754.779 244.704 646.235 244.704 646.224 244.704 M 766.665 210.212 C 766.665 210.214 766.665 233.958 766.665 233.960 C 766.667 233.960 790.693 233.960 790.696 233.960 C 790.696 233.958 790.696 210.214 790.696 210.212 C 790.693 210.212 766.667 210.212 766.665 210.212 M 694.005 208.798 C 694.005 208.801 694.005 232.545 694.005 232.547 C 694.009 232.547 742.063 232.547 742.068 232.547 C 742.068 232.545 742.068 208.801 742.068 208.798 C 742.063 208.798 694.009 208.798 694.005 208.798 M 632.371 208.515 C 632.371 208.518 632.371 233.110 632.371 233.113 C 632.375 233.113 669.686 233.113 669.690 233.113 C 669.690 233.110 669.690 208.518 669.690 208.515 C 669.686 208.515 632.375 208.515 632.371 208.515 M 644.528 149.427 C 644.528 149.429 644.528 172.325 644.528 172.327 C 644.538 172.327 742.058 172.327 742.068 172.327 C 742.068 172.325 742.068 149.429 742.068 149.427 C 742.058 149.427 644.538 149.427 644.528 149.427 M 743.199 113.238 C 743.199 113.240 743.199 136.984 743.199 136.987 C 743.204 136.987 792.105 136.987 792.110 136.987 C 792.110 136.984 792.110 113.240 792.110 113.238 C 792.105 113.238 743.204 113.238 743.199 113.238 M 598.162 26.442 C 598.162 26.445 598.162 51.036 598.162 51.039 C 598.181 51.039 794.634 51.039 794.654 51.039 C 794.654 51.036 794.654 26.445 794.654 26.442 C 794.634 26.442 598.181 26.442 598.162 26.442 M 669.973 99.667 C 669.973 99.670 669.973 124.827 669.973 124.830 C 669.977 124.830 707.006 124.830 707.010 124.830 C 707.010 124.827 707.010 99.670 707.010 99.667 C 707.006 99.667 669.977 99.667 669.973 99.667 M 596.748 99.385 C 596.748 99.387 596.748 123.414 596.748 123.416 C 596.753 123.416 646.502 123.416 646.507 123.416 C 646.507 123.414 646.507 99.387 646.507 99.385 C 646.502 99.385 596.753 99.385 596.748 99.385 M 364.067 38.317 C 364.067 38.319 364.067 62.346 364.067 62.348 C 364.089 62.348 584.851 62.348 584.873 62.348 C 584.873 62.346 584.873 38.319 584.873 38.317 C 584.851 38.317 364.089 38.317 364.067 38.317 M 265.114 25.594 C 265.114 25.596 265.114 49.340 265.114 49.343 C 265.103 49.343 154.863 49.343 154.852 49.343 C 154.852 49.340 154.852 25.596 154.852 25.594 C 154.863 25.594 265.103 25.594 265.114 25.594 M 81.061 25.028 C 81.061 25.031 81.061 48.209 81.061 48.212 C 81.067 48.212 142.406 48.212 142.412 48.212 C 142.412 48.209 142.412 25.031 142.412 25.028 C 142.406 25.028 81.067 25.028 81.061 25.028 M 253.522 148.013 C 253.522 148.015 253.522 170.346 253.522 170.348 C 253.523 170.348 264.547 170.348 264.548 170.348 C 264.548 170.346 264.548 148.015 264.548 148.013 C 264.547 148.013 253.523 148.013 253.522 148.013 M 240.234 183.353 C 240.234 183.355 240.234 206.534 240.234 206.537 C 240.232 206.537 216.488 206.537 216.486 206.537 C 216.486 206.534 216.486 183.355 216.486 183.353 C 216.488 183.353 240.232 183.353 240.234 183.353 M 179.449 195.793 C 179.449 195.795 179.449 219.257 179.449 219.259 C 179.453 219.259 215.916 219.259 215.920 219.259 C 215.920 219.257 215.920 195.795 215.920 195.793 C 215.916 195.793 179.453 195.793 179.449 195.793 M 153.721 194.945 C 153.721 194.947 153.721 218.409 153.721 218.411 C 153.714 218.411 80.503 218.411 80.496 218.411 C 80.496 218.409 80.496 194.947 80.496 194.945 C 80.503 194.945 153.714 194.945 153.721 194.945 M 180.014 134.725 C 180.014 134.727 180.014 157.906 180.014 157.908 C 180.018 157.908 216.765 157.908 216.769 157.908 C 216.769 157.906 216.769 134.727 216.769 134.725 C 216.765 134.725 180.018 134.725 180.014 134.725 M 154.004 134.160 C 154.004 134.162 154.004 157.623 154.004 157.626 C 153.996 157.626 80.221 157.626 80.213 157.626 C 80.213 157.623 80.213 134.162 80.213 134.160 C 80.221 134.160 153.996 134.160 154.004 134.160 M 277.837 75.636 C 277.837 75.638 277.837 98.534 277.837 98.536 C 277.832 98.536 229.213 98.536 229.208 98.536 C 229.208 98.534 229.208 75.638 229.208 75.636 C 229.213 75.636 277.832 75.636 277.837 75.636 M 215.920 98.254 C 215.920 98.251 215.920 74.790 215.920 74.788 C 215.918 74.788 191.326 74.788 191.323 74.788 C 191.323 74.790 191.323 98.251 191.323 98.254 C 191.326 98.254 215.918 98.254 215.920 98.254 M 180.297 98.254 C 180.297 98.256 180.297 122.000 180.297 122.002 C 180.298 122.002 190.474 122.002 190.475 122.002 C 190.475 122.000 190.475 98.256 190.475 98.254 C 190.474 98.254 180.298 98.254 180.297 98.254 M 142.412 97.405 C 142.412 97.408 142.412 122.000 142.412 122.002 C 142.413 122.002 154.003 122.002 154.004 122.002 C 154.004 122.000 154.004 97.408 154.004 97.405 C 154.003 97.405 142.413 97.405 142.412 97.405 M 142.695 37.186 C 142.695 37.188 142.695 61.215 142.695 61.217 C 142.696 61.217 154.568 61.217 154.569 61.217 C 154.569 61.215 154.569 37.188 154.569 37.186 C 154.568 37.186 142.696 37.186 142.695 37.186 Z"/>
</g>
<g id="BushAnfas_">
<path fill="#ffffff" fill-rule="evenodd" stroke="none" d="M 363.654 556.823 C 363.654 556.825 363.654 580.279 363.654 580.281 C 363.643 580.281 254.532 580.281 254.521 580.281 C 254.521 580.279 254.521 556.825 254.521 556.823 C 254.532 556.823 363.643 556.823 363.654 556.823 M 314.456 450.973 C 314.456 450.976 314.456 472.430 314.456 472.432 C 314.463 472.432 387.902 472.432 387.909 472.432 C 387.909 472.430 387.909 450.976 387.909 450.973 C 387.902 450.973 314.463 450.973 314.456 450.973 M 103.175 496.365 C 103.175 496.368 103.175 520.297 103.175 520.300 C 103.196 520.300 314.435 520.300 314.456 520.300 C 314.456 520.297 314.456 496.368 314.456 496.365 C 314.435 496.365 103.196 496.365 103.175 496.365 M 363.150 499.667 C 363.150 499.669 363.150 519.472 363.150 519.474 C 363.152 519.474 388.732 519.474 388.734 519.474 C 388.734 519.472 388.734 499.669 388.734 499.667 C 388.732 499.667 363.152 499.667 363.150 499.667 M 203.038 556.614 C 203.038 556.616 203.038 580.546 203.038 580.548 C 203.041 580.548 228.620 580.548 228.623 580.548 C 228.623 580.546 228.623 556.616 228.623 556.614 C 228.620 556.614 203.041 556.614 203.038 556.614 M 226.972 583.849 C 226.972 583.852 226.972 606.131 226.972 606.133 C 226.975 606.133 254.205 606.133 254.208 606.133 C 254.208 606.131 254.208 583.852 254.208 583.849 C 254.205 583.849 226.975 583.849 226.972 583.849 M 67.686 594.578 C 67.686 594.581 67.686 617.685 67.686 617.687 C 67.694 617.687 141.132 617.687 141.139 617.687 C 141.139 617.685 141.139 594.581 141.139 594.578 C 141.132 594.578 67.694 594.578 67.686 594.578 M 66.036 641.621 C 66.036 641.624 66.036 663.903 66.036 663.905 C 66.069 663.905 399.430 663.905 399.464 663.905 C 399.464 663.903 399.464 641.624 399.464 641.621 C 399.430 641.621 66.069 641.621 66.036 641.621 Z"/>
</g>
<g id="BushUp">
<path fill="#ffffff" fill-rule="evenodd" stroke="none" d="M 282.765 640.176 C 282.722 640.176 165.239 641.052 165.211 641.020 C 165.196 641.003 165.422 580.893 165.422 580.871 C 165.422 580.858 165.623 545.212 165.633 545.204 C 165.637 545.201 178.503 545.201 178.507 545.204 C 178.524 545.217 178.702 604.706 178.718 604.720 C 178.725 604.725 203.616 604.713 203.622 604.720 C 203.629 604.726 203.827 630.460 203.833 630.467 C 203.850 630.488 277.683 629.855 277.700 629.834 C 277.705 629.827 277.694 605.149 277.700 605.142 C 277.719 605.117 363.365 604.696 363.385 604.720 C 363.390 604.727 363.800 629.195 363.807 629.201 C 363.813 629.207 388.070 628.574 388.077 628.568 C 388.092 628.555 388.077 573.926 388.077 573.906 C 388.077 573.892 389.132 533.611 389.132 533.596 C 389.132 533.584 389.141 498.571 389.132 498.563 C 389.126 498.556 363.603 497.923 363.596 497.929 C 363.579 497.943 364.243 556.585 364.229 556.601 C 364.203 556.631 254.720 556.781 254.695 556.812 C 254.689 556.819 254.279 581.920 254.273 581.926 C 254.267 581.933 229.376 582.144 229.370 582.137 C 229.363 582.131 229.587 556.185 229.581 556.179 C 229.574 556.172 203.206 555.975 203.200 555.968 C 203.197 555.964 203.409 544.785 203.411 544.782 C 203.443 544.738 352.167 545.458 352.199 545.415 C 352.205 545.407 351.777 517.145 351.777 517.135 C 351.777 517.124 352.191 486.119 352.199 486.111 C 352.208 486.101 388.279 486.120 388.288 486.111 C 388.297 486.101 388.297 450.453 388.288 450.444 C 388.270 450.423 314.017 450.212 314.000 450.233 C 313.989 450.245 315.276 495.595 315.266 495.608 C 315.227 495.660 136.152 495.185 136.087 495.186 C 136.075 495.186 104.226 495.828 104.218 495.819 C 104.216 495.816 104.216 484.848 104.218 484.845 C 104.246 484.806 235.442 486.321 235.490 486.322 C 235.514 486.322 302.375 486.550 302.392 486.533 C 302.404 486.520 302.802 438.005 302.814 437.992 C 302.837 437.966 399.661 438.600 399.685 438.625 C 399.702 438.644 399.896 507.824 399.896 507.849 C 399.896 507.870 399.052 565.233 399.052 565.254 C 399.052 565.275 399.895 623.271 399.896 623.292 C 399.896 623.298 400.533 640.804 400.529 640.809 C 400.504 640.844 282.808 640.175 282.765 640.176 M 141.152 593.534 C 141.144 593.534 66.444 594.128 66.437 594.128 C 66.437 594.117 65.952 485.577 65.952 485.566 C 65.954 485.566 79.313 484.845 79.315 484.845 C 79.315 484.852 79.526 554.272 79.526 554.279 C 79.526 554.282 79.315 580.868 79.315 580.871 C 79.320 580.871 129.117 580.871 129.122 580.871 C 129.122 580.867 129.333 544.997 129.333 544.993 C 129.334 544.993 141.362 544.782 141.363 544.782 C 141.363 544.787 141.152 593.529 141.152 593.534 Z"/>
</g>
<g id="WallsUp">
<path fill="#ffffff" fill-rule="evenodd" stroke="none" d="M 265.039 421.721 C 265.303 421.638 265.039 326.732 265.039 326.732 C 265.039 326.732 277.218 326.732 277.218 326.732 C 277.218 326.732 276.866 421.477 276.866 421.477 C 276.844 421.619 276.947 437.417 276.947 437.417 C 276.947 437.417 265.039 437.417 265.039 437.417 C 265.039 437.417 265.039 421.721 265.039 421.721 M 228.776 183.572 C 228.776 183.572 228.722 162.734 228.722 162.734 C 228.722 162.734 229.046 73.428 229.046 73.428 C 229.046 73.428 216.868 73.428 216.868 73.428 C 216.868 73.428 216.760 162.734 216.760 162.734 C 216.760 162.734 216.598 183.572 216.598 183.572 C 216.598 183.572 228.776 183.572 228.776 183.572 M 240.412 314.554 C 240.412 314.554 240.312 290.897 240.312 290.897 C 240.312 290.897 240.142 242.839 240.142 242.839 C 240.142 242.839 216.057 242.839 216.057 242.839 C 216.057 242.839 216.057 291.010 216.057 291.010 C 216.057 291.010 179.255 291.010 179.252 291.010 C 179.252 291.010 166.803 291.010 166.803 291.010 C 166.803 291.010 166.803 363.807 166.803 363.807 C 166.803 363.807 179.252 363.807 179.252 363.807 C 179.252 363.807 179.421 314.559 179.421 314.554 C 179.421 314.554 240.412 314.554 240.412 314.554 M 277.488 291.551 C 277.488 291.551 278.029 215.776 278.029 215.776 C 278.029 215.776 278.029 110.504 278.029 110.504 C 278.029 110.504 265.580 110.504 265.580 110.504 C 265.581 110.504 265.426 122.680 265.426 122.681 C 265.426 122.681 253.132 122.681 253.132 122.681 C 253.132 122.681 253.132 147.579 253.132 147.579 C 253.132 147.579 265.426 147.494 265.426 147.494 C 265.425 147.494 265.310 215.499 265.310 215.506 C 265.310 215.506 265.310 291.551 265.310 291.551 C 265.310 291.551 277.488 291.551 277.488 291.551 M 80.389 209.863 C 80.389 209.863 80.700 117.293 80.700 117.293 C 80.700 117.293 81.015 24.716 81.015 24.716 C 81.015 24.716 68.026 24.716 68.026 24.716 C 68.026 24.716 67.789 117.215 67.789 117.215 C 67.789 117.215 67.561 209.863 67.561 209.863 C 67.561 209.864 67.232 291.651 67.232 291.651 C 67.232 291.651 67.213 385.187 67.213 385.187 C 67.213 385.187 67.213 437.688 67.213 437.688 C 67.213 437.688 79.933 437.688 79.933 437.688 C 79.933 437.688 79.885 384.947 79.885 384.947 C 79.885 384.947 80.158 291.525 80.158 291.525 C 80.158 291.525 80.389 209.863 80.389 209.863 M 363.128 37.706 C 363.128 37.706 584.799 37.591 584.799 37.591 C 584.799 37.591 583.834 123.764 583.834 123.764 C 583.834 123.764 584.375 207.657 584.375 207.657 C 584.375 207.657 597.095 207.657 597.095 207.657 C 597.095 207.657 597.050 123.985 597.050 123.985 C 597.050 123.985 597.906 37.165 597.906 37.165 C 597.906 37.165 597.906 25.528 597.906 25.528 C 597.906 25.528 563.749 25.581 563.749 25.581 C 563.749 25.581 363.005 25.257 363.005 25.257 C 363.005 25.257 351.098 25.257 351.098 25.257 C 351.098 25.257 351.098 87.230 351.098 87.230 C 351.098 87.230 351.249 147.460 351.249 147.460 C 351.249 147.460 351.098 209.552 351.098 209.552 C 351.098 209.552 363.005 209.552 363.005 209.552 C 363.005 209.552 363.078 147.500 363.078 147.500 C 363.078 147.500 363.128 37.706 363.128 37.706 M 791.944 209.552 C 791.944 209.552 791.944 370.302 791.944 370.302 C 791.944 370.303 791.673 455.205 791.673 455.205 C 791.673 455.205 791.474 540.944 791.474 540.944 C 791.474 540.944 791.403 583.825 791.403 583.825 C 791.403 583.825 804.392 583.825 804.392 583.825 C 804.392 583.825 804.531 541.009 804.531 541.009 C 804.531 541.009 804.663 456.632 804.663 456.632 C 804.663 456.632 804.663 370.844 804.663 370.844 C 804.663 370.844 804.934 284.244 804.934 284.244 C 804.934 284.244 804.846 198.331 804.846 198.331 C 804.846 198.331 805.694 112.669 805.694 112.669 C 805.694 112.669 805.746 26.881 805.746 26.881 C 805.746 26.881 792.755 26.881 792.755 26.881 C 792.755 26.881 792.748 112.669 792.748 112.669 C 792.748 112.669 792.735 197.253 792.735 197.253 C 792.735 197.253 767.046 197.374 767.046 197.374 C 767.046 197.374 767.046 209.552 767.046 209.552 C 767.046 209.552 791.944 209.552 791.944 209.552 M 606.713 800.156 C 606.713 800.157 606.603 811.762 606.603 811.763 C 606.595 811.763 533.882 811.433 533.875 811.433 C 533.875 811.432 533.985 800.487 533.985 800.486 C 533.992 800.486 606.706 800.156 606.713 800.156 M 716.801 800.055 C 716.801 800.057 716.581 811.571 716.581 811.572 C 716.573 811.572 643.902 811.352 643.895 811.352 C 643.895 811.351 643.565 799.946 643.565 799.945 C 643.572 799.945 716.793 800.055 716.801 800.055 M 814.523 799.984 C 814.523 799.985 814.523 812.271 814.523 812.272 C 814.517 812.272 753.820 812.272 753.814 812.272 C 753.814 812.271 753.594 800.205 753.594 800.204 C 753.600 800.204 814.517 799.984 814.523 799.984 M 851.086 787.666 C 851.086 787.668 851.086 799.374 851.086 799.375 C 851.081 799.375 801.990 799.485 801.986 799.485 C 801.986 799.484 801.875 787.668 801.875 787.666 C 801.880 787.666 851.081 787.666 851.086 787.666 M 702.822 787.604 C 702.822 787.606 702.822 799.643 702.822 799.644 C 702.829 799.644 764.506 799.644 764.512 799.644 C 764.512 799.643 764.622 787.826 764.622 787.825 C 764.616 787.825 702.829 787.605 702.822 787.604 M 594.684 787.666 C 594.684 787.668 594.684 799.814 594.684 799.815 C 594.690 799.815 655.156 799.375 655.162 799.375 C 655.162 799.374 655.162 787.668 655.162 787.666 C 655.156 787.666 594.690 787.666 594.684 787.666 M 496.032 787.896 C 496.032 787.898 496.032 800.083 496.032 800.084 C 496.037 800.084 543.858 800.084 543.863 800.084 C 543.863 800.083 543.863 787.898 543.863 787.896 C 543.858 787.896 496.037 787.896 496.032 787.896 M 190.257 800.272 C 190.257 800.273 190.350 810.525 190.350 810.526 C 190.343 810.526 115.690 810.433 115.682 810.433 C 115.682 810.431 115.589 799.710 115.589 799.709 C 115.596 799.709 190.249 800.272 190.257 800.272 M 300.108 800.774 C 300.108 800.775 300.108 811.121 300.108 811.122 C 300.101 811.122 226.759 811.122 226.752 811.122 C 226.752 811.121 226.752 800.775 226.752 800.774 C 226.759 800.774 300.101 800.774 300.108 800.774 M 411.415 800.536 C 411.415 800.537 411.178 811.121 411.178 811.122 C 411.170 811.122 337.829 811.122 337.821 811.122 C 337.821 811.121 337.821 800.775 337.821 800.774 C 337.829 800.774 411.408 800.536 411.415 800.536 M 448.661 789.046 C 448.661 789.047 448.661 799.853 448.661 799.854 C 448.656 799.854 399.098 799.973 399.093 799.973 C 399.093 799.972 399.450 789.047 399.450 789.046 C 399.455 789.046 448.656 789.046 448.661 789.046 M 289.070 789.736 C 289.070 789.737 289.070 800.543 289.070 800.544 C 289.076 800.544 348.624 800.544 348.630 800.544 C 348.630 800.543 348.630 789.737 348.630 789.736 C 348.624 789.736 289.076 789.736 289.070 789.736 M 179.151 788.816 C 179.151 788.817 179.151 799.623 179.151 799.624 C 179.157 799.624 238.985 800.279 238.991 800.280 C 238.991 800.278 238.710 788.817 238.710 788.816 C 238.704 788.816 179.157 788.816 179.151 788.816 M 68.311 788.356 C 68.311 788.357 68.311 799.163 68.311 799.164 C 68.317 799.164 127.864 799.164 127.870 799.164 C 127.870 799.163 127.870 788.357 127.870 788.356 C 127.864 788.356 68.317 788.356 68.311 788.356 M 18.870 799.854 C 18.870 799.855 18.870 810.661 18.870 810.662 C 18.876 810.662 78.424 810.662 78.429 810.662 C 78.429 810.661 78.429 799.855 78.429 799.854 C 78.424 799.854 18.876 799.854 18.870 799.854 M 43.246 680.047 C 43.246 680.051 43.246 727.643 43.246 727.648 C 43.245 727.648 31.289 727.648 31.288 727.648 C 31.288 727.643 31.288 680.051 31.288 680.047 C 31.289 680.047 43.245 680.047 43.246 680.047 M 103.035 679.817 C 103.035 679.822 103.035 727.413 103.035 727.418 C 103.034 727.418 91.078 727.418 91.077 727.418 C 91.077 727.413 91.077 679.822 91.077 679.817 C 91.078 679.817 103.034 679.817 103.035 679.817 M 141.898 680.047 C 141.898 680.051 141.898 727.643 141.898 727.648 C 141.897 727.648 129.941 727.648 129.940 727.648 C 129.940 727.643 129.940 680.051 129.940 680.047 C 129.941 680.047 141.897 680.047 141.898 680.047 M 202.607 679.587 C 202.607 679.591 202.607 727.183 202.607 727.188 C 202.605 727.188 190.650 727.188 190.649 727.188 C 190.649 727.183 190.649 679.591 190.649 679.587 C 190.650 679.587 202.605 679.587 202.607 679.587 M 240.320 680.507 C 240.320 680.511 240.320 728.103 240.320 728.108 C 240.318 728.108 228.363 728.108 228.362 728.108 C 228.362 728.103 228.362 680.511 228.362 680.507 C 228.363 680.507 240.318 680.507 240.320 680.507 M 301.718 680.047 C 301.718 680.051 301.718 727.643 301.718 727.648 C 301.717 727.648 289.762 727.648 289.760 727.648 C 289.760 727.643 289.760 680.051 289.760 680.047 C 289.762 680.047 301.717 680.047 301.718 680.047 M 338.971 679.817 C 338.971 679.822 338.971 727.413 338.971 727.418 C 338.970 727.418 327.014 727.418 327.013 727.418 C 327.013 727.413 327.013 679.822 327.013 679.817 C 327.014 679.817 338.970 679.817 338.971 679.817 M 398.530 679.817 C 398.530 679.822 398.530 727.413 398.530 727.418 C 398.529 727.418 386.574 727.418 386.572 727.418 C 386.572 727.413 386.572 679.822 386.572 679.817 C 386.574 679.817 398.529 679.817 398.530 679.817 M 790.378 619.338 C 790.378 619.343 790.378 666.934 790.378 666.939 C 790.377 666.939 778.421 666.939 778.420 666.939 C 778.420 666.934 778.420 619.343 778.420 619.338 C 778.421 619.338 790.377 619.338 790.378 619.338 M 730.589 620.028 C 730.589 620.032 730.589 667.624 730.589 667.629 C 730.587 667.629 718.632 667.629 718.631 667.629 C 718.631 667.624 718.631 620.032 718.631 620.028 C 718.632 620.028 730.587 620.028 730.589 620.028 M 693.106 620.028 C 693.106 620.032 693.106 667.624 693.106 667.629 C 693.105 667.629 681.149 667.629 681.148 667.629 C 681.148 667.624 681.148 620.032 681.148 620.028 C 681.149 620.028 693.105 620.028 693.106 620.028 M 632.397 619.568 C 632.397 619.572 632.397 667.164 632.397 667.169 C 632.396 667.169 620.440 667.169 620.439 667.169 C 620.439 667.164 620.439 619.572 620.439 619.568 C 620.440 619.568 632.396 619.568 632.397 619.568 M 595.834 618.648 C 595.834 618.653 595.834 666.244 595.834 666.249 C 595.833 666.249 583.877 666.249 583.876 666.249 C 583.876 666.244 583.876 618.653 583.876 618.648 C 583.877 618.648 595.833 618.648 595.834 618.648 M 535.125 618.878 C 535.125 618.883 535.125 666.704 535.125 666.709 C 535.124 666.709 522.708 666.709 522.707 666.709 C 522.707 666.704 522.707 618.883 522.707 618.878 C 522.708 618.878 535.124 618.878 535.125 618.878 M 730.783 150.015 C 730.783 150.011 730.783 112.402 730.783 112.398 C 730.784 112.398 742.418 112.398 742.419 112.398 C 742.419 112.402 742.419 150.011 742.419 150.015 C 742.418 150.015 730.784 150.015 730.783 150.015 M 631.734 209.281 C 631.734 209.275 631.734 148.668 631.734 148.662 C 631.736 148.662 644.723 148.662 644.724 148.662 C 644.724 148.668 644.724 209.275 644.724 209.281 C 644.723 209.281 631.736 209.281 631.734 209.281 M 718.604 208.740 C 718.604 208.738 718.604 184.386 718.604 184.384 C 718.603 184.384 706.699 184.384 706.698 184.384 C 706.698 184.386 706.698 208.738 706.698 208.740 C 706.699 208.740 718.603 208.740 718.604 208.740 M 766.776 292.904 C 766.776 292.899 766.776 245.550 766.776 245.545 C 766.775 245.545 755.140 245.545 755.139 245.545 C 755.139 245.550 755.139 292.899 755.139 292.904 C 755.140 292.904 766.775 292.904 766.776 292.904 M 632.817 243.650 C 632.817 243.657 631.734 304.264 631.734 304.270 C 631.736 304.270 644.994 301.023 644.995 301.023 C 644.995 301.017 646.077 244.468 646.077 244.463 C 646.076 244.462 632.818 243.650 632.817 243.650 M 681.529 403.319 C 681.529 403.312 681.529 340.540 681.529 340.534 C 681.531 340.534 693.977 340.534 693.978 340.534 C 693.978 340.540 693.978 403.312 693.978 403.319 C 693.977 403.319 681.531 403.319 681.529 403.319 M 693.437 487.753 C 693.437 487.750 693.437 450.140 693.437 450.137 C 693.435 450.137 681.530 450.137 681.529 450.137 C 681.529 450.140 681.529 487.750 681.529 487.753 C 681.530 487.753 693.435 487.753 693.437 487.753 M 694.249 51.237 C 694.249 51.242 694.249 99.403 694.249 99.408 C 694.250 99.408 706.967 99.408 706.968 99.408 C 706.968 99.403 706.968 51.242 706.968 51.237 C 706.967 51.237 694.250 51.237 694.249 51.237 M 645.536 99.679 C 645.536 99.676 645.536 74.513 645.536 74.511 C 645.535 74.511 634.442 74.511 634.441 74.511 C 634.441 74.513 634.441 99.676 634.441 99.679 C 634.442 99.679 645.535 99.679 645.536 99.679 M 511.036 269.901 C 511.036 269.895 511.036 207.935 511.036 207.928 C 511.035 207.928 499.130 207.928 499.129 207.928 C 499.129 207.935 499.129 269.895 499.129 269.901 C 499.130 269.901 511.035 269.901 511.036 269.901 M 448.793 268.818 C 448.793 268.812 448.793 206.852 448.793 206.846 C 448.792 206.846 436.886 206.846 436.885 206.846 C 436.885 206.852 436.885 268.812 436.885 268.818 C 436.886 268.818 448.792 268.818 448.793 268.818 M 177.899 437.688 C 177.899 437.685 177.899 411.981 177.899 411.979 C 177.897 411.979 165.992 411.979 165.991 411.979 C 165.991 411.981 165.991 437.685 165.991 437.688 C 165.992 437.688 177.897 437.688 177.899 437.688 M 154.354 196.021 C 154.354 196.018 154.354 169.773 154.354 169.770 C 154.353 169.770 141.366 169.770 141.364 169.770 C 141.364 169.773 141.364 196.018 141.364 196.021 C 141.366 196.021 154.353 196.021 154.354 196.021 M 191.430 196.291 C 191.430 196.289 191.430 170.314 191.430 170.312 C 191.429 170.312 179.524 170.312 179.522 170.312 C 179.522 170.314 179.522 196.289 179.522 196.291 C 179.524 196.291 191.429 196.291 191.430 196.291 M 154.084 73.428 C 154.084 73.430 154.084 97.511 154.084 97.513 C 154.082 97.513 142.448 97.513 142.447 97.513 C 142.447 97.511 142.447 73.430 142.447 73.428 C 142.448 73.428 154.082 73.428 154.084 73.428 M 191.971 73.428 C 191.971 73.431 191.971 98.323 191.971 98.326 C 191.970 98.326 178.982 98.326 178.981 98.326 C 178.981 98.323 178.981 73.431 178.981 73.428 C 178.982 73.428 191.970 73.428 191.971 73.428 M 278.570 25.528 C 278.570 25.533 278.570 75.588 278.570 75.593 C 278.569 75.593 265.582 75.593 265.580 75.593 C 265.580 75.588 265.580 25.533 265.580 25.528 C 265.582 25.528 278.569 25.528 278.570 25.528 M 153.813 24.986 C 153.813 24.988 153.813 37.705 153.813 37.706 C 153.812 37.706 142.448 37.706 142.447 37.706 C 142.447 37.705 142.447 24.988 142.447 24.986 C 142.448 24.986 153.812 24.986 153.813 24.986 Z"/>
</g>
<g id="Stouns">
<path fill="#ffffff" fill-rule="evenodd" stroke="none" d="M 495.291 870.420 C 495.292 870.421 697.727 870.708 698.016 870.710 C 698.235 870.711 851.662 872.330 851.798 872.158 C 851.840 872.104 850.400 824.130 850.350 824.083 C 850.312 824.048 814.490 823.504 814.439 823.504 C 814.144 823.501 607.954 823.503 607.659 823.504 C 607.499 823.505 495.974 824.252 495.871 824.373 C 495.828 824.423 495.183 870.346 495.291 870.420 M 190.625 871.000 C 190.607 871.000 18.615 870.420 18.598 870.420 C 18.598 870.417 18.598 835.671 18.598 835.667 C 18.604 835.666 79.409 824.084 79.415 824.083 C 79.418 824.083 115.033 822.635 115.037 822.635 C 115.048 822.635 225.656 822.925 225.667 822.925 C 225.678 822.925 341.498 822.635 341.510 822.635 C 341.520 822.635 446.916 820.898 446.927 820.897 C 446.927 820.902 448.954 871.284 448.954 871.289 C 448.928 871.289 190.650 871.000 190.625 871.000 Z"/>
</g>
<g id="Trail">
<path fill="#ffffff" fill-rule="evenodd" stroke="#000000" stroke-width="1" stroke-linecap="round" stroke-linejoin="round" d="M 498.366 382.773 C 498.366 382.778 498.159 438.916 498.159 438.922 C 498.159 438.928 498.366 498.781 498.366 498.787 C 498.366 498.793 497.334 556.995 497.334 557.000 C 497.339 557.000 545.633 557.207 545.638 557.207 C 545.638 557.206 545.638 552.459 545.638 552.459 C 545.638 552.452 546.257 490.948 546.257 490.942 C 546.258 490.936 546.877 427.162 546.877 427.155 C 546.886 427.155 632.743 426.536 632.752 426.536 C 632.752 426.537 632.752 436.857 632.752 436.858 C 632.752 436.864 632.752 494.652 632.752 494.658 C 632.752 494.665 632.339 558.645 632.339 558.651 C 632.344 558.651 682.290 558.445 682.295 558.445 C 682.295 558.448 681.676 582.388 681.676 582.391 C 681.666 582.391 582.393 582.391 582.383 582.391 C 582.374 582.391 497.135 581.359 497.127 581.359 C 497.127 581.361 496.921 604.890 496.921 604.892 C 496.921 604.898 496.508 669.911 496.508 669.917 C 496.508 669.923 496.508 731.634 496.508 731.640 C 496.508 731.646 496.302 791.086 496.302 791.092 C 496.302 791.099 495.889 859.620 495.888 859.627 C 495.888 859.633 495.270 921.344 495.269 921.350 C 495.265 921.350 448.621 920.111 448.616 920.111 C 448.616 920.106 448.822 873.462 448.822 873.458 C 448.822 873.451 448.822 807.201 448.822 807.194 C 448.822 807.187 449.029 743.207 449.029 743.201 C 449.029 743.194 447.997 673.228 447.997 673.221 C 447.997 673.214 447.790 607.789 447.790 607.782 C 447.790 607.775 447.171 539.873 447.171 539.866 C 447.171 539.861 447.790 481.866 447.790 481.860 C 447.790 481.854 448.203 423.652 448.203 423.646 C 448.203 423.639 448.203 352.641 448.203 352.634 C 448.208 352.634 498.567 353.047 498.572 353.047 C 498.572 353.047 498.366 382.770 498.366 382.773 Z"/>
</g>
<g id="Sea">
<path fill="#ffffff" fill-rule="evenodd" stroke="#000000" stroke-width="1" stroke-linecap="round" stroke-linejoin="round" d="M 15.873 1039.460 C 15.873 1039.453 15.301 969.099 15.301 969.092 C 15.314 969.092 150.875 969.664 150.888 969.664 C 150.889 969.670 152.032 1029.729 152.032 1029.734 C 152.037 1029.734 201.800 1030.307 201.805 1030.307 C 201.805 1030.301 203.521 969.670 203.521 969.664 C 203.528 969.664 276.171 969.664 276.178 969.664 C 276.178 969.670 275.606 1029.729 275.606 1029.734 C 275.611 1029.734 325.373 1029.734 325.378 1029.734 C 325.379 1029.729 326.522 970.242 326.522 970.236 C 326.530 970.236 397.456 970.236 397.463 970.236 C 397.463 970.242 398.607 1028.584 398.607 1028.590 C 398.612 1028.590 447.231 1030.307 447.236 1030.307 C 447.236 1030.301 448.952 971.386 448.952 971.380 C 448.959 971.380 519.885 969.664 519.892 969.664 C 519.892 969.670 520.464 1027.440 520.464 1027.446 C 520.469 1027.446 569.088 1028.018 569.092 1028.018 C 569.092 1028.012 570.237 969.670 570.237 969.664 C 570.244 969.664 644.030 969.092 644.038 969.092 C 644.038 969.098 643.465 1028.012 643.465 1028.018 C 643.470 1028.018 692.089 1028.590 692.094 1028.590 C 692.094 1028.584 693.238 969.098 693.238 969.092 C 693.254 969.092 851.693 969.664 851.709 969.664 C 851.709 969.671 851.137 1042.313 851.137 1042.320 C 851.095 1042.321 429.543 1044.608 429.501 1044.609 C 429.459 1044.608 15.914 1039.461 15.873 1039.460 Z"/>
</g>
<g id="Tower">
<path fill="#ffffff" fill-rule="evenodd" stroke="#000000" stroke-width="1" stroke-linecap="round" stroke-linejoin="round" d="M 17.347 778.831 C 17.347 778.831 21.756 784.929 21.757 784.930 C 21.757 784.931 21.381 795.813 21.381 795.814 C 21.382 795.814 24.993 799.548 26.987 800.420 C 35.483 804.136 48.991 804.873 57.851 802.135 C 60.504 801.315 65.575 797.034 65.576 797.033 C 65.576 797.032 65.201 784.274 65.201 784.273 C 65.201 784.272 69.891 778.362 69.892 778.361 C 69.892 778.360 69.705 765.226 69.704 765.225 C 69.704 765.225 68.803 762.885 68.803 762.884 C 68.803 762.884 67.093 761.885 67.093 761.885 C 67.092 761.885 63.457 761.529 63.457 761.529 C 63.457 761.529 62.439 761.593 62.439 761.593 C 62.438 761.594 61.115 762.887 61.114 762.887 C 61.114 762.887 60.791 765.225 60.791 765.225 C 60.790 765.225 59.346 765.198 58.761 765.016 C 58.373 764.895 57.562 764.384 57.562 764.384 C 57.562 764.383 56.906 761.697 56.906 761.696 C 56.905 761.696 52.029 761.514 49.941 761.598 C 49.163 761.629 47.354 761.818 47.354 761.818 C 47.354 761.818 47.091 764.568 47.091 764.568 C 47.090 764.568 40.055 764.756 40.054 764.756 C 40.054 764.756 39.334 761.793 39.334 761.793 C 39.333 761.793 30.143 761.684 30.142 761.684 C 30.142 761.684 29.852 763.327 29.528 763.953 C 29.304 764.387 28.513 765.225 28.512 765.225 C 28.512 765.225 25.604 765.225 25.604 765.225 C 25.604 765.224 25.810 761.662 25.810 761.662 C 25.810 761.662 24.073 761.500 24.073 761.500 C 24.073 761.500 21.429 761.519 20.416 761.964 C 19.660 762.297 18.786 763.050 18.286 763.708 C 17.779 764.373 17.159 766.257 17.159 766.257 C 17.159 766.258 17.347 778.829 17.347 778.831 M 128.130 779.564 C 128.130 779.565 132.539 785.662 132.540 785.663 C 132.540 785.664 132.164 796.546 132.164 796.547 C 132.165 796.548 135.775 800.282 137.770 801.154 C 146.266 804.869 159.773 805.606 168.633 802.868 C 171.287 802.048 176.358 797.767 176.359 797.767 C 176.359 797.766 175.983 785.008 175.983 785.006 C 175.984 785.006 180.674 779.095 180.675 779.095 C 180.675 779.093 180.487 765.960 180.487 765.958 C 180.487 765.958 179.586 763.618 179.586 763.618 C 179.586 763.618 177.876 762.618 177.876 762.618 C 177.875 762.618 174.240 762.263 174.240 762.263 C 174.240 762.263 173.221 762.327 173.221 762.327 C 173.221 762.327 171.897 763.620 171.897 763.620 C 171.897 763.621 171.573 765.958 171.573 765.958 C 171.573 765.958 170.129 765.931 169.544 765.749 C 169.156 765.628 168.345 765.117 168.345 765.117 C 168.345 765.117 167.688 762.430 167.688 762.430 C 167.688 762.430 162.812 762.247 160.724 762.331 C 159.946 762.362 158.137 762.551 158.137 762.551 C 158.137 762.552 157.874 765.301 157.874 765.301 C 157.873 765.301 150.838 765.489 150.837 765.489 C 150.837 765.489 150.117 762.527 150.117 762.526 C 150.116 762.526 140.926 762.417 140.925 762.417 C 140.925 762.417 140.635 764.060 140.311 764.687 C 140.087 765.120 139.295 765.958 139.295 765.958 C 139.295 765.958 136.387 765.958 136.387 765.958 C 136.387 765.958 136.593 762.395 136.593 762.395 C 136.592 762.395 134.856 762.234 134.856 762.234 C 134.856 762.234 132.212 762.252 131.199 762.697 C 130.443 763.030 129.569 763.784 129.069 764.441 C 128.562 765.106 127.942 766.990 127.942 766.990 C 127.942 766.992 128.130 779.563 128.130 779.564 M 238.423 780.297 C 238.424 780.298 242.833 786.396 242.833 786.396 C 242.833 786.398 242.458 797.280 242.458 797.281 C 242.458 797.281 246.069 801.015 248.063 801.887 C 256.560 805.602 270.067 806.340 278.927 803.602 C 281.580 802.782 286.652 798.501 286.652 798.500 C 286.652 798.499 286.277 785.741 286.277 785.740 C 286.277 785.739 290.968 779.829 290.968 779.828 C 290.968 779.827 290.781 766.693 290.781 766.692 C 290.781 766.691 289.880 764.351 289.880 764.351 C 289.879 764.351 288.169 763.352 288.169 763.352 C 288.169 763.352 284.534 762.996 284.533 762.996 C 284.533 762.996 283.515 763.060 283.515 763.060 C 283.515 763.060 282.191 764.354 282.191 764.354 C 282.191 764.354 281.867 766.691 281.867 766.692 C 281.867 766.692 280.422 766.665 279.838 766.483 C 279.450 766.362 278.639 765.851 278.639 765.851 C 278.639 765.850 277.982 763.163 277.982 763.163 C 277.981 763.163 273.106 762.981 271.018 763.064 C 270.239 763.096 268.431 763.285 268.431 763.285 C 268.431 763.285 268.168 766.035 268.168 766.035 C 268.167 766.035 261.131 766.223 261.130 766.223 C 261.130 766.222 260.410 763.260 260.410 763.260 C 260.409 763.260 251.219 763.151 251.219 763.151 C 251.218 763.151 250.928 764.793 250.605 765.420 C 250.381 765.854 249.589 766.691 249.589 766.692 C 249.589 766.692 246.681 766.692 246.680 766.692 C 246.680 766.691 246.886 763.129 246.886 763.128 C 246.886 763.128 245.150 762.967 245.150 762.967 C 245.149 762.967 242.505 762.986 241.493 763.431 C 240.737 763.763 239.863 764.517 239.362 765.174 C 238.856 765.840 238.235 767.724 238.235 767.724 C 238.235 767.725 238.423 780.296 238.423 780.297 M 348.472 780.053 C 348.473 780.053 352.882 786.151 352.882 786.152 C 352.882 786.153 352.507 797.035 352.507 797.036 C 352.507 797.037 356.118 800.770 358.112 801.643 C 366.609 805.358 380.116 806.095 388.976 803.357 C 391.629 802.537 396.700 798.256 396.701 798.256 C 396.701 798.254 396.326 785.496 396.326 785.495 C 396.326 785.494 401.017 779.584 401.017 779.583 C 401.017 779.582 400.830 766.448 400.830 766.447 C 400.830 766.447 399.929 764.107 399.928 764.107 C 399.928 764.106 398.218 763.107 398.218 763.107 C 398.218 763.107 394.583 762.752 394.582 762.752 C 394.582 762.752 393.564 762.816 393.564 762.816 C 393.564 762.816 392.240 764.109 392.240 764.109 C 392.240 764.109 391.916 766.447 391.916 766.447 C 391.916 766.447 390.471 766.420 389.887 766.238 C 389.498 766.117 388.688 765.606 388.688 765.606 C 388.688 765.606 388.031 762.919 388.031 762.918 C 388.030 762.918 383.155 762.736 381.067 762.820 C 380.288 762.851 378.480 763.040 378.480 763.040 C 378.480 763.041 378.217 765.790 378.217 765.790 C 378.216 765.790 371.180 765.978 371.179 765.978 C 371.179 765.978 370.459 763.015 370.459 763.015 C 370.458 763.015 361.268 762.906 361.267 762.906 C 361.267 762.906 360.977 764.549 360.654 765.175 C 360.430 765.609 359.638 766.447 359.638 766.447 C 359.638 766.447 356.730 766.447 356.729 766.447 C 356.729 766.447 356.935 762.884 356.935 762.884 C 356.935 762.884 355.199 762.723 355.198 762.723 C 355.198 762.723 352.554 762.741 351.542 763.186 C 350.786 763.519 349.912 764.273 349.411 764.930 C 348.905 765.595 348.284 767.479 348.284 767.479 C 348.284 767.480 348.472 780.052 348.472 780.053 M 543.137 777.852 C 543.137 777.853 547.546 783.950 547.547 783.951 C 547.547 783.952 547.172 794.834 547.172 794.835 C 547.172 794.836 550.783 798.570 552.777 799.442 C 561.274 803.157 574.781 803.894 583.641 801.156 C 586.294 800.336 591.365 796.055 591.366 796.055 C 591.366 796.054 590.991 783.295 590.991 783.294 C 590.991 783.294 595.682 777.383 595.682 777.383 C 595.682 777.381 595.495 764.247 595.495 764.246 C 595.495 764.246 594.593 761.906 594.593 761.906 C 594.593 761.906 592.883 760.906 592.883 760.906 C 592.882 760.906 589.247 760.551 589.247 760.551 C 589.247 760.551 588.229 760.615 588.229 760.615 C 588.229 760.615 586.905 761.908 586.905 761.908 C 586.904 761.909 586.581 764.246 586.581 764.246 C 586.580 764.246 585.136 764.219 584.552 764.037 C 584.163 763.916 583.353 763.405 583.352 763.405 C 583.352 763.405 582.696 760.718 582.696 760.718 C 582.695 760.718 577.819 760.535 575.732 760.619 C 574.953 760.650 573.145 760.839 573.144 760.839 C 573.144 760.840 572.881 763.589 572.881 763.589 C 572.881 763.589 565.845 763.777 565.844 763.777 C 565.844 763.777 565.124 760.815 565.124 760.814 C 565.123 760.814 555.933 760.705 555.932 760.705 C 555.932 760.705 555.642 762.348 555.318 762.975 C 555.094 763.408 554.303 764.246 554.303 764.246 C 554.302 764.246 551.394 764.246 551.394 764.246 C 551.394 764.246 551.600 760.683 551.600 760.683 C 551.600 760.683 549.863 760.522 549.863 760.522 C 549.863 760.522 547.219 760.540 546.207 760.985 C 545.451 761.318 544.577 762.072 544.076 762.729 C 543.569 763.394 542.949 765.278 542.949 765.278 C 542.949 765.280 543.137 777.851 543.137 777.852 M 651.718 777.607 C 651.719 777.608 656.128 783.706 656.128 783.706 C 656.128 783.707 655.753 794.590 655.753 794.591 C 655.754 794.591 659.364 798.325 661.358 799.197 C 669.855 802.912 683.362 803.650 692.222 800.912 C 694.876 800.092 699.947 795.811 699.948 795.810 C 699.948 795.809 699.572 783.051 699.572 783.050 C 699.573 783.049 704.263 777.139 704.264 777.138 C 704.264 777.137 704.076 764.003 704.076 764.002 C 704.076 764.001 703.175 761.661 703.175 761.661 C 703.175 761.661 701.464 760.662 701.464 760.661 C 701.464 760.661 697.829 760.306 697.829 760.306 C 697.829 760.306 696.810 760.370 696.810 760.370 C 696.810 760.370 695.486 761.664 695.486 761.664 C 695.486 761.664 695.162 764.001 695.162 764.002 C 695.162 764.002 693.717 763.974 693.133 763.793 C 692.745 763.672 691.934 763.161 691.934 763.160 C 691.934 763.160 691.277 760.473 691.277 760.473 C 691.276 760.473 686.401 760.291 684.313 760.374 C 683.535 760.405 681.726 760.595 681.726 760.595 C 681.726 760.595 681.463 763.344 681.463 763.345 C 681.462 763.345 674.426 763.533 674.426 763.533 C 674.426 763.532 673.706 760.570 673.705 760.570 C 673.704 760.570 664.515 760.460 664.514 760.460 C 664.514 760.461 664.224 762.103 663.900 762.730 C 663.676 763.164 662.884 764.001 662.884 764.002 C 662.884 764.002 659.976 764.002 659.976 764.002 C 659.976 764.001 660.181 760.439 660.181 760.438 C 660.181 760.438 658.445 760.277 658.445 760.277 C 658.444 760.277 655.800 760.296 654.788 760.741 C 654.032 761.073 653.158 761.827 652.658 762.484 C 652.151 763.150 651.531 765.033 651.531 765.034 C 651.531 765.035 651.718 777.606 651.718 777.607 M 758.344 776.874 C 758.344 776.875 762.753 782.972 762.754 782.973 C 762.754 782.974 762.379 793.856 762.378 793.857 C 762.379 793.858 765.990 797.592 767.984 798.464 C 776.480 802.179 789.988 802.916 798.848 800.178 C 801.501 799.358 806.572 795.077 806.573 795.077 C 806.573 795.076 806.198 782.317 806.198 782.316 C 806.198 782.316 810.888 776.405 810.889 776.405 C 810.889 776.403 810.702 763.269 810.702 763.268 C 810.701 763.268 809.800 760.928 809.800 760.928 C 809.800 760.928 808.090 759.928 808.090 759.928 C 808.089 759.928 804.454 759.573 804.454 759.573 C 804.454 759.573 803.436 759.637 803.436 759.637 C 803.435 759.637 802.112 760.930 802.112 760.930 C 802.111 760.930 801.788 763.268 801.788 763.268 C 801.787 763.268 800.343 763.241 799.758 763.059 C 799.370 762.938 798.560 762.427 798.559 762.427 C 798.559 762.427 797.903 759.740 797.903 759.740 C 797.902 759.740 793.026 759.557 790.938 759.641 C 790.160 759.672 788.352 759.861 788.351 759.861 C 788.351 759.862 788.088 762.611 788.088 762.611 C 788.088 762.611 781.052 762.799 781.051 762.799 C 781.051 762.799 780.331 759.836 780.331 759.836 C 780.330 759.836 771.140 759.727 771.139 759.727 C 771.139 759.727 770.849 761.370 770.525 761.997 C 770.301 762.430 769.510 763.268 769.510 763.268 C 769.509 763.268 766.601 763.268 766.601 763.268 C 766.601 763.268 766.807 759.705 766.807 759.705 C 766.807 759.705 765.070 759.544 765.070 759.544 C 765.070 759.544 762.426 759.562 761.413 760.007 C 760.658 760.340 759.784 761.094 759.283 761.751 C 758.776 762.416 758.156 764.300 758.156 764.300 C 758.156 764.302 758.344 776.873 758.344 776.874 Z"/>
</g>
<g id="Pillars">
<path fill="#ffffff" fill-rule="evenodd" stroke="none" d="M 557.291 180.367 C 553.662 185.134 540.855 185.032 537.194 180.242 C 536.820 179.753 537.086 178.807 537.097 178.191 C 537.108 177.610 537.014 176.788 537.256 176.260 C 537.575 175.566 538.557 175.039 539.080 174.483 C 539.307 174.240 539.751 173.975 539.807 173.647 C 539.935 172.898 538.612 172.167 538.625 171.407 C 538.630 171.098 538.889 170.730 539.061 170.473 C 539.406 169.958 540.348 169.584 540.492 168.980 C 540.554 168.720 540.307 168.376 540.305 168.109 C 540.302 167.747 540.451 167.274 540.554 166.927 C 540.599 166.774 540.707 166.585 540.741 166.429 C 541.178 164.423 540.774 161.638 540.803 159.585 C 540.821 158.278 540.882 156.537 540.885 155.230 C 540.886 154.726 540.583 153.967 540.865 153.549 C 541.956 151.934 545.318 152.460 547.267 152.441 C 549.214 152.422 552.503 151.876 553.683 153.425 C 553.968 153.800 553.781 154.521 553.802 154.992 C 553.863 156.333 553.845 158.126 553.839 159.469 C 553.831 160.941 553.740 162.904 553.747 164.376 C 553.751 165.086 553.401 166.159 553.807 166.741 C 553.917 166.898 554.259 166.892 554.367 167.051 C 554.586 167.377 554.349 167.974 554.429 168.358 C 554.474 168.572 554.578 168.848 554.678 169.043 C 554.898 169.471 555.416 169.909 555.611 170.349 C 555.744 170.647 555.888 171.082 555.860 171.407 C 555.818 171.898 555.520 172.548 555.176 172.900 C 555.012 173.068 554.538 173.045 554.491 173.274 C 554.381 173.808 555.515 174.031 555.922 174.393 C 556.159 174.604 556.466 174.897 556.669 175.140 C 556.815 175.315 557.008 175.556 557.104 175.762 C 557.195 175.955 557.259 176.236 557.291 176.447 C 557.469 177.609 558.004 179.431 557.291 180.367 M 558.003 107.765 C 554.373 112.533 541.566 112.431 537.905 107.640 C 537.531 107.151 537.798 106.205 537.809 105.589 C 537.819 105.008 537.725 104.186 537.968 103.658 C 538.286 102.964 539.268 102.438 539.791 101.881 C 540.019 101.639 540.463 101.373 540.519 101.045 C 540.646 100.296 539.323 99.565 539.336 98.805 C 539.342 98.496 539.600 98.128 539.772 97.872 C 540.117 97.356 541.059 96.982 541.203 96.378 C 541.265 96.118 541.019 95.775 541.016 95.507 C 541.013 95.145 541.162 94.673 541.265 94.325 C 541.311 94.172 541.418 93.983 541.452 93.827 C 541.889 91.821 541.485 89.036 541.514 86.983 C 541.533 85.677 541.593 83.935 541.596 82.629 C 541.597 82.124 541.294 81.366 541.577 80.948 C 542.667 79.332 546.029 79.858 547.978 79.839 C 549.925 79.821 553.214 79.274 554.394 80.823 C 554.680 81.198 554.492 81.919 554.514 82.390 C 554.575 83.732 554.557 85.524 554.550 86.867 C 554.542 88.340 554.451 90.302 554.458 91.775 C 554.462 92.484 554.112 93.557 554.518 94.139 C 554.628 94.296 554.971 94.290 555.078 94.450 C 555.298 94.775 555.060 95.372 555.141 95.756 C 555.185 95.970 555.290 96.246 555.389 96.441 C 555.609 96.870 556.127 97.307 556.323 97.748 C 556.455 98.045 556.599 98.480 556.572 98.805 C 556.530 99.296 556.232 99.946 555.887 100.299 C 555.724 100.466 555.250 100.443 555.202 100.672 C 555.092 101.206 556.227 101.429 556.634 101.792 C 556.870 102.002 557.178 102.295 557.381 102.538 C 557.527 102.713 557.719 102.954 557.816 103.160 C 557.906 103.353 557.971 103.635 558.003 103.845 C 558.181 105.007 558.715 106.829 558.003 107.765 M 409.953 106.251 C 406.324 111.019 393.517 110.917 389.856 106.126 C 389.482 105.637 389.748 104.691 389.759 104.075 C 389.770 103.494 389.676 102.672 389.918 102.144 C 390.237 101.450 391.219 100.924 391.742 100.367 C 391.969 100.125 392.413 99.859 392.469 99.531 C 392.597 98.782 391.274 98.051 391.287 97.291 C 391.292 96.982 391.551 96.614 391.723 96.357 C 392.068 95.842 393.010 95.468 393.154 94.864 C 393.216 94.604 392.969 94.261 392.967 93.993 C 392.964 93.631 393.112 93.158 393.216 92.811 C 393.261 92.658 393.369 92.469 393.403 92.313 C 393.840 90.307 393.436 87.522 393.465 85.469 C 393.483 84.163 393.544 82.421 393.547 81.115 C 393.548 80.610 393.245 79.852 393.527 79.434 C 394.618 77.818 397.980 78.344 399.929 78.325 C 401.876 78.307 405.165 77.760 406.344 79.309 C 406.630 79.684 406.443 80.405 406.464 80.876 C 406.525 82.218 406.507 84.010 406.500 85.353 C 406.493 86.825 406.402 88.788 406.409 90.261 C 406.413 90.970 406.062 92.043 406.469 92.625 C 406.579 92.782 406.921 92.776 407.029 92.936 C 407.248 93.261 407.010 93.858 407.091 94.242 C 407.136 94.456 407.240 94.732 407.340 94.927 C 407.560 95.355 408.078 95.793 408.273 96.234 C 408.406 96.531 408.550 96.966 408.522 97.291 C 408.480 97.782 408.182 98.432 407.838 98.785 C 407.674 98.952 407.200 98.929 407.153 99.158 C 407.043 99.692 408.177 99.915 408.584 100.278 C 408.821 100.488 409.128 100.781 409.331 101.024 C 409.477 101.199 409.670 101.440 409.766 101.646 C 409.857 101.839 409.921 102.120 409.953 102.331 C 410.131 103.493 410.666 105.315 409.953 106.251 M 409.953 178.943 C 406.324 183.711 393.517 183.609 389.856 178.818 C 389.482 178.329 389.748 177.383 389.759 176.767 C 389.770 176.186 389.676 175.364 389.918 174.836 C 390.237 174.142 391.219 173.616 391.742 173.059 C 391.969 172.817 392.413 172.551 392.469 172.223 C 392.597 171.474 391.274 170.743 391.287 169.983 C 391.292 169.674 391.551 169.306 391.723 169.049 C 392.068 168.534 393.010 168.160 393.154 167.556 C 393.216 167.296 392.969 166.953 392.967 166.685 C 392.964 166.323 393.112 165.851 393.216 165.503 C 393.261 165.350 393.369 165.161 393.403 165.005 C 393.840 162.999 393.436 160.214 393.465 158.161 C 393.483 156.855 393.544 155.113 393.547 153.807 C 393.548 153.302 393.245 152.544 393.527 152.126 C 394.618 150.510 397.980 151.036 399.929 151.017 C 401.876 150.999 405.165 150.452 406.344 152.001 C 406.630 152.376 406.443 153.097 406.464 153.568 C 406.525 154.910 406.507 156.702 406.500 158.045 C 406.493 159.518 406.402 161.480 406.409 162.953 C 406.413 163.662 406.062 164.735 406.469 165.317 C 406.579 165.474 406.921 165.468 407.029 165.628 C 407.248 165.953 407.010 166.550 407.091 166.934 C 407.136 167.148 407.240 167.424 407.340 167.619 C 407.560 168.047 408.078 168.485 408.273 168.926 C 408.406 169.223 408.550 169.658 408.522 169.983 C 408.480 170.474 408.182 171.124 407.838 171.477 C 407.674 171.644 407.200 171.621 407.153 171.850 C 407.043 172.384 408.177 172.607 408.584 172.970 C 408.821 173.180 409.128 173.473 409.331 173.716 C 409.477 173.891 409.670 174.132 409.766 174.338 C 409.857 174.531 409.921 174.812 409.953 175.023 C 410.131 176.185 410.666 178.007 409.953 178.943 Z"/>
</g>
</svg>
