<?xml version="1.0" encoding="utf-8"?>
<!-- Generator: Moho 12.2 build 21774 -->
<!DOCTYPE svg PUBLIC "-//W3C//DTD SVG 1.1//EN" "http://www.w3.org/Graphics/SVG/1.1/DTD/svg11.dtd">
<svg version="1.1" id="Frame_0" xmlns="http://www.w3.org/2000/svg" xmlns:xlink="http://www.w3.org/1999/xlink" width="1280px" height="960px">
<g id="Flor">
<path fill="#ffffff" fill-rule="evenodd" stroke="#000000" stroke-width="5" stroke-linecap="round" stroke-linejoin="round" d="M 38.926 76.241 C 39.043 76.241 1212.754 76.241 1212.871 76.241 C 1212.874 76.289 1240.883 553.312 1240.886 553.360 C 1240.873 553.360 1110.246 559.394 1110.233 559.395 C 1110.233 559.398 1109.904 588.378 1109.904 588.381 C 1109.882 588.382 891.193 597.576 891.171 597.576 C 891.115 597.578 330.479 609.634 330.423 609.635 C 330.422 609.646 328.413 710.118 328.413 710.128 C 328.384 710.128 45.052 716.157 45.024 716.158 C 45.023 716.094 38.926 76.305 38.926 76.241 Z"/>
</g>
<g id="Kletki">
<g id="Kletki">
<path fill="#ffffff" fill-rule="evenodd" stroke="#000000" stroke-width="5" stroke-linecap="round" stroke-linejoin="round" d="M 615.473 446.014 C 615.476 446.014 644.885 446.014 644.888 446.014 C 644.888 446.011 644.888 417.262 644.888 417.259 C 644.885 417.259 615.476 417.259 615.473 417.259 C 615.473 417.262 615.473 446.011 615.473 446.014 Z"/>
<path fill="#ffffff" fill-rule="evenodd" stroke="#000000" stroke-width="5" stroke-linecap="round" stroke-linejoin="round" d="M 646.063 446.014 C 646.066 446.014 675.475 446.014 675.478 446.014 C 675.478 446.011 675.478 417.262 675.478 417.259 C 675.475 417.259 646.066 417.259 646.063 417.259 C 646.063 417.262 646.063 446.011 646.063 446.014 Z"/>
<path fill="#ffffff" fill-rule="evenodd" stroke="#000000" stroke-width="5" stroke-linecap="round" stroke-linejoin="round" d="M 675.453 446.014 C 675.456 446.014 704.866 446.014 704.869 446.014 C 704.869 446.011 704.869 417.262 704.869 417.259 C 704.866 417.259 675.456 417.259 675.453 417.259 C 675.453 417.262 675.453 446.011 675.453 446.014 Z"/>
<path fill="#ffffff" fill-rule="evenodd" stroke="#000000" stroke-width="5" stroke-linecap="round" stroke-linejoin="round" d="M 615.473 474.650 C 615.476 474.650 644.885 474.650 644.888 474.650 C 644.888 474.648 644.888 445.898 644.888 445.896 C 644.885 445.896 615.476 445.896 615.473 445.896 C 615.473 445.898 615.473 474.648 615.473 474.650 Z"/>
<path fill="#ffffff" fill-rule="evenodd" stroke="#000000" stroke-width="5" stroke-linecap="round" stroke-linejoin="round" d="M 646.063 474.650 C 646.066 474.650 675.475 474.650 675.478 474.650 C 675.478 474.647 675.478 445.898 675.478 445.896 C 675.475 445.896 646.066 445.896 646.063 445.896 C 646.063 445.898 646.063 474.647 646.063 474.650 Z"/>
<path fill="#ffffff" fill-rule="evenodd" stroke="#000000" stroke-width="5" stroke-linecap="round" stroke-linejoin="round" d="M 675.453 474.650 C 675.456 474.650 704.866 474.650 704.869 474.650 C 704.869 474.647 704.869 445.898 704.869 445.896 C 704.866 445.896 675.456 445.896 675.453 445.896 C 675.453 445.898 675.453 474.647 675.453 474.650 Z"/>
<path fill="#ffffff" fill-rule="evenodd" stroke="#000000" stroke-width="5" stroke-linecap="round" stroke-linejoin="round" d="M 614.873 504.641 C 614.876 504.641 644.285 504.641 644.288 504.641 C 644.288 504.638 644.288 475.889 644.288 475.886 C 644.285 475.886 614.876 475.886 614.873 475.886 C 614.873 475.889 614.873 504.638 614.873 504.641 Z"/>
<path fill="#ffffff" fill-rule="evenodd" stroke="#000000" stroke-width="5" stroke-linecap="round" stroke-linejoin="round" d="M 645.463 504.640 C 645.466 504.640 674.875 504.640 674.878 504.640 C 674.878 504.637 674.878 475.889 674.878 475.886 C 674.875 475.886 645.466 475.886 645.463 475.886 C 645.463 475.889 645.463 504.637 645.463 504.640 Z"/>
<path fill="#ffffff" fill-rule="evenodd" stroke="#000000" stroke-width="5" stroke-linecap="round" stroke-linejoin="round" d="M 674.853 504.640 C 674.856 504.640 704.266 504.640 704.269 504.640 C 704.269 504.637 704.269 475.889 704.269 475.886 C 704.266 475.886 674.856 475.886 674.853 475.886 C 674.853 475.889 674.853 504.637 674.853 504.640 Z"/>
</g>
</g>
<g id="Grass">
<path fill="#ffffff" fill-rule="evenodd" stroke="#000000" stroke-width="5" stroke-linecap="round" stroke-linejoin="round" d="M 909.590 501.529 C 909.570 501.530 709.063 504.005 709.043 504.005 C 709.042 503.996 706.567 409.931 706.567 409.922 C 706.587 409.921 907.094 402.495 907.114 402.494 C 907.114 402.504 909.589 501.520 909.590 501.529 M 611.436 503.792 C 611.434 503.792 316.092 511.165 316.062 511.166 C 316.062 511.124 313.844 90.386 313.843 90.344 C 313.853 90.335 443.317 88.072 443.330 88.072 C 443.331 88.105 447.873 415.163 447.873 415.196 C 447.890 415.196 611.419 411.265 611.436 411.265 C 611.436 411.274 611.441 503.785 611.436 503.792 Z"/>
</g>
</svg>
