<?xml version="1.0" encoding="utf-8"?>
<!-- Generator: Moho 12.2 build 21774 -->
<!DOCTYPE svg PUBLIC "-//W3C//DTD SVG 1.1//EN" "http://www.w3.org/Graphics/SVG/1.1/DTD/svg11.dtd">
<svg version="1.1" id="Frame_39" xmlns="http://www.w3.org/2000/svg" xmlns:xlink="http://www.w3.org/1999/xlink" width="70px" height="70px">
<g id="Layer_3">
<g id="Gray">
<path fill="#7f001a" fill-rule="evenodd" stroke="#000000" stroke-width="0" stroke-linecap="round" stroke-linejoin="round" d="M 34.800 44.030 C 35.091 44.676 35.243 45.622 35.419 46.308 C 35.671 47.291 36.298 48.587 36.206 49.598 C 36.161 50.103 35.737 50.688 35.588 51.173 C 35.442 51.644 35.288 52.287 35.222 52.776 C 35.175 53.127 35.118 53.605 35.166 53.957 C 35.210 54.282 35.397 54.687 35.503 54.997 C 35.600 55.277 35.636 55.712 35.841 55.925 C 36.350 56.454 37.441 56.649 38.175 56.657 C 38.797 56.663 39.749 56.551 40.172 56.094 C 40.420 55.825 40.385 55.267 40.481 54.913 C 40.636 54.338 40.918 53.588 41.015 53.001 C 41.112 52.417 41.136 51.624 41.128 51.032 C 41.117 50.278 40.946 49.282 40.903 48.529 C 40.867 47.906 40.875 47.072 40.847 46.448 C 40.822 45.916 40.830 45.201 40.734 44.677 C 40.516 43.480 40.439 41.557 39.469 40.824 C 38.686 40.233 37.187 40.586 36.206 40.599 C 34.017 40.627 30.668 40.028 28.951 41.386 C 28.300 41.902 28.050 43.108 27.770 43.889 C 27.541 44.529 27.383 45.426 27.208 46.083 C 27.029 46.751 26.643 47.615 26.589 48.304 C 26.541 48.914 26.771 49.719 26.814 50.329 C 26.879 51.247 26.909 52.475 26.898 53.394 C 26.887 54.391 26.773 55.717 26.729 56.713 C 26.720 56.932 26.555 57.281 26.701 57.444 C 27.209 58.009 28.494 57.244 29.176 56.910 C 29.869 56.569 30.739 55.908 31.145 55.250 C 31.595 54.521 31.685 53.317 31.791 52.466 C 31.870 51.838 31.918 50.986 31.848 50.357 C 31.819 50.099 31.594 49.767 31.651 49.514 C 31.728 49.169 32.215 48.908 32.410 48.614 C 32.871 47.919 33.341 46.897 33.619 46.111 C 33.917 45.270 34.294 43.215 34.294 43.214 C 34.294 43.214 34.682 43.767 34.800 44.030 Z"/>
</g>
<g id="Orange">
<path fill="#de9c78" fill-rule="evenodd" stroke="none" d="M 24.365 29.360 C 24.375 29.556 24.247 29.834 24.138 30.008 C 23.801 30.548 22.977 30.947 22.573 31.438 C 22.195 31.898 21.814 32.603 21.541 33.131 C 21.241 33.712 20.990 34.555 20.684 35.132 C 20.474 35.529 20.151 36.037 19.884 36.397 C 19.533 36.870 18.968 37.420 18.596 37.876 C 18.486 38.010 18.339 38.189 18.242 38.332 C 18.092 38.555 17.906 38.863 17.797 39.109 C 17.601 39.552 17.385 40.172 17.320 40.652 C 17.278 40.953 17.280 41.364 17.333 41.663 C 17.380 41.926 17.552 42.248 17.627 42.505 C 17.729 42.856 17.894 43.327 17.903 43.692 C 17.911 43.980 17.870 44.379 17.744 44.637 C 17.655 44.819 17.493 45.095 17.296 45.144 C 17.106 45.192 16.809 45.070 16.685 44.920 C 16.596 44.812 16.599 44.602 16.594 44.463 C 16.586 44.265 16.690 44.007 16.679 43.809 C 16.666 43.564 16.554 43.249 16.482 43.013 C 16.458 42.936 16.472 42.765 16.391 42.758 C 16.264 42.748 16.394 43.057 16.384 43.184 C 16.358 43.488 16.282 43.890 16.220 44.189 C 16.145 44.554 15.958 45.024 15.917 45.395 C 15.875 45.783 15.966 46.305 15.955 46.695 C 15.946 46.996 15.976 47.414 15.871 47.696 C 15.800 47.885 15.687 48.236 15.484 48.249 C 15.273 48.263 15.132 47.898 15.014 47.722 C 14.817 47.429 14.633 46.988 14.514 46.656 C 14.382 46.289 14.275 45.778 14.194 45.397 C 14.087 44.892 13.924 44.217 13.905 43.701 C 13.883 43.111 14.011 42.326 14.099 41.742 C 14.179 41.210 14.315 40.503 14.456 39.983 C 14.606 39.429 14.875 38.710 15.075 38.172 C 15.328 37.490 15.703 36.595 15.982 35.923 C 16.262 35.245 16.660 34.351 16.939 33.673 C 17.213 33.006 17.538 32.101 17.826 31.440 C 18.082 30.851 18.467 30.085 18.739 29.503 C 19.023 28.898 19.235 27.984 19.678 27.484 C 19.885 27.252 20.232 26.965 20.537 26.905 C 21.416 26.732 22.694 27.218 23.393 27.778 C 23.827 28.127 24.337 28.804 24.365 29.360 M 46.425 27.728 C 47.078 27.653 48.106 27.760 48.526 28.256 C 48.949 28.755 48.661 29.775 48.699 30.428 C 48.715 30.705 48.705 31.077 48.736 31.353 C 48.796 31.896 49.017 32.599 49.082 33.141 C 49.147 33.688 49.158 34.424 49.166 34.975 C 49.176 35.720 49.107 36.713 49.114 37.458 C 49.117 37.908 49.080 38.514 49.167 38.954 C 49.270 39.477 49.629 40.108 49.790 40.616 C 49.848 40.801 49.928 41.050 49.958 41.242 C 50.050 41.816 50.097 42.602 50.014 43.177 C 49.972 43.473 49.837 43.854 49.725 44.131 C 49.527 44.623 49.144 45.224 48.908 45.699 C 48.682 46.155 48.355 46.752 48.184 47.231 C 48.135 47.372 48.177 47.624 48.056 47.711 C 47.959 47.782 47.753 47.773 47.655 47.703 C 47.512 47.600 47.503 47.316 47.487 47.141 C 47.463 46.885 47.560 46.546 47.592 46.290 C 47.656 45.785 47.747 45.112 47.806 44.607 C 47.851 44.219 47.940 43.703 47.943 43.313 C 47.944 43.150 47.927 42.932 47.901 42.771 C 47.877 42.625 47.928 42.304 47.780 42.294 C 47.621 42.284 47.655 42.646 47.613 42.801 C 47.566 42.973 47.524 43.208 47.488 43.382 C 47.432 43.654 47.412 44.032 47.309 44.289 C 47.230 44.484 47.143 44.839 46.938 44.882 C 46.791 44.913 46.598 44.748 46.508 44.628 C 46.383 44.463 46.377 44.161 46.349 43.956 C 46.308 43.659 46.282 43.256 46.315 42.958 C 46.371 42.448 46.647 41.807 46.768 41.309 C 46.910 40.727 47.239 39.953 47.179 39.357 C 47.124 38.802 46.648 38.168 46.452 37.645 C 46.251 37.114 45.989 36.400 45.857 35.847 C 45.706 35.212 45.634 34.340 45.541 33.694 C 45.475 33.238 45.503 32.599 45.324 32.176 C 45.132 31.723 44.577 31.299 44.316 30.882 C 44.144 30.607 43.822 30.239 43.834 29.916 C 43.853 29.396 44.403 28.812 44.798 28.474 C 45.207 28.126 45.892 27.790 46.425 27.728 M 29.127 18.632 C 29.228 18.299 29.751 18.091 30.044 17.896 C 30.247 17.761 30.595 17.687 30.757 17.504 C 30.992 17.237 31.203 16.743 31.161 16.390 C 31.122 16.058 30.733 15.739 30.554 15.457 C 30.195 14.894 29.651 14.178 29.381 13.567 C 29.070 12.862 28.814 11.853 28.691 11.092 C 28.597 10.518 28.550 9.738 28.582 9.157 C 28.612 8.583 28.703 7.810 28.892 7.268 C 29.084 6.719 29.468 6.025 29.839 5.578 C 30.297 5.028 31.032 4.363 31.683 4.067 C 32.546 3.674 33.862 3.499 34.805 3.587 C 35.592 3.661 36.632 4.014 37.296 4.442 C 37.854 4.803 38.477 5.480 38.827 6.045 C 39.151 6.567 39.427 7.361 39.532 7.966 C 39.637 8.572 39.359 9.421 39.515 10.015 C 39.605 10.361 40.078 10.708 40.078 11.066 C 40.078 11.311 39.856 11.595 39.721 11.799 C 39.541 12.072 39.200 12.357 39.002 12.617 C 38.836 12.835 38.712 13.206 38.499 13.378 C 38.389 13.467 38.207 13.551 38.067 13.564 C 37.968 13.574 37.832 13.458 37.741 13.499 C 37.545 13.587 37.520 13.952 37.458 14.158 C 37.333 14.567 37.203 15.137 37.217 15.564 C 37.226 15.829 37.250 16.211 37.405 16.425 C 37.726 16.864 38.805 16.733 39.032 17.227 C 39.994 19.321 37.512 23.356 35.280 23.931 C 34.188 24.212 32.741 23.073 31.863 22.365 C 30.782 21.493 28.728 19.961 29.127 18.632 Z"/>
<path fill="none" stroke="#000000" stroke-width="0" stroke-linecap="round" stroke-linejoin="round" d="M 17.835 38.744 C 17.657 38.986 17.377 39.634 17.377 39.634 M 18.242 38.332 C 18.242 38.332 17.938 38.604 17.835 38.744 M 22.573 31.438 C 22.302 31.582 22.031 31.725 21.759 31.869 M 24.365 29.360 C 24.375 29.556 24.247 29.834 24.138 30.008 C 23.801 30.548 22.977 30.947 22.573 31.438 C 22.195 31.898 21.814 32.603 21.541 33.131 C 21.241 33.712 20.990 34.555 20.684 35.132 C 20.474 35.529 20.151 36.037 19.884 36.397 C 19.533 36.870 18.968 37.420 18.596 37.876 C 18.486 38.010 18.339 38.189 18.242 38.332 C 18.092 38.555 17.906 38.863 17.797 39.109 C 17.601 39.552 17.385 40.172 17.320 40.652 C 17.278 40.953 17.280 41.364 17.333 41.663 C 17.380 41.926 17.552 42.248 17.627 42.505 C 17.729 42.856 17.894 43.327 17.903 43.692 C 17.911 43.980 17.870 44.379 17.744 44.637 C 17.655 44.819 17.493 45.095 17.296 45.144 C 17.106 45.192 16.809 45.070 16.685 44.920 C 16.596 44.812 16.599 44.602 16.594 44.463 C 16.586 44.265 16.690 44.007 16.679 43.809 C 16.666 43.564 16.554 43.249 16.482 43.013 C 16.458 42.936 16.472 42.765 16.391 42.758 C 16.264 42.748 16.394 43.057 16.384 43.184 C 16.358 43.488 16.282 43.890 16.220 44.189 C 16.145 44.554 15.958 45.024 15.917 45.395 C 15.875 45.783 15.966 46.305 15.955 46.695 C 15.946 46.996 15.976 47.414 15.871 47.696 C 15.800 47.885 15.687 48.236 15.484 48.249 C 15.273 48.263 15.132 47.898 15.014 47.722 C 14.817 47.429 14.633 46.988 14.514 46.656 C 14.382 46.289 14.275 45.778 14.194 45.397 C 14.087 44.892 13.924 44.217 13.905 43.701 C 13.883 43.111 14.011 42.326 14.099 41.742 C 14.179 41.210 14.315 40.503 14.456 39.983 C 14.606 39.429 14.875 38.710 15.075 38.172 C 15.328 37.490 15.703 36.595 15.982 35.923 C 16.262 35.245 16.660 34.351 16.939 33.673 C 17.213 33.006 17.538 32.101 17.826 31.440 C 18.082 30.851 18.467 30.085 18.739 29.503 C 19.023 28.898 19.235 27.984 19.678 27.484 C 19.885 27.252 20.232 26.965 20.537 26.905 C 21.416 26.732 22.694 27.218 23.393 27.778 C 23.827 28.127 24.337 28.804 24.365 29.360 M 46.425 27.728 C 47.078 27.653 48.106 27.760 48.526 28.256 C 48.949 28.755 48.661 29.775 48.699 30.428 C 48.715 30.705 48.705 31.077 48.736 31.353 C 48.796 31.896 49.017 32.599 49.082 33.141 C 49.147 33.688 49.158 34.424 49.166 34.975 C 49.176 35.720 49.107 36.713 49.114 37.458 C 49.117 37.908 49.080 38.514 49.167 38.954 C 49.270 39.477 49.629 40.108 49.790 40.616 C 49.848 40.801 49.928 41.050 49.958 41.242 C 50.050 41.816 50.097 42.602 50.014 43.177 C 49.972 43.473 49.837 43.854 49.725 44.131 C 49.527 44.623 49.144 45.224 48.908 45.699 C 48.682 46.155 48.355 46.752 48.184 47.231 C 48.135 47.372 48.177 47.624 48.056 47.711 C 47.959 47.782 47.753 47.773 47.655 47.703 C 47.512 47.600 47.503 47.316 47.487 47.141 C 47.463 46.885 47.560 46.546 47.592 46.290 C 47.656 45.785 47.747 45.112 47.806 44.607 C 47.851 44.219 47.940 43.703 47.943 43.313 C 47.944 43.150 47.927 42.932 47.901 42.771 C 47.877 42.625 47.928 42.304 47.780 42.294 C 47.621 42.284 47.655 42.646 47.613 42.801 C 47.566 42.973 47.524 43.208 47.488 43.382 C 47.432 43.654 47.412 44.032 47.309 44.289 C 47.230 44.484 47.143 44.839 46.938 44.882 C 46.791 44.913 46.598 44.748 46.508 44.628 C 46.383 44.463 46.377 44.161 46.349 43.956 C 46.308 43.659 46.282 43.256 46.315 42.958 C 46.371 42.448 46.647 41.807 46.768 41.309 C 46.910 40.727 47.239 39.953 47.179 39.357 C 47.124 38.802 46.648 38.168 46.452 37.645 C 46.251 37.114 45.989 36.400 45.857 35.847 C 45.706 35.212 45.634 34.340 45.541 33.694 C 45.475 33.238 45.503 32.599 45.324 32.176 C 45.132 31.723 44.577 31.299 44.316 30.882 C 44.144 30.607 43.822 30.239 43.834 29.916 C 43.853 29.396 44.403 28.812 44.798 28.474 C 45.207 28.126 45.892 27.790 46.425 27.728 M 29.127 18.632 C 29.228 18.299 29.751 18.091 30.044 17.896 C 30.247 17.761 30.595 17.687 30.757 17.504 C 30.992 17.237 31.203 16.743 31.161 16.390 C 31.122 16.058 30.733 15.739 30.554 15.457 C 30.195 14.894 29.651 14.178 29.381 13.567 C 29.070 12.862 28.814 11.853 28.691 11.092 C 28.597 10.518 28.550 9.738 28.582 9.157 C 28.612 8.583 28.703 7.810 28.892 7.268 C 29.084 6.719 29.468 6.025 29.839 5.578 C 30.297 5.028 31.032 4.363 31.683 4.067 C 32.546 3.674 33.862 3.499 34.805 3.587 C 35.592 3.661 36.632 4.014 37.296 4.442 C 37.854 4.803 38.477 5.480 38.827 6.045 C 39.151 6.567 39.427 7.361 39.532 7.966 C 39.637 8.572 39.359 9.421 39.515 10.015 C 39.605 10.361 40.078 10.708 40.078 11.066 C 40.078 11.311 39.856 11.595 39.721 11.799 C 39.541 12.072 39.200 12.357 39.002 12.617 C 38.836 12.835 38.712 13.206 38.499 13.378 C 38.389 13.467 38.207 13.551 38.067 13.564 C 37.968 13.574 37.832 13.458 37.741 13.499 C 37.545 13.587 37.520 13.952 37.458 14.158 C 37.333 14.567 37.203 15.137 37.217 15.564 C 37.226 15.829 37.250 16.211 37.405 16.425 C 37.726 16.864 38.805 16.733 39.032 17.227 C 39.994 19.321 37.512 23.356 35.280 23.931 C 34.188 24.212 32.741 23.073 31.863 22.365 C 30.782 21.493 28.728 19.961 29.127 18.632 "/>
</g>
<g id="Brown">
<path fill="#88431a" fill-rule="evenodd" stroke="none" d="M 36.540 58.194 C 36.388 57.358 35.638 55.511 35.638 55.511 C 35.638 55.511 37.069 55.892 37.699 55.940 C 38.239 55.980 39.006 56.064 39.504 55.848 C 39.810 55.716 40.330 55.104 40.330 55.104 C 40.330 55.104 39.872 58.375 39.824 59.787 C 39.801 60.459 39.776 61.364 39.889 62.026 C 40.065 63.058 41.073 64.291 40.994 65.335 C 40.932 66.149 40.291 67.126 39.802 67.780 C 39.568 68.094 38.861 68.685 38.861 68.685 C 38.861 68.685 37.630 68.157 37.202 67.787 C 36.872 67.502 36.474 67.041 36.317 66.634 C 36.177 66.270 36.205 65.339 36.205 65.339 C 36.205 65.339 35.810 64.782 35.729 64.506 C 35.646 64.224 35.649 63.820 35.677 63.528 C 35.774 62.496 36.517 61.236 36.630 60.206 C 36.695 59.605 36.648 58.788 36.540 58.194 M 26.542 57.908 C 26.616 57.348 26.784 56.042 26.784 56.042 C 26.785 56.042 28.336 56.089 28.992 55.993 C 29.593 55.905 30.945 55.458 30.946 55.458 C 30.946 55.458 30.185 57.506 30.073 58.428 C 29.989 59.119 30.044 60.060 30.152 60.747 C 30.216 61.161 30.471 61.678 30.518 62.094 C 30.552 62.398 30.618 62.838 30.484 63.113 C 30.294 63.499 29.352 63.993 29.352 63.993 C 29.352 63.993 29.126 64.676 28.971 64.941 C 28.823 65.195 28.590 65.524 28.359 65.706 C 27.566 66.331 26.218 66.733 25.232 66.955 C 24.654 67.085 23.261 67.109 23.261 67.109 C 23.261 67.109 23.269 66.383 23.360 66.088 C 23.578 65.377 24.282 64.616 24.626 63.956 C 24.957 63.322 25.331 62.442 25.614 61.784 C 25.804 61.344 26.094 60.767 26.220 60.304 C 26.411 59.605 26.448 58.627 26.542 57.908 M 43.236 28.829 C 43.409 29.225 43.856 30.128 43.856 30.128 C 43.586 30.306 44.426 29.632 44.700 29.459 C 45.169 29.164 45.843 28.841 46.369 28.669 C 46.936 28.483 47.725 28.297 48.321 28.294 C 48.466 28.293 48.697 28.464 48.799 28.361 C 48.921 28.239 48.727 27.965 48.689 27.797 C 48.456 26.754 48.187 25.343 47.790 24.352 C 47.450 23.503 46.827 22.444 46.320 21.683 C 45.929 21.095 45.455 20.217 44.863 19.832 C 44.588 19.653 44.126 19.623 43.817 19.514 C 42.353 18.995 39.045 17.501 39.045 17.500 C 38.863 17.391 38.640 17.068 38.438 17.136 C 38.275 17.190 38.271 17.499 38.198 17.654 C 37.857 18.379 37.424 19.357 37.040 20.060 C 36.747 20.597 36.331 21.300 35.978 21.799 C 35.722 22.161 35.371 22.644 35.050 22.950 C 34.935 23.061 34.789 23.269 34.629 23.275 C 34.252 23.288 33.955 22.708 33.684 22.446 C 33.075 21.857 32.307 21.027 31.772 20.371 C 31.307 19.802 30.616 19.066 30.335 18.386 C 30.252 18.184 30.391 17.754 30.188 17.671 C 30.037 17.610 29.858 17.859 29.716 17.938 C 29.340 18.143 28.848 18.435 28.455 18.603 C 27.337 19.078 25.642 19.199 24.590 19.806 C 24.045 20.120 23.453 20.737 23.012 21.185 C 22.588 21.615 22.066 22.233 21.709 22.720 C 21.104 23.545 20.330 24.685 19.913 25.619 C 19.634 26.246 19.249 27.808 19.249 27.808 C 18.789 27.847 20.316 27.988 20.751 28.143 C 21.353 28.357 22.141 28.726 22.648 29.115 C 23.072 29.441 23.318 30.423 23.853 30.429 C 24.143 30.432 24.394 30.019 24.596 29.811 C 24.815 29.585 25.041 29.227 25.240 28.984 C 25.383 28.809 25.507 28.376 25.729 28.413 C 25.980 28.455 25.902 28.982 26.010 29.211 C 26.268 29.758 26.751 30.411 27.083 30.916 C 27.431 31.444 27.976 32.098 28.276 32.655 C 28.602 33.262 28.978 34.113 29.137 34.784 C 29.236 35.205 29.302 35.788 29.272 36.220 C 29.247 36.585 29.077 37.050 28.997 37.406 C 28.802 38.278 28.583 39.450 28.374 40.319 C 28.090 41.499 27.647 43.056 27.321 44.226 C 27.269 44.410 27.058 44.669 27.145 44.840 C 27.316 45.176 28.000 45.057 28.374 45.103 C 28.779 45.153 29.326 45.140 29.734 45.147 C 30.208 45.155 30.841 45.131 31.314 45.147 C 31.868 45.167 32.604 45.259 33.158 45.279 C 33.816 45.303 34.696 45.334 35.352 45.279 C 35.911 45.232 36.820 45.388 37.195 44.972 C 37.313 44.842 37.288 44.573 37.315 44.400 C 37.406 43.826 37.477 43.051 37.503 42.470 C 37.513 42.246 37.317 41.848 37.503 41.724 C 37.954 41.422 38.011 42.884 38.205 43.392 C 38.349 43.769 38.714 44.267 38.644 44.664 C 38.619 44.805 38.338 44.923 38.380 45.059 C 38.502 45.449 39.334 45.142 39.741 45.103 C 40.104 45.069 40.564 44.876 40.926 44.840 C 41.070 44.825 41.311 44.947 41.409 44.840 C 41.612 44.619 41.212 44.167 41.145 43.874 C 40.994 43.210 40.880 42.305 40.750 41.636 C 40.617 40.949 40.447 40.030 40.268 39.354 C 40.080 38.646 39.718 37.734 39.520 37.028 C 39.392 36.573 39.169 35.969 39.146 35.496 C 39.126 35.087 39.240 34.542 39.331 34.142 C 39.443 33.646 39.642 32.991 39.854 32.529 C 40.053 32.094 40.441 31.580 40.680 31.166 C 40.965 30.671 41.339 30.006 41.595 29.494 C 41.818 29.047 42.026 28.405 42.285 27.978 C 42.406 27.779 42.537 27.271 42.753 27.359 C 42.871 27.406 42.786 27.655 42.818 27.778 C 42.904 28.107 43.100 28.518 43.236 28.829 Z"/>
<path fill="none" stroke="#000000" stroke-width="0" stroke-linecap="round" stroke-linejoin="round" d="M 36.540 58.194 C 36.388 57.358 35.638 55.511 35.638 55.511 C 35.638 55.511 37.069 55.892 37.699 55.940 C 38.239 55.980 39.006 56.064 39.504 55.848 C 39.810 55.716 40.330 55.104 40.330 55.104 C 40.330 55.104 39.872 58.375 39.824 59.787 C 39.801 60.459 39.776 61.364 39.889 62.026 C 40.065 63.058 41.073 64.291 40.994 65.335 C 40.932 66.149 40.291 67.126 39.802 67.780 C 39.568 68.094 38.861 68.685 38.861 68.685 C 38.861 68.685 37.630 68.157 37.202 67.787 C 36.872 67.502 36.474 67.041 36.317 66.634 C 36.177 66.270 36.205 65.339 36.205 65.339 C 36.205 65.339 35.810 64.782 35.729 64.506 C 35.646 64.224 35.649 63.820 35.677 63.528 C 35.774 62.496 36.517 61.236 36.630 60.206 C 36.695 59.605 36.648 58.788 36.540 58.194 M 26.542 57.908 C 26.616 57.348 26.784 56.042 26.784 56.042 C 26.785 56.042 28.336 56.089 28.992 55.993 C 29.593 55.905 30.945 55.458 30.946 55.458 C 30.946 55.458 30.185 57.506 30.073 58.428 C 29.989 59.119 30.044 60.060 30.152 60.747 C 30.216 61.161 30.471 61.678 30.518 62.094 C 30.552 62.398 30.618 62.838 30.484 63.113 C 30.294 63.499 29.352 63.993 29.352 63.993 C 29.352 63.993 29.126 64.676 28.971 64.941 C 28.823 65.195 28.590 65.524 28.359 65.706 C 27.566 66.331 26.218 66.733 25.232 66.955 C 24.654 67.085 23.261 67.109 23.261 67.109 C 23.261 67.109 23.269 66.383 23.360 66.088 C 23.578 65.377 24.282 64.616 24.626 63.956 C 24.957 63.322 25.331 62.442 25.614 61.784 C 25.804 61.344 26.094 60.767 26.220 60.304 C 26.411 59.605 26.448 58.627 26.542 57.908 M 43.236 28.829 C 43.409 29.225 43.856 30.128 43.856 30.128 C 43.975 30.050 44.233 29.837 44.233 29.837 M 42.818 27.778 C 42.904 28.107 43.100 28.518 43.236 28.829 M 42.753 27.359 C 42.871 27.406 42.786 27.655 42.818 27.778 M 42.285 27.978 C 42.406 27.779 42.537 27.271 42.753 27.359 C 42.681 27.110 42.609 26.862 42.537 26.613 M 41.595 29.494 C 41.818 29.047 42.026 28.405 42.285 27.978 M 40.680 31.166 C 40.965 30.671 41.339 30.006 41.595 29.494 M 39.854 32.529 C 40.053 32.094 40.441 31.580 40.680 31.166 M 39.331 34.142 C 39.443 33.646 39.642 32.991 39.854 32.529 M 39.146 35.496 C 39.126 35.087 39.240 34.542 39.331 34.142 M 39.520 37.028 C 39.392 36.573 39.169 35.969 39.146 35.496 M 40.268 39.354 C 40.080 38.646 39.718 37.734 39.520 37.028 M 40.750 41.636 C 40.617 40.949 40.447 40.030 40.268 39.354 M 41.145 43.874 C 40.994 43.210 40.880 42.305 40.750 41.636 M 41.409 44.840 C 41.612 44.619 41.212 44.167 41.145 43.874 M 40.926 44.840 C 41.070 44.825 41.311 44.947 41.409 44.840 M 39.741 45.103 C 40.104 45.069 40.564 44.876 40.926 44.840 M 38.380 45.059 C 38.502 45.449 39.334 45.142 39.741 45.103 M 38.644 44.664 C 38.619 44.805 38.338 44.923 38.380 45.059 M 38.205 43.392 C 38.349 43.769 38.714 44.267 38.644 44.664 M 37.503 41.724 C 37.954 41.422 38.011 42.884 38.205 43.392 M 37.503 42.470 C 37.513 42.246 37.317 41.848 37.503 41.724 C 37.459 41.461 37.415 41.197 37.371 40.934 M 37.315 44.400 C 37.406 43.826 37.477 43.051 37.503 42.470 M 37.195 44.972 C 37.313 44.842 37.288 44.573 37.315 44.400 M 35.352 45.279 C 35.911 45.232 36.820 45.388 37.195 44.972 M 33.158 45.279 C 33.816 45.303 34.696 45.334 35.352 45.279 M 31.314 45.147 C 31.868 45.167 32.604 45.259 33.158 45.279 M 29.734 45.147 C 30.208 45.155 30.841 45.131 31.314 45.147 M 28.374 45.103 C 28.779 45.153 29.326 45.140 29.734 45.147 M 27.145 44.840 C 27.316 45.176 28.000 45.057 28.374 45.103 M 27.321 44.226 C 27.269 44.410 27.058 44.669 27.145 44.840 M 28.374 40.319 C 28.090 41.499 27.647 43.056 27.321 44.226 M 28.997 37.406 C 28.802 38.278 28.583 39.450 28.374 40.319 M 29.272 36.220 C 29.247 36.585 29.077 37.050 28.997 37.406 M 29.137 34.784 C 29.236 35.205 29.302 35.788 29.272 36.220 M 28.276 32.655 C 28.602 33.262 28.978 34.113 29.137 34.784 M 27.083 30.916 C 27.431 31.444 27.976 32.098 28.276 32.655 M 26.010 29.211 C 26.268 29.758 26.751 30.411 27.083 30.916 M 25.729 28.413 C 25.980 28.455 25.902 28.982 26.010 29.211 M 25.240 28.984 C 25.383 28.809 25.507 28.376 25.729 28.413 C 26.029 27.697 26.330 26.982 26.630 26.266 M 24.596 29.811 C 24.815 29.585 25.041 29.227 25.240 28.984 M 23.853 30.429 C 24.143 30.432 24.394 30.019 24.596 29.811 M 22.648 29.115 C 23.072 29.441 23.318 30.423 23.853 30.429 M 20.751 28.143 C 21.353 28.357 22.141 28.726 22.648 29.115 M 19.249 27.808 C 18.789 27.847 20.316 27.988 20.751 28.143 M 19.659 27.872 C 19.659 27.872 19.373 27.798 19.249 27.808 C 19.249 27.808 19.634 26.246 19.913 25.619 C 20.330 24.685 21.104 23.545 21.709 22.720 C 22.066 22.233 22.588 21.615 23.012 21.185 C 23.453 20.737 24.045 20.120 24.590 19.806 C 25.642 19.199 27.337 19.078 28.455 18.603 C 28.848 18.435 29.340 18.143 29.716 17.938 C 29.858 17.859 30.037 17.610 30.188 17.671 C 30.391 17.754 30.252 18.184 30.335 18.386 C 30.616 19.066 31.307 19.802 31.772 20.371 C 32.307 21.027 33.075 21.857 33.684 22.446 C 33.955 22.708 34.252 23.288 34.629 23.275 C 34.789 23.269 34.935 23.061 35.050 22.950 C 35.371 22.644 35.722 22.161 35.978 21.799 C 36.331 21.300 36.747 20.597 37.040 20.060 C 37.424 19.357 37.857 18.379 38.198 17.654 C 38.271 17.499 38.275 17.190 38.438 17.136 C 38.640 17.068 38.863 17.391 39.045 17.500 C 39.045 17.500 39.045 17.500 39.045 17.500 C 39.045 17.501 42.353 18.995 43.817 19.514 C 44.126 19.623 44.588 19.653 44.863 19.832 C 45.455 20.217 45.929 21.095 46.320 21.683 C 46.827 22.444 47.450 23.503 47.790 24.352 C 48.187 25.343 48.456 26.754 48.689 27.797 C 48.727 27.965 48.921 28.239 48.799 28.361 C 48.697 28.464 48.466 28.293 48.321 28.294 C 47.725 28.297 46.936 28.483 46.369 28.669 C 45.843 28.841 45.169 29.164 44.700 29.459 C 44.426 29.632 43.586 30.306 43.856 30.128 "/>
</g>
<g id="DarkBrown">
<path fill="#4a000a" fill-rule="evenodd" stroke="#000000" stroke-width="0" stroke-linecap="round" stroke-linejoin="round" d="M 37.094 56.860 C 37.436 56.810 38.194 56.514 38.194 56.514 C 38.194 56.514 37.385 56.280 37.046 56.156 C 36.672 56.019 35.822 55.637 35.822 55.637 C 35.822 55.637 36.145 56.849 36.145 56.849 C 36.145 56.849 36.812 56.901 37.094 56.860 M 40.352 55.264 C 40.352 55.264 40.267 56.571 40.267 56.571 C 40.267 56.571 39.905 56.685 39.745 56.696 C 39.402 56.720 38.608 56.555 38.608 56.555 C 38.608 56.555 39.184 56.202 39.418 56.031 C 39.711 55.818 40.352 55.264 40.352 55.264 M 39.942 67.516 C 39.627 67.896 38.741 68.642 38.741 68.642 C 38.741 68.642 38.071 68.256 37.810 68.054 C 37.561 67.861 37.291 67.533 37.046 67.335 C 36.871 67.194 36.433 66.909 36.433 66.909 C 36.433 66.909 36.591 66.583 36.697 66.472 C 36.917 66.242 37.320 66.063 37.602 65.914 C 37.937 65.738 38.382 65.464 38.756 65.403 C 39.419 65.294 40.979 65.678 40.979 65.678 C 40.979 65.678 40.747 66.236 40.624 66.463 C 40.444 66.794 40.183 67.226 39.942 67.516 M 37.388 58.522 C 37.388 58.522 40.003 58.732 40.003 58.732 C 40.003 58.733 39.910 59.396 39.874 59.680 C 39.834 60.007 39.751 60.769 39.751 60.769 C 39.751 60.769 39.779 61.616 39.846 61.971 C 39.942 62.476 40.357 63.604 40.357 63.604 C 40.357 63.604 39.897 63.422 39.690 63.387 C 39.502 63.356 39.055 63.376 39.055 63.376 C 39.054 63.376 38.065 63.631 37.632 63.625 C 37.474 63.622 37.115 63.537 37.115 63.537 C 37.115 63.537 37.254 62.832 37.350 62.539 C 37.446 62.243 37.702 61.890 37.754 61.584 C 37.907 60.671 37.388 58.522 37.388 58.522 M 30.176 17.706 C 30.176 17.706 28.571 18.522 28.571 18.522 C 28.571 18.522 29.751 20.416 30.344 21.164 C 31.020 22.017 32.052 23.046 32.822 23.815 C 33.405 24.398 34.829 25.694 34.829 25.694 C 34.829 25.694 36.156 24.710 36.627 24.187 C 37.345 23.389 38.080 22.140 38.589 21.195 C 39.130 20.193 40.094 17.713 40.094 17.713 C 40.094 17.712 38.505 16.909 38.505 16.909 C 38.505 16.909 38.070 18.121 37.838 18.622 C 37.530 19.285 37.049 20.137 36.666 20.760 C 36.449 21.114 36.151 21.583 35.890 21.905 C 35.545 22.333 34.614 23.220 34.614 23.220 C 34.614 23.220 33.042 21.832 32.424 21.180 C 31.990 20.722 31.411 20.102 31.069 19.572 C 30.733 19.051 30.176 17.706 30.176 17.706 M 20.575 28.271 C 20.179 28.098 19.218 27.790 19.218 27.790 C 19.218 27.790 19.855 26.079 19.855 26.079 C 19.855 26.079 20.777 26.205 21.151 26.338 C 21.742 26.549 22.467 26.991 22.984 27.348 C 23.677 27.827 25.109 29.181 25.110 29.181 C 25.109 29.181 23.753 30.554 23.753 30.554 C 23.753 30.554 23.089 29.706 22.730 29.420 C 22.157 28.965 21.246 28.564 20.575 28.271 M 43.821 30.080 C 43.820 30.080 43.057 28.319 43.057 28.319 C 43.057 28.319 44.565 27.457 45.254 27.180 C 45.659 27.019 46.219 26.856 46.644 26.761 C 47.161 26.645 48.392 26.507 48.393 26.507 C 48.393 26.507 48.721 28.366 48.721 28.366 C 48.721 28.366 47.409 28.484 46.864 28.625 C 46.368 28.752 45.731 29.010 45.269 29.231 C 44.815 29.449 43.821 30.080 43.821 30.080 M 30.800 34.834 C 30.800 34.834 29.140 34.778 29.100 34.785 C 29.100 34.785 28.999 33.972 28.999 33.972 C 28.999 33.972 29.636 33.812 29.887 33.687 C 32.223 32.522 34.818 30.079 36.687 28.255 C 37.543 27.420 38.616 26.224 39.292 25.237 C 39.977 24.238 41.188 21.671 41.188 21.671 C 41.188 21.671 43.857 23.804 43.857 23.805 C 43.856 23.805 40.098 27.408 38.423 28.881 C 36.873 30.243 34.782 32.037 33.126 33.266 C 32.450 33.767 30.800 34.834 30.800 34.834 M 29.230 36.181 C 29.224 35.789 29.120 34.879 29.120 34.879 C 29.120 34.879 30.479 34.893 31.062 34.902 C 32.201 34.919 33.723 35.055 34.860 34.974 C 35.817 34.905 37.094 34.726 38.018 34.468 C 38.488 34.337 39.534 33.878 39.534 33.878 C 39.534 33.878 39.288 34.748 39.263 35.133 C 39.236 35.566 39.319 36.148 39.393 36.576 C 39.434 36.809 39.586 37.342 39.586 37.342 C 39.586 37.342 38.273 37.758 37.691 37.838 C 35.613 38.124 32.779 38.018 30.699 37.749 C 30.318 37.699 29.791 37.648 29.448 37.473 C 29.320 37.408 29.075 37.171 29.075 37.171 C 29.075 37.171 29.181 36.901 29.204 36.779 C 29.237 36.603 29.233 36.361 29.230 36.181 M 29.580 56.948 C 29.398 56.923 28.998 56.762 28.998 56.762 C 28.998 56.762 29.497 56.455 29.711 56.324 C 30.071 56.103 30.913 55.591 30.913 55.591 C 30.913 55.591 30.494 56.896 30.494 56.897 C 30.494 56.897 29.852 56.984 29.580 56.948 M 26.806 56.034 C 26.806 56.034 26.648 56.873 26.648 56.873 C 26.648 56.873 27.093 56.987 27.289 56.998 C 27.708 57.022 28.682 56.857 28.682 56.857 C 28.682 56.857 27.998 56.466 27.689 56.333 C 27.432 56.223 26.807 56.034 26.806 56.034 M 23.552 65.422 C 23.635 65.271 23.906 64.969 23.906 64.969 C 23.906 64.969 25.308 64.539 25.928 64.542 C 26.300 64.544 26.836 64.577 27.144 64.786 C 27.494 65.024 27.896 65.979 27.896 65.980 C 27.896 65.980 27.526 66.299 27.344 66.399 C 27.123 66.520 26.797 66.616 26.555 66.685 C 25.752 66.912 24.657 67.237 23.824 67.204 C 23.646 67.197 23.244 67.077 23.244 67.077 C 23.244 67.077 23.231 66.489 23.276 66.243 C 23.322 65.987 23.427 65.650 23.552 65.422 M 28.366 58.262 C 28.366 58.262 26.467 58.419 26.467 58.419 C 26.467 58.419 26.300 59.069 26.260 59.353 C 26.220 59.645 26.206 60.335 26.206 60.335 C 26.206 60.335 25.778 61.366 25.586 61.805 C 25.331 62.387 24.708 63.732 24.708 63.732 C 24.708 63.732 25.221 63.762 25.441 63.769 C 25.879 63.783 26.903 63.784 26.903 63.784 C 26.903 63.784 27.643 62.636 27.984 62.160 C 28.159 61.915 28.592 61.363 28.593 61.363 C 28.592 61.363 28.418 60.057 28.363 59.495 C 28.347 59.329 28.321 59.108 28.320 58.941 C 28.319 58.737 28.366 58.262 28.366 58.262 Z"/>
</g>
<g id="Silver">
<path fill="#d4d4d4" fill-rule="evenodd" stroke="none" d="M 32.802 37.571 C 32.745 37.492 32.741 37.251 32.741 37.251 C 32.741 37.251 32.710 35.391 32.710 35.391 C 32.710 35.391 32.732 35.145 32.800 35.074 C 32.894 34.976 33.233 34.945 33.233 34.945 C 33.233 34.945 35.047 34.899 35.047 34.899 C 35.047 34.899 35.343 34.987 35.430 35.080 C 35.528 35.186 35.600 35.529 35.600 35.529 C 35.600 35.529 35.554 37.343 35.554 37.343 C 35.554 37.344 35.542 37.611 35.472 37.693 C 35.358 37.825 34.924 37.882 34.924 37.882 C 34.924 37.882 33.156 37.759 33.156 37.759 C 33.156 37.759 32.873 37.668 32.802 37.571 M 39.099 17.895 C 39.266 17.507 39.580 17.036 39.787 16.669 C 39.787 16.669 41.549 16.909 42.269 17.147 C 42.806 17.325 43.476 17.685 43.973 17.954 C 44.501 18.240 45.199 18.640 45.678 19.001 C 46.134 19.345 46.698 19.865 47.083 20.287 C 47.463 20.703 47.902 21.317 48.220 21.782 C 48.451 22.121 48.980 22.540 48.937 22.948 C 48.883 23.472 48.107 23.864 47.681 24.174 C 47.295 24.456 46.723 24.753 46.276 24.922 C 45.588 25.182 44.617 25.399 43.884 25.460 C 43.329 25.506 42.564 25.528 42.030 25.371 C 41.513 25.218 40.875 24.833 40.475 24.473 C 40.078 24.117 39.692 23.501 39.428 23.038 C 39.181 22.605 38.890 21.997 38.770 21.513 C 38.620 20.911 38.548 20.066 38.621 19.450 C 38.678 18.965 38.906 18.343 39.099 17.895 Z"/>
<path fill="none" stroke="#000000" stroke-width="0" stroke-linecap="round" stroke-linejoin="round" d="M 32.802 37.571 C 32.745 37.492 32.741 37.251 32.741 37.251 C 32.741 37.251 32.710 35.391 32.710 35.391 C 32.710 35.391 32.732 35.145 32.800 35.074 C 32.894 34.976 33.233 34.945 33.233 34.945 C 33.233 34.945 35.047 34.899 35.047 34.899 C 35.047 34.899 35.343 34.987 35.430 35.080 C 35.528 35.186 35.600 35.529 35.600 35.529 C 35.600 35.529 35.554 37.343 35.554 37.343 C 35.554 37.344 35.542 37.611 35.472 37.693 C 35.358 37.825 34.924 37.882 34.924 37.882 C 34.924 37.882 33.156 37.759 33.156 37.759 C 33.156 37.759 32.873 37.668 32.802 37.571 M 39.787 16.669 C 39.787 16.669 39.787 16.669 39.787 16.669 C 39.580 17.036 39.266 17.507 39.099 17.895 C 38.906 18.343 38.678 18.965 38.621 19.450 C 38.548 20.066 38.620 20.911 38.770 21.513 C 38.890 21.997 39.181 22.605 39.428 23.038 C 39.692 23.501 40.078 24.117 40.475 24.473 C 40.875 24.833 41.513 25.218 42.030 25.371 C 42.564 25.528 43.329 25.506 43.884 25.460 C 44.617 25.399 45.588 25.182 46.276 24.922 C 46.723 24.753 47.295 24.456 47.681 24.174 C 48.107 23.864 48.883 23.472 48.937 22.948 C 48.980 22.540 48.451 22.121 48.220 21.782 C 47.902 21.317 47.463 20.703 47.083 20.287 C 46.698 19.865 46.134 19.345 45.678 19.001 C 45.199 18.640 44.501 18.240 43.973 17.954 C 43.476 17.685 42.806 17.325 42.269 17.147 C 41.549 16.909 39.787 16.669 39.787 16.669 "/>
</g>
<g id="Riga">
<path fill="#cc6427" fill-rule="evenodd" stroke="#000000" stroke-width="0" stroke-linecap="round" stroke-linejoin="round" d="M 33.651 14.422 C 33.477 14.440 33.178 14.318 32.981 14.360 C 32.572 14.447 32.085 14.796 31.799 15.101 C 31.603 15.310 31.369 15.648 31.330 15.931 C 31.276 16.317 31.454 16.857 31.664 17.184 C 31.905 17.557 32.402 17.954 32.817 18.113 C 33.335 18.313 34.123 18.303 34.666 18.188 C 35.004 18.117 35.459 17.942 35.710 17.705 C 36.003 17.429 36.219 16.902 36.331 16.516 C 36.446 16.118 36.577 15.533 36.444 15.141 C 36.307 14.737 35.894 14.219 35.487 14.088 C 35.302 14.029 35.036 14.143 34.844 14.175 C 34.484 14.236 34.014 14.383 33.651 14.422 M 34.260 15.957 C 34.157 15.889 33.943 15.855 33.813 15.895 C 33.501 15.990 33.379 16.582 33.070 16.688 C 32.897 16.747 32.619 16.723 32.464 16.626 C 32.278 16.509 32.105 16.213 32.094 15.994 C 32.083 15.786 32.221 15.497 32.378 15.361 C 32.505 15.253 32.745 15.223 32.910 15.201 C 33.231 15.157 33.670 15.308 33.988 15.251 C 34.255 15.204 34.569 15.001 34.823 14.905 C 35.004 14.837 35.246 14.651 35.434 14.695 C 35.586 14.731 35.744 14.913 35.807 15.054 C 35.889 15.238 35.874 15.530 35.818 15.723 C 35.739 15.996 35.528 16.361 35.282 16.503 C 35.103 16.606 34.780 16.673 34.597 16.577 C 34.409 16.479 34.437 16.075 34.260 15.957 M 28.494 8.678 C 28.390 9.508 28.677 11.458 28.677 11.458 C 28.677 11.458 29.033 9.436 29.330 8.612 C 29.506 8.122 30.090 7.052 30.090 7.052 C 30.090 7.052 31.535 7.521 32.178 7.594 C 32.978 7.685 34.064 7.623 34.860 7.501 C 35.739 7.366 37.714 6.706 37.714 6.706 C 37.714 6.706 37.951 7.549 37.992 7.921 C 38.037 8.327 37.953 8.876 37.982 9.283 C 38.029 9.927 38.323 11.409 38.323 11.409 C 38.323 11.409 38.724 11.157 38.880 11.026 C 39.122 10.823 39.613 10.268 39.613 10.268 C 39.613 10.268 39.525 9.648 39.575 9.389 C 39.603 9.240 39.748 9.073 39.769 8.923 C 39.809 8.638 39.700 8.252 39.623 7.975 C 39.395 7.152 39.036 6.015 38.477 5.369 C 37.853 4.648 36.696 3.930 35.770 3.704 C 34.598 3.418 32.867 3.567 31.767 4.059 C 30.825 4.479 29.780 5.507 29.232 6.380 C 28.847 6.993 28.585 7.960 28.494 8.678 Z"/>
</g>
<g id="Face">
<path fill="#d4d4d4" fill-rule="evenodd" stroke="none" d="M 32.577 15.670 C 32.577 15.670 32.841 15.657 32.954 15.651 C 33.176 15.639 33.472 15.628 33.693 15.607 C 34.011 15.575 34.445 15.562 34.747 15.459 C 34.877 15.415 35.044 15.333 35.149 15.245 C 35.225 15.181 35.355 14.986 35.355 14.986 C 35.355 14.986 35.217 14.947 35.217 14.947 C 35.217 14.947 35.302 14.910 35.339 14.916 C 35.453 14.934 35.642 15.152 35.642 15.152 C 35.642 15.152 35.464 15.058 35.464 15.058 C 35.464 15.058 35.164 15.353 35.012 15.449 C 34.908 15.514 34.758 15.587 34.640 15.617 C 34.469 15.661 34.230 15.641 34.055 15.652 C 33.800 15.668 33.460 15.691 33.206 15.710 C 33.091 15.719 32.937 15.752 32.822 15.740 C 32.746 15.732 32.577 15.670 32.577 15.670 Z"/>
<path fill="none" stroke="#000000" stroke-width="0" stroke-linecap="round" stroke-linejoin="round" d="M 32.822 15.740 C 32.746 15.732 32.577 15.670 32.577 15.670 C 32.577 15.670 32.841 15.657 32.954 15.651 C 33.176 15.639 33.472 15.628 33.693 15.607 C 34.011 15.575 34.445 15.562 34.747 15.459 C 34.877 15.415 35.044 15.333 35.149 15.245 C 35.225 15.181 35.355 14.986 35.355 14.986 C 35.355 14.986 35.217 14.947 35.217 14.947 C 35.217 14.947 35.302 14.910 35.339 14.916 C 35.453 14.934 35.642 15.152 35.642 15.152 C 35.642 15.152 35.464 15.058 35.464 15.058 C 35.464 15.058 35.164 15.353 35.012 15.449 C 34.908 15.514 34.758 15.587 34.640 15.617 C 34.469 15.661 34.230 15.641 34.055 15.652 C 33.800 15.668 33.460 15.691 33.206 15.710 C 33.091 15.719 32.937 15.752 32.822 15.740 M 36.491 11.350 C 36.589 11.320 36.807 11.217 36.807 11.217 M 36.296 11.391 C 36.346 11.359 36.434 11.368 36.491 11.350 M 36.129 11.640 C 36.174 11.563 36.220 11.440 36.296 11.391 M 35.900 12.096 C 36.023 12.005 36.051 11.772 36.129 11.640 M 35.349 12.187 C 35.502 12.255 35.765 12.196 35.900 12.096 M 35.175 11.957 C 35.217 12.033 35.270 12.151 35.349 12.187 M 35.089 11.722 C 35.151 11.764 35.140 11.891 35.175 11.957 M 34.804 11.737 C 34.890 11.733 35.018 11.675 35.089 11.722 M 34.348 11.756 C 34.348 11.756 34.667 11.743 34.804 11.737 M 36.897 10.405 C 36.945 10.386 37.065 10.361 37.065 10.361 M 36.099 10.848 C 36.352 10.744 36.641 10.502 36.897 10.405 M 34.880 11.176 C 35.250 11.093 35.749 10.991 36.099 10.848 M 34.126 11.315 C 34.126 11.315 34.656 11.226 34.880 11.176 M 30.612 11.245 C 30.519 11.212 30.296 11.152 30.296 11.152 M 30.927 11.378 C 30.905 11.278 30.709 11.280 30.612 11.245 M 30.830 11.523 C 30.851 11.475 30.938 11.429 30.927 11.378 M 30.737 11.945 C 30.703 11.820 30.777 11.642 30.830 11.523 M 31.155 12.367 C 30.991 12.299 30.784 12.117 30.737 11.945 M 31.564 12.379 C 31.453 12.432 31.268 12.414 31.155 12.367 M 31.697 12.219 C 31.660 12.270 31.620 12.351 31.564 12.379 M 31.949 11.793 C 31.816 11.859 31.783 12.098 31.697 12.219 M 32.502 11.861 C 32.502 11.861 32.099 11.718 31.949 11.793 M 34.427 13.180 C 34.348 13.091 34.156 12.889 34.156 12.889 M 34.712 13.509 C 34.648 13.395 34.515 13.277 34.427 13.180 M 34.852 13.934 C 34.879 13.803 34.779 13.626 34.712 13.509 M 34.416 14.397 C 34.583 14.304 34.815 14.121 34.852 13.934 M 33.356 14.577 C 33.679 14.577 34.134 14.554 34.416 14.397 M 32.393 14.418 C 32.579 14.644 33.063 14.577 33.356 14.577 M 32.355 14.121 C 32.349 14.211 32.336 14.348 32.393 14.418 M 32.687 13.097 C 32.591 13.406 32.376 13.799 32.355 14.121 M 32.992 12.060 C 32.954 12.383 32.782 12.788 32.687 13.097 M 32.978 11.569 C 33.053 11.696 33.009 11.914 32.992 12.060 M 32.300 11.211 C 32.513 11.297 32.861 11.371 32.978 11.569 M 29.952 10.614 C 29.953 10.614 31.625 10.942 32.300 11.211 "/>
</g>
</g>
</svg>
