<?xml version="1.0" encoding="utf-8"?>
<!-- Generator: Moho 12.2 build 21774 -->
<!DOCTYPE svg PUBLIC "-//W3C//DTD SVG 1.1//EN" "http://www.w3.org/Graphics/SVG/1.1/DTD/svg11.dtd">
<svg version="1.1" id="Frame_18" xmlns="http://www.w3.org/2000/svg" xmlns:xlink="http://www.w3.org/1999/xlink" width="70px" height="70px">
<g id="Layer_3">
<g id="Gray">
<path fill="#7f001a" fill-rule="evenodd" stroke="#000000" stroke-width="0" stroke-linecap="round" stroke-linejoin="round" d="M 34.800 44.030 C 35.091 44.676 35.243 45.622 35.419 46.308 C 35.671 47.291 36.298 48.587 36.206 49.598 C 36.161 50.103 35.737 50.688 35.588 51.173 C 35.442 51.644 35.288 52.287 35.222 52.776 C 35.175 53.127 35.118 53.605 35.166 53.957 C 35.210 54.282 35.397 54.687 35.503 54.997 C 35.600 55.277 35.636 55.712 35.841 55.925 C 36.350 56.454 37.441 56.649 38.175 56.657 C 38.797 56.663 39.749 56.551 40.172 56.094 C 40.420 55.825 40.385 55.267 40.481 54.913 C 40.636 54.338 40.918 53.588 41.015 53.001 C 41.112 52.417 41.136 51.624 41.128 51.032 C 41.117 50.278 40.946 49.282 40.903 48.529 C 40.867 47.906 40.875 47.072 40.847 46.448 C 40.822 45.916 40.830 45.201 40.734 44.677 C 40.516 43.480 40.439 41.557 39.469 40.824 C 38.686 40.233 37.187 40.586 36.206 40.599 C 34.017 40.627 30.668 40.028 28.951 41.386 C 28.300 41.902 28.050 43.108 27.770 43.889 C 27.541 44.529 27.383 45.426 27.208 46.083 C 27.029 46.751 26.643 47.615 26.589 48.304 C 26.541 48.914 26.771 49.719 26.814 50.329 C 26.879 51.247 26.909 52.475 26.898 53.394 C 26.887 54.391 26.773 55.717 26.729 56.713 C 26.720 56.932 26.555 57.281 26.701 57.444 C 27.209 58.009 28.494 57.244 29.176 56.910 C 29.869 56.569 30.739 55.908 31.145 55.250 C 31.595 54.521 31.685 53.317 31.791 52.466 C 31.870 51.838 31.918 50.986 31.848 50.357 C 31.819 50.099 31.594 49.767 31.651 49.514 C 31.728 49.169 32.215 48.908 32.410 48.614 C 32.871 47.919 33.341 46.897 33.619 46.111 C 33.917 45.270 34.294 43.215 34.294 43.214 C 34.294 43.214 34.682 43.767 34.800 44.030 Z"/>
</g>
<g id="Orange">
<path fill="#de9c78" fill-rule="evenodd" stroke="none" d="M 23.854 28.517 C 23.862 28.709 23.736 28.983 23.629 29.155 C 23.294 29.690 22.458 30.073 22.078 30.578 C 21.689 31.094 21.363 31.908 21.116 32.505 C 20.851 33.148 20.656 34.065 20.391 34.708 C 20.217 35.129 19.951 35.677 19.718 36.069 C 19.433 36.549 18.955 37.125 18.642 37.587 C 18.551 37.720 18.426 37.895 18.347 38.035 C 18.225 38.255 18.077 38.557 18.000 38.796 C 17.858 39.235 17.733 39.847 17.722 40.309 C 17.715 40.609 17.766 41.011 17.841 41.302 C 17.909 41.562 18.094 41.876 18.177 42.132 C 18.289 42.476 18.451 42.943 18.463 43.305 C 18.473 43.592 18.433 43.988 18.311 44.247 C 18.227 44.427 18.078 44.706 17.885 44.754 C 17.709 44.797 17.434 44.672 17.323 44.529 C 17.238 44.420 17.252 44.212 17.249 44.074 C 17.246 43.877 17.348 43.619 17.336 43.423 C 17.321 43.176 17.201 42.862 17.121 42.629 C 17.094 42.551 17.099 42.377 17.016 42.375 C 16.889 42.373 17.037 42.671 17.031 42.798 C 17.017 43.101 16.949 43.502 16.886 43.799 C 16.808 44.165 16.603 44.629 16.541 44.998 C 16.476 45.381 16.524 45.906 16.473 46.292 C 16.433 46.594 16.403 47.014 16.263 47.284 C 16.163 47.479 15.998 47.837 15.779 47.829 C 15.577 47.821 15.463 47.476 15.361 47.302 C 15.186 47.005 15.041 46.564 14.941 46.235 C 14.828 45.865 14.744 45.354 14.666 44.976 C 14.561 44.468 14.378 43.795 14.338 43.278 C 14.294 42.693 14.374 41.909 14.419 41.323 C 14.459 40.799 14.515 40.098 14.611 39.582 C 14.712 39.038 14.926 38.332 15.080 37.801 C 15.276 37.128 15.573 36.240 15.794 35.574 C 16.028 34.866 16.366 33.931 16.599 33.223 C 16.839 32.496 17.112 31.511 17.372 30.791 C 17.606 30.142 17.964 29.294 18.235 28.660 C 18.502 28.034 18.716 27.105 19.164 26.593 C 19.369 26.359 19.717 26.071 20.022 26.009 C 20.899 25.832 22.182 26.301 22.877 26.864 C 23.324 27.226 23.831 27.941 23.854 28.517 M 46.765 27.379 C 47.417 27.326 48.423 27.473 48.838 27.968 C 49.237 28.444 49.015 29.407 49.057 30.027 C 49.075 30.292 49.064 30.648 49.089 30.912 C 49.137 31.449 49.323 32.151 49.364 32.689 C 49.405 33.239 49.382 33.978 49.358 34.529 C 49.326 35.290 49.182 36.299 49.140 37.060 C 49.115 37.509 49.041 38.113 49.098 38.559 C 49.163 39.078 49.468 39.721 49.588 40.230 C 49.632 40.417 49.691 40.668 49.707 40.859 C 49.756 41.434 49.749 42.215 49.632 42.779 C 49.572 43.069 49.418 43.436 49.296 43.705 C 49.082 44.181 48.681 44.759 48.450 45.227 C 48.224 45.685 47.919 46.299 47.772 46.788 C 47.728 46.937 47.797 47.204 47.672 47.296 C 47.577 47.366 47.375 47.344 47.280 47.275 C 47.126 47.163 47.113 46.859 47.091 46.671 C 47.060 46.404 47.140 46.045 47.167 45.778 C 47.221 45.263 47.311 44.579 47.381 44.067 C 47.434 43.677 47.547 43.164 47.572 42.772 C 47.582 42.609 47.582 42.391 47.568 42.229 C 47.555 42.084 47.633 41.772 47.489 41.751 C 47.329 41.728 47.341 42.098 47.289 42.251 C 47.232 42.421 47.176 42.655 47.132 42.830 C 47.062 43.101 47.024 43.479 46.916 43.737 C 46.835 43.931 46.755 44.296 46.548 44.335 C 46.409 44.361 46.232 44.199 46.152 44.084 C 46.034 43.915 46.046 43.615 46.029 43.410 C 46.004 43.111 46.003 42.706 46.053 42.410 C 46.139 41.895 46.452 41.259 46.606 40.761 C 46.784 40.188 47.167 39.437 47.152 38.838 C 47.138 38.283 46.719 37.615 46.567 37.081 C 46.406 36.519 46.210 35.762 46.115 35.185 C 46.007 34.527 45.982 33.636 45.915 32.974 C 45.869 32.524 45.927 31.892 45.748 31.478 C 45.558 31.040 44.990 30.659 44.712 30.271 C 44.535 30.022 44.187 29.702 44.190 29.397 C 44.194 28.899 44.763 28.355 45.152 28.044 C 45.561 27.718 46.243 27.421 46.765 27.379 M 29.064 17.930 C 29.137 17.562 29.674 17.281 29.965 17.035 C 30.164 16.868 30.506 16.731 30.668 16.527 C 30.879 16.262 31.147 15.814 31.091 15.480 C 31.046 15.210 30.683 14.990 30.513 14.777 C 30.166 14.344 29.632 13.810 29.382 13.316 C 29.040 12.640 28.829 11.630 28.716 10.881 C 28.623 10.268 28.596 9.435 28.638 8.817 C 28.679 8.213 28.786 7.400 28.985 6.828 C 29.189 6.243 29.585 5.497 29.972 5.013 C 30.437 4.433 31.178 3.713 31.851 3.396 C 32.711 2.991 34.037 2.794 34.982 2.903 C 35.772 2.995 36.798 3.417 37.446 3.878 C 38.005 4.276 38.608 5.007 38.951 5.601 C 39.266 6.146 39.536 6.962 39.636 7.583 C 39.738 8.211 39.474 9.080 39.609 9.701 C 39.692 10.085 40.157 10.504 40.143 10.896 C 40.133 11.140 39.924 11.424 39.788 11.626 C 39.611 11.890 39.277 12.165 39.076 12.411 C 38.913 12.610 38.783 12.962 38.565 13.099 C 38.452 13.171 38.264 13.214 38.131 13.205 C 38.028 13.198 37.906 13.056 37.808 13.087 C 37.628 13.144 37.575 13.463 37.505 13.638 C 37.369 13.977 37.218 14.455 37.214 14.820 C 37.211 15.062 37.248 15.402 37.374 15.609 C 37.683 16.118 38.813 16.183 39.000 16.749 C 39.695 18.862 37.386 22.678 35.206 23.122 C 34.042 23.359 32.669 21.937 31.757 21.177 C 30.785 20.366 28.821 19.172 29.064 17.930 Z"/>
<path fill="none" stroke="#000000" stroke-width="0" stroke-linecap="round" stroke-linejoin="round" d="M 17.996 38.437 C 17.848 38.676 17.654 39.308 17.654 39.308 M 18.347 38.035 C 18.347 38.035 18.081 38.301 17.996 38.437 M 22.078 30.578 C 21.812 30.734 21.546 30.890 21.281 31.047 M 23.854 28.517 C 23.862 28.709 23.736 28.983 23.629 29.155 C 23.294 29.690 22.458 30.073 22.078 30.578 C 21.689 31.094 21.363 31.908 21.116 32.505 C 20.851 33.148 20.656 34.065 20.391 34.708 C 20.217 35.129 19.951 35.677 19.718 36.069 C 19.433 36.549 18.955 37.125 18.642 37.587 C 18.551 37.720 18.426 37.895 18.347 38.035 C 18.225 38.255 18.077 38.557 18.000 38.796 C 17.858 39.235 17.733 39.847 17.722 40.309 C 17.715 40.609 17.766 41.011 17.841 41.302 C 17.909 41.562 18.094 41.876 18.177 42.132 C 18.289 42.476 18.451 42.943 18.463 43.305 C 18.473 43.592 18.433 43.988 18.311 44.247 C 18.227 44.427 18.078 44.706 17.885 44.754 C 17.709 44.797 17.434 44.672 17.323 44.529 C 17.238 44.420 17.252 44.212 17.249 44.074 C 17.246 43.877 17.348 43.619 17.336 43.423 C 17.321 43.176 17.201 42.862 17.121 42.629 C 17.094 42.551 17.099 42.377 17.016 42.375 C 16.889 42.373 17.037 42.671 17.031 42.798 C 17.017 43.101 16.949 43.502 16.886 43.799 C 16.808 44.165 16.603 44.629 16.541 44.998 C 16.476 45.381 16.524 45.906 16.473 46.292 C 16.433 46.594 16.403 47.014 16.263 47.284 C 16.163 47.479 15.998 47.837 15.779 47.829 C 15.577 47.821 15.463 47.476 15.361 47.302 C 15.186 47.005 15.041 46.564 14.941 46.235 C 14.828 45.865 14.744 45.354 14.666 44.976 C 14.561 44.468 14.378 43.795 14.338 43.278 C 14.294 42.693 14.374 41.909 14.419 41.323 C 14.459 40.799 14.515 40.098 14.611 39.582 C 14.712 39.038 14.926 38.332 15.080 37.801 C 15.276 37.128 15.573 36.240 15.794 35.574 C 16.028 34.866 16.366 33.931 16.599 33.223 C 16.839 32.496 17.112 31.511 17.372 30.791 C 17.606 30.142 17.964 29.294 18.235 28.660 C 18.502 28.034 18.716 27.105 19.164 26.593 C 19.369 26.359 19.717 26.071 20.022 26.009 C 20.899 25.832 22.182 26.301 22.877 26.864 C 23.324 27.226 23.831 27.941 23.854 28.517 M 46.765 27.379 C 47.417 27.326 48.423 27.473 48.838 27.968 C 49.237 28.444 49.015 29.407 49.057 30.027 C 49.075 30.292 49.064 30.648 49.089 30.912 C 49.137 31.449 49.323 32.151 49.364 32.689 C 49.405 33.239 49.382 33.978 49.358 34.529 C 49.326 35.290 49.182 36.299 49.140 37.060 C 49.115 37.509 49.041 38.113 49.098 38.559 C 49.163 39.078 49.468 39.721 49.588 40.230 C 49.632 40.417 49.691 40.668 49.707 40.859 C 49.756 41.434 49.749 42.215 49.632 42.779 C 49.572 43.069 49.418 43.436 49.296 43.705 C 49.082 44.181 48.681 44.759 48.450 45.227 C 48.224 45.685 47.919 46.299 47.772 46.788 C 47.728 46.937 47.797 47.204 47.672 47.296 C 47.577 47.366 47.375 47.344 47.280 47.275 C 47.126 47.163 47.113 46.859 47.091 46.671 C 47.060 46.404 47.140 46.045 47.167 45.778 C 47.221 45.263 47.311 44.579 47.381 44.067 C 47.434 43.677 47.547 43.164 47.572 42.772 C 47.582 42.609 47.582 42.391 47.568 42.229 C 47.555 42.084 47.633 41.772 47.489 41.751 C 47.329 41.728 47.341 42.098 47.289 42.251 C 47.232 42.421 47.176 42.655 47.132 42.830 C 47.062 43.101 47.024 43.479 46.916 43.737 C 46.835 43.931 46.755 44.296 46.548 44.335 C 46.409 44.361 46.232 44.199 46.152 44.084 C 46.034 43.915 46.046 43.615 46.029 43.410 C 46.004 43.111 46.003 42.706 46.053 42.410 C 46.139 41.895 46.452 41.259 46.606 40.761 C 46.784 40.188 47.167 39.437 47.152 38.838 C 47.138 38.283 46.719 37.615 46.567 37.081 C 46.406 36.519 46.210 35.762 46.115 35.185 C 46.007 34.527 45.982 33.636 45.915 32.974 C 45.869 32.524 45.927 31.892 45.748 31.478 C 45.558 31.040 44.990 30.659 44.712 30.271 C 44.535 30.022 44.187 29.702 44.190 29.397 C 44.194 28.899 44.763 28.355 45.152 28.044 C 45.561 27.718 46.243 27.421 46.765 27.379 M 29.064 17.930 C 29.137 17.562 29.674 17.281 29.965 17.035 C 30.164 16.868 30.506 16.731 30.668 16.527 C 30.879 16.262 31.147 15.814 31.091 15.480 C 31.046 15.210 30.683 14.990 30.513 14.777 C 30.166 14.344 29.632 13.810 29.382 13.316 C 29.040 12.640 28.829 11.630 28.716 10.881 C 28.623 10.268 28.596 9.435 28.638 8.817 C 28.679 8.213 28.786 7.400 28.985 6.828 C 29.189 6.243 29.585 5.497 29.972 5.013 C 30.437 4.433 31.178 3.713 31.851 3.396 C 32.711 2.991 34.037 2.794 34.982 2.903 C 35.772 2.995 36.798 3.417 37.446 3.878 C 38.005 4.276 38.608 5.007 38.951 5.601 C 39.266 6.146 39.536 6.962 39.636 7.583 C 39.738 8.211 39.474 9.080 39.609 9.701 C 39.692 10.085 40.157 10.504 40.143 10.896 C 40.133 11.140 39.924 11.424 39.788 11.626 C 39.611 11.890 39.277 12.165 39.076 12.411 C 38.913 12.610 38.783 12.962 38.565 13.099 C 38.452 13.171 38.264 13.214 38.131 13.205 C 38.028 13.198 37.906 13.056 37.808 13.087 C 37.628 13.144 37.575 13.463 37.505 13.638 C 37.369 13.977 37.218 14.455 37.214 14.820 C 37.211 15.062 37.248 15.402 37.374 15.609 C 37.683 16.118 38.813 16.183 39.000 16.749 C 39.695 18.862 37.386 22.678 35.206 23.122 C 34.042 23.359 32.669 21.937 31.757 21.177 C 30.785 20.366 28.821 19.172 29.064 17.930 "/>
</g>
<g id="Brown">
<path fill="#88431a" fill-rule="evenodd" stroke="none" d="M 36.540 58.194 C 36.388 57.358 35.638 55.511 35.638 55.511 C 35.638 55.511 37.069 55.892 37.699 55.940 C 38.239 55.980 39.006 56.064 39.504 55.848 C 39.810 55.716 40.330 55.104 40.330 55.104 C 40.330 55.104 39.872 58.375 39.824 59.787 C 39.801 60.459 39.776 61.364 39.889 62.026 C 40.065 63.058 41.073 64.291 40.994 65.335 C 40.932 66.149 40.291 67.126 39.802 67.780 C 39.568 68.094 38.861 68.685 38.861 68.685 C 38.861 68.685 37.630 68.157 37.202 67.787 C 36.872 67.502 36.474 67.041 36.317 66.634 C 36.177 66.270 36.205 65.339 36.205 65.339 C 36.205 65.339 35.810 64.782 35.729 64.506 C 35.646 64.224 35.649 63.820 35.677 63.528 C 35.774 62.496 36.517 61.236 36.630 60.206 C 36.695 59.605 36.648 58.788 36.540 58.194 M 26.542 57.908 C 26.616 57.348 26.784 56.042 26.784 56.042 C 26.785 56.042 28.336 56.089 28.992 55.993 C 29.593 55.905 30.945 55.458 30.946 55.458 C 30.946 55.458 30.185 57.506 30.073 58.428 C 29.989 59.119 30.044 60.060 30.152 60.747 C 30.216 61.161 30.471 61.678 30.518 62.094 C 30.552 62.398 30.618 62.838 30.484 63.113 C 30.294 63.499 29.352 63.993 29.352 63.993 C 29.352 63.993 29.126 64.676 28.971 64.941 C 28.823 65.195 28.590 65.524 28.359 65.706 C 27.566 66.331 26.218 66.733 25.232 66.955 C 24.654 67.085 23.261 67.109 23.261 67.109 C 23.261 67.109 23.269 66.383 23.360 66.088 C 23.578 65.377 24.282 64.616 24.626 63.956 C 24.957 63.322 25.331 62.442 25.614 61.784 C 25.804 61.344 26.094 60.767 26.220 60.304 C 26.411 59.605 26.448 58.627 26.542 57.908 M 44.080 28.513 C 44.201 28.930 44.512 29.895 44.512 29.895 C 44.211 30.081 45.147 29.365 45.447 29.178 C 45.913 28.888 46.571 28.547 47.094 28.380 C 47.596 28.220 48.299 28.058 48.825 28.087 C 48.950 28.094 49.136 28.261 49.234 28.182 C 49.371 28.071 49.197 27.771 49.171 27.596 C 49.008 26.518 48.807 25.062 48.427 24.040 C 48.095 23.148 47.425 22.054 46.900 21.260 C 46.482 20.626 45.950 19.720 45.343 19.263 C 45.074 19.060 44.627 18.941 44.319 18.804 C 42.844 18.146 39.399 16.624 39.398 16.623 C 39.201 16.537 38.939 16.252 38.742 16.336 C 38.611 16.392 38.603 16.638 38.542 16.767 C 38.234 17.416 37.840 18.290 37.493 18.920 C 37.181 19.486 36.732 20.224 36.362 20.754 C 36.069 21.174 35.670 21.735 35.309 22.099 C 35.179 22.229 35.021 22.482 34.837 22.490 C 34.431 22.508 34.126 21.863 33.831 21.584 C 33.194 20.981 32.360 20.158 31.767 19.512 C 31.294 18.997 30.551 18.371 30.258 17.737 C 30.178 17.566 30.291 17.204 30.121 17.122 C 29.974 17.052 29.774 17.279 29.625 17.343 C 29.232 17.514 28.709 17.746 28.307 17.895 C 27.150 18.324 25.459 18.527 24.384 19.134 C 23.815 19.455 23.184 20.078 22.714 20.533 C 22.257 20.975 21.685 21.606 21.300 22.112 C 20.653 22.966 19.832 24.156 19.407 25.139 C 19.124 25.793 18.775 27.428 18.775 27.428 C 18.397 27.526 19.690 27.483 20.065 27.592 C 20.611 27.751 21.315 28.080 21.772 28.418 C 22.218 28.749 22.476 29.813 23.029 29.775 C 23.321 29.755 23.508 29.286 23.690 29.056 C 23.892 28.800 24.099 28.414 24.296 28.154 C 24.438 27.965 24.568 27.516 24.803 27.548 C 25.081 27.586 25.012 28.172 25.142 28.420 C 25.477 29.059 26.101 29.802 26.528 30.382 C 26.977 30.991 27.677 31.730 28.064 32.380 C 28.445 33.020 28.883 33.928 29.074 34.648 C 29.190 35.086 29.266 35.696 29.246 36.149 C 29.230 36.533 29.074 37.029 28.997 37.405 C 28.817 38.281 28.583 39.450 28.374 40.319 C 28.090 41.499 27.647 43.056 27.321 44.226 C 27.269 44.410 27.058 44.669 27.145 44.840 C 27.316 45.176 28.000 45.057 28.374 45.103 C 28.779 45.153 29.326 45.140 29.734 45.147 C 30.208 45.155 30.841 45.131 31.314 45.147 C 31.868 45.167 32.604 45.259 33.158 45.279 C 33.816 45.303 34.696 45.334 35.352 45.279 C 35.911 45.232 36.820 45.388 37.195 44.972 C 37.313 44.842 37.288 44.573 37.315 44.400 C 37.406 43.826 37.477 43.051 37.503 42.470 C 37.513 42.246 37.317 41.848 37.503 41.724 C 37.954 41.422 38.011 42.884 38.205 43.392 C 38.349 43.769 38.714 44.267 38.644 44.664 C 38.619 44.805 38.338 44.923 38.380 45.059 C 38.502 45.449 39.334 45.142 39.741 45.103 C 40.104 45.069 40.564 44.876 40.926 44.840 C 41.070 44.825 41.311 44.947 41.409 44.840 C 41.612 44.619 41.212 44.167 41.145 43.874 C 40.994 43.210 40.880 42.305 40.750 41.636 C 40.617 40.949 40.447 40.030 40.268 39.354 C 40.080 38.646 39.718 37.734 39.520 37.028 C 39.392 36.573 39.158 35.969 39.147 35.496 C 39.137 35.079 39.291 34.531 39.403 34.128 C 39.544 33.623 39.778 32.958 40.024 32.495 C 40.267 32.035 40.723 31.504 41.017 31.075 C 41.383 30.542 41.877 29.835 42.218 29.286 C 42.524 28.795 42.847 28.089 43.179 27.615 C 43.334 27.394 43.510 26.796 43.749 26.921 C 43.872 26.985 43.754 27.245 43.775 27.383 C 43.828 27.730 43.982 28.176 44.080 28.513 Z"/>
<path fill="none" stroke="#000000" stroke-width="0" stroke-linecap="round" stroke-linejoin="round" d="M 36.540 58.194 C 36.388 57.358 35.638 55.511 35.638 55.511 C 35.638 55.511 37.069 55.892 37.699 55.940 C 38.239 55.980 39.006 56.064 39.504 55.848 C 39.810 55.716 40.330 55.104 40.330 55.104 C 40.330 55.104 39.872 58.375 39.824 59.787 C 39.801 60.459 39.776 61.364 39.889 62.026 C 40.065 63.058 41.073 64.291 40.994 65.335 C 40.932 66.149 40.291 67.126 39.802 67.780 C 39.568 68.094 38.861 68.685 38.861 68.685 C 38.861 68.685 37.630 68.157 37.202 67.787 C 36.872 67.502 36.474 67.041 36.317 66.634 C 36.177 66.270 36.205 65.339 36.205 65.339 C 36.205 65.339 35.810 64.782 35.729 64.506 C 35.646 64.224 35.649 63.820 35.677 63.528 C 35.774 62.496 36.517 61.236 36.630 60.206 C 36.695 59.605 36.648 58.788 36.540 58.194 M 26.542 57.908 C 26.616 57.348 26.784 56.042 26.784 56.042 C 26.785 56.042 28.336 56.089 28.992 55.993 C 29.593 55.905 30.945 55.458 30.946 55.458 C 30.946 55.458 30.185 57.506 30.073 58.428 C 29.989 59.119 30.044 60.060 30.152 60.747 C 30.216 61.161 30.471 61.678 30.518 62.094 C 30.552 62.398 30.618 62.838 30.484 63.113 C 30.294 63.499 29.352 63.993 29.352 63.993 C 29.352 63.993 29.126 64.676 28.971 64.941 C 28.823 65.195 28.590 65.524 28.359 65.706 C 27.566 66.331 26.218 66.733 25.232 66.955 C 24.654 67.085 23.261 67.109 23.261 67.109 C 23.261 67.109 23.269 66.383 23.360 66.088 C 23.578 65.377 24.282 64.616 24.626 63.956 C 24.957 63.322 25.331 62.442 25.614 61.784 C 25.804 61.344 26.094 60.767 26.220 60.304 C 26.411 59.605 26.448 58.627 26.542 57.908 M 44.080 28.513 C 44.201 28.930 44.512 29.895 44.512 29.895 C 44.646 29.812 44.934 29.581 44.934 29.581 M 43.775 27.383 C 43.828 27.730 43.982 28.176 44.080 28.513 M 43.749 26.921 C 43.872 26.985 43.754 27.245 43.775 27.383 M 43.179 27.615 C 43.334 27.394 43.510 26.796 43.749 26.921 C 43.693 26.641 43.637 26.362 43.581 26.082 M 42.218 29.286 C 42.524 28.795 42.847 28.089 43.179 27.615 M 41.017 31.075 C 41.383 30.542 41.877 29.835 42.218 29.286 M 40.024 32.495 C 40.267 32.035 40.723 31.504 41.017 31.075 M 39.403 34.128 C 39.544 33.623 39.778 32.958 40.024 32.495 M 39.147 35.496 C 39.137 35.079 39.291 34.531 39.403 34.128 M 39.520 37.028 C 39.392 36.573 39.158 35.969 39.147 35.496 M 40.268 39.354 C 40.080 38.646 39.718 37.734 39.520 37.028 M 40.750 41.636 C 40.617 40.949 40.447 40.030 40.268 39.354 M 41.145 43.874 C 40.994 43.210 40.880 42.305 40.750 41.636 M 41.409 44.840 C 41.612 44.619 41.212 44.167 41.145 43.874 M 40.926 44.840 C 41.070 44.825 41.311 44.947 41.409 44.840 M 39.741 45.103 C 40.104 45.069 40.564 44.876 40.926 44.840 M 38.380 45.059 C 38.502 45.449 39.334 45.142 39.741 45.103 M 38.644 44.664 C 38.619 44.805 38.338 44.923 38.380 45.059 M 38.205 43.392 C 38.349 43.769 38.714 44.267 38.644 44.664 M 37.503 41.724 C 37.954 41.422 38.011 42.884 38.205 43.392 M 37.503 42.470 C 37.513 42.246 37.317 41.848 37.503 41.724 C 37.459 41.461 37.415 41.197 37.371 40.934 M 37.315 44.400 C 37.406 43.826 37.477 43.051 37.503 42.470 M 37.195 44.972 C 37.313 44.842 37.288 44.573 37.315 44.400 M 35.352 45.279 C 35.911 45.232 36.820 45.388 37.195 44.972 M 33.158 45.279 C 33.816 45.303 34.696 45.334 35.352 45.279 M 31.314 45.147 C 31.868 45.167 32.604 45.259 33.158 45.279 M 29.734 45.147 C 30.208 45.155 30.841 45.131 31.314 45.147 M 28.374 45.103 C 28.779 45.153 29.326 45.140 29.734 45.147 M 27.145 44.840 C 27.316 45.176 28.000 45.057 28.374 45.103 M 27.321 44.226 C 27.269 44.410 27.058 44.669 27.145 44.840 M 28.374 40.319 C 28.090 41.499 27.647 43.056 27.321 44.226 M 28.997 37.405 C 28.817 38.281 28.583 39.450 28.374 40.319 M 29.246 36.149 C 29.230 36.533 29.074 37.029 28.997 37.405 M 29.074 34.648 C 29.190 35.086 29.266 35.696 29.246 36.149 M 28.064 32.380 C 28.445 33.020 28.883 33.928 29.074 34.648 M 26.528 30.382 C 26.977 30.991 27.677 31.730 28.064 32.380 M 25.142 28.420 C 25.477 29.059 26.101 29.802 26.528 30.382 M 24.803 27.548 C 25.081 27.586 25.012 28.172 25.142 28.420 M 24.296 28.154 C 24.438 27.965 24.568 27.516 24.803 27.548 C 25.163 26.789 25.524 26.029 25.885 25.269 M 23.690 29.056 C 23.892 28.800 24.099 28.414 24.296 28.154 M 23.029 29.775 C 23.321 29.755 23.508 29.286 23.690 29.056 M 21.772 28.418 C 22.218 28.749 22.476 29.813 23.029 29.775 M 20.065 27.592 C 20.611 27.751 21.315 28.080 21.772 28.418 M 18.775 27.428 C 18.397 27.526 19.690 27.483 20.065 27.592 M 19.125 27.444 C 19.125 27.444 18.877 27.402 18.775 27.428 C 18.775 27.428 19.124 25.793 19.407 25.139 C 19.832 24.156 20.653 22.966 21.300 22.112 C 21.685 21.606 22.257 20.975 22.714 20.533 C 23.184 20.078 23.815 19.455 24.384 19.134 C 25.459 18.527 27.150 18.324 28.307 17.895 C 28.709 17.746 29.232 17.514 29.625 17.343 C 29.774 17.279 29.974 17.052 30.121 17.122 C 30.291 17.204 30.178 17.566 30.258 17.737 C 30.551 18.371 31.294 18.997 31.767 19.512 C 32.360 20.158 33.194 20.981 33.831 21.584 C 34.126 21.863 34.431 22.508 34.837 22.490 C 35.021 22.482 35.179 22.229 35.309 22.099 C 35.670 21.735 36.069 21.174 36.362 20.754 C 36.732 20.224 37.181 19.486 37.493 18.920 C 37.840 18.290 38.234 17.416 38.542 16.767 C 38.603 16.638 38.611 16.392 38.742 16.336 C 38.939 16.252 39.201 16.537 39.398 16.623 C 39.398 16.623 39.398 16.623 39.398 16.623 C 39.399 16.624 42.844 18.146 44.319 18.804 C 44.627 18.941 45.074 19.060 45.343 19.263 C 45.950 19.720 46.482 20.626 46.900 21.260 C 47.425 22.054 48.095 23.148 48.427 24.040 C 48.807 25.062 49.008 26.518 49.171 27.596 C 49.197 27.771 49.371 28.071 49.234 28.182 C 49.136 28.261 48.950 28.094 48.825 28.087 C 48.299 28.058 47.596 28.220 47.094 28.380 C 46.571 28.547 45.913 28.888 45.447 29.178 C 45.147 29.365 44.211 30.081 44.512 29.895 "/>
</g>
<g id="DarkBrown">
<path fill="#4a000a" fill-rule="evenodd" stroke="#000000" stroke-width="0" stroke-linecap="round" stroke-linejoin="round" d="M 37.094 56.860 C 37.436 56.810 38.194 56.514 38.194 56.514 C 38.194 56.514 37.385 56.280 37.046 56.156 C 36.672 56.019 35.822 55.637 35.822 55.637 C 35.822 55.637 36.145 56.849 36.145 56.849 C 36.145 56.849 36.812 56.901 37.094 56.860 M 40.352 55.264 C 40.352 55.264 40.267 56.571 40.267 56.571 C 40.267 56.571 39.905 56.685 39.745 56.696 C 39.402 56.720 38.608 56.555 38.608 56.555 C 38.608 56.555 39.184 56.202 39.418 56.031 C 39.711 55.818 40.352 55.264 40.352 55.264 M 39.942 67.516 C 39.627 67.896 38.741 68.642 38.741 68.642 C 38.741 68.642 38.071 68.256 37.810 68.054 C 37.561 67.861 37.291 67.533 37.046 67.335 C 36.871 67.194 36.433 66.909 36.433 66.909 C 36.433 66.909 36.591 66.583 36.697 66.472 C 36.917 66.242 37.320 66.063 37.602 65.914 C 37.937 65.738 38.382 65.464 38.756 65.403 C 39.419 65.294 40.979 65.678 40.979 65.678 C 40.979 65.678 40.747 66.236 40.624 66.463 C 40.444 66.794 40.183 67.226 39.942 67.516 M 37.388 58.522 C 37.388 58.522 40.003 58.732 40.003 58.732 C 40.003 58.733 39.910 59.396 39.874 59.680 C 39.834 60.007 39.751 60.769 39.751 60.769 C 39.751 60.769 39.779 61.616 39.846 61.971 C 39.942 62.476 40.357 63.604 40.357 63.604 C 40.357 63.604 39.897 63.422 39.690 63.387 C 39.502 63.356 39.055 63.376 39.055 63.376 C 39.054 63.376 38.065 63.631 37.632 63.625 C 37.474 63.622 37.115 63.537 37.115 63.537 C 37.115 63.537 37.254 62.832 37.350 62.539 C 37.446 62.243 37.702 61.890 37.754 61.584 C 37.907 60.671 37.388 58.522 37.388 58.522 M 30.028 17.035 C 30.028 17.036 28.558 17.825 28.558 17.825 C 28.558 17.826 29.744 19.769 30.348 20.533 C 31.016 21.379 32.029 22.408 32.812 23.149 C 33.394 23.700 34.849 24.877 34.849 24.878 C 34.849 24.877 36.181 23.880 36.668 23.362 C 37.392 22.592 38.176 21.402 38.725 20.498 C 39.316 19.525 40.436 17.112 40.436 17.111 C 40.436 17.111 38.665 16.266 38.665 16.266 C 38.665 16.266 38.193 17.470 37.951 17.969 C 37.630 18.627 37.160 19.485 36.757 20.096 C 36.523 20.451 36.189 20.912 35.902 21.226 C 35.605 21.550 34.814 22.211 34.814 22.211 C 34.814 22.211 33.176 20.947 32.533 20.339 C 32.064 19.895 31.458 19.276 31.070 18.759 C 30.707 18.276 30.028 17.036 30.028 17.035 M 19.873 27.833 C 19.477 27.660 18.516 27.352 18.516 27.352 C 18.516 27.351 19.169 25.674 19.169 25.674 C 19.169 25.674 20.080 25.773 20.449 25.900 C 21.042 26.104 21.755 26.568 22.282 26.910 C 22.922 27.325 24.309 28.447 24.309 28.447 C 24.309 28.447 23.002 30.001 23.002 30.001 C 23.002 30.001 22.363 29.240 22.028 28.982 C 21.448 28.534 20.544 28.126 19.873 27.833 M 44.529 29.658 C 44.529 29.658 43.887 27.642 43.887 27.642 C 43.887 27.642 45.345 26.992 45.990 26.767 C 46.397 26.625 46.948 26.457 47.370 26.368 C 47.829 26.271 48.919 26.158 48.919 26.158 C 48.919 26.158 49.227 28.099 49.227 28.099 C 49.227 28.099 48.067 28.134 47.585 28.243 C 47.089 28.354 46.458 28.619 45.997 28.832 C 45.538 29.045 44.529 29.658 44.529 29.658 M 30.823 34.695 C 30.823 34.695 29.160 34.697 29.119 34.704 C 29.119 34.704 29.009 33.893 29.009 33.893 C 29.009 33.893 29.644 33.710 29.891 33.577 C 32.249 32.311 34.801 29.701 36.719 27.834 C 37.562 27.012 38.669 25.882 39.356 24.925 C 40.024 23.994 41.218 21.590 41.218 21.589 C 41.218 21.589 43.892 23.712 43.893 23.712 C 43.892 23.712 40.114 27.047 38.479 28.459 C 36.884 29.836 34.784 31.708 33.126 33.009 C 32.452 33.537 30.823 34.695 30.823 34.695 M 29.263 36.110 C 29.254 35.715 29.140 34.798 29.140 34.798 C 29.140 34.798 30.503 34.763 31.087 34.756 C 32.231 34.741 33.760 34.832 34.901 34.744 C 35.858 34.670 37.135 34.513 38.063 34.270 C 38.532 34.147 39.579 33.716 39.579 33.716 C 39.579 33.716 39.335 34.628 39.311 35.029 C 39.283 35.483 39.365 36.090 39.439 36.538 C 39.479 36.777 39.628 37.323 39.628 37.323 C 39.628 37.323 38.323 37.711 37.746 37.784 C 35.663 38.049 32.832 37.919 30.747 37.669 C 30.364 37.623 29.833 37.587 29.487 37.417 C 29.358 37.354 29.112 37.119 29.112 37.119 C 29.112 37.119 29.218 36.842 29.240 36.718 C 29.273 36.538 29.267 36.292 29.263 36.110 M 29.580 56.948 C 29.398 56.923 28.998 56.762 28.998 56.762 C 28.998 56.762 29.497 56.455 29.711 56.324 C 30.071 56.103 30.913 55.591 30.913 55.591 C 30.913 55.591 30.494 56.896 30.494 56.897 C 30.494 56.897 29.852 56.984 29.580 56.948 M 26.806 56.034 C 26.806 56.034 26.648 56.873 26.648 56.873 C 26.648 56.873 27.093 56.987 27.289 56.998 C 27.708 57.022 28.682 56.857 28.682 56.857 C 28.682 56.857 27.998 56.466 27.689 56.333 C 27.432 56.223 26.807 56.034 26.806 56.034 M 23.552 65.422 C 23.635 65.271 23.906 64.969 23.906 64.969 C 23.906 64.969 25.308 64.539 25.928 64.542 C 26.300 64.544 26.836 64.577 27.144 64.786 C 27.494 65.024 27.896 65.979 27.896 65.980 C 27.896 65.980 27.526 66.299 27.344 66.399 C 27.123 66.520 26.797 66.616 26.555 66.685 C 25.752 66.912 24.657 67.237 23.824 67.204 C 23.646 67.197 23.244 67.077 23.244 67.077 C 23.244 67.077 23.231 66.489 23.276 66.243 C 23.322 65.987 23.427 65.650 23.552 65.422 M 28.366 58.262 C 28.366 58.262 26.467 58.419 26.467 58.419 C 26.467 58.419 26.300 59.069 26.260 59.353 C 26.220 59.645 26.206 60.335 26.206 60.335 C 26.206 60.335 25.778 61.366 25.586 61.805 C 25.331 62.387 24.708 63.732 24.708 63.732 C 24.708 63.732 25.221 63.762 25.441 63.769 C 25.879 63.783 26.902 63.784 26.903 63.784 C 26.903 63.784 27.643 62.636 27.984 62.160 C 28.159 61.915 28.592 61.363 28.593 61.363 C 28.592 61.363 28.418 60.057 28.363 59.495 C 28.347 59.329 28.321 59.108 28.320 58.941 C 28.319 58.737 28.366 58.262 28.366 58.262 Z"/>
</g>
<g id="Silver">
<path fill="#d4d4d4" fill-rule="evenodd" stroke="none" d="M 32.802 37.571 C 32.745 37.492 32.741 37.251 32.741 37.251 C 32.741 37.251 32.710 35.391 32.710 35.391 C 32.710 35.391 32.732 35.145 32.800 35.074 C 32.894 34.976 33.233 34.945 33.233 34.945 C 33.233 34.945 35.047 34.899 35.047 34.899 C 35.047 34.899 35.343 34.987 35.430 35.080 C 35.528 35.186 35.600 35.529 35.600 35.529 C 35.600 35.529 35.554 37.343 35.554 37.343 C 35.554 37.344 35.542 37.611 35.472 37.693 C 35.358 37.825 34.924 37.882 34.924 37.882 C 34.924 37.882 33.156 37.759 33.156 37.759 C 33.156 37.759 32.873 37.668 32.802 37.571 M 39.460 17.011 C 39.627 16.624 39.941 16.153 40.148 15.785 C 40.148 15.785 41.910 16.025 42.630 16.264 C 43.167 16.442 43.837 16.802 44.334 17.071 C 44.862 17.357 45.560 17.756 46.039 18.118 C 46.495 18.462 47.059 18.981 47.444 19.404 C 47.824 19.820 48.263 20.433 48.580 20.899 C 48.812 21.238 49.340 21.656 49.298 22.065 C 49.244 22.589 48.468 22.981 48.042 23.291 C 47.656 23.572 47.084 23.870 46.637 24.039 C 45.948 24.298 44.978 24.516 44.244 24.577 C 43.689 24.623 42.925 24.645 42.390 24.487 C 41.874 24.335 41.236 23.950 40.835 23.590 C 40.439 23.234 40.053 22.618 39.789 22.155 C 39.542 21.722 39.251 21.113 39.131 20.630 C 38.981 20.027 38.909 19.183 38.981 18.566 C 39.039 18.082 39.267 17.460 39.460 17.011 Z"/>
<path fill="none" stroke="#000000" stroke-width="0" stroke-linecap="round" stroke-linejoin="round" d="M 32.802 37.571 C 32.745 37.492 32.741 37.251 32.741 37.251 C 32.741 37.251 32.710 35.391 32.710 35.391 C 32.710 35.391 32.732 35.145 32.800 35.074 C 32.894 34.976 33.233 34.945 33.233 34.945 C 33.233 34.945 35.047 34.899 35.047 34.899 C 35.047 34.899 35.343 34.987 35.430 35.080 C 35.528 35.186 35.600 35.529 35.600 35.529 C 35.600 35.529 35.554 37.343 35.554 37.343 C 35.554 37.344 35.542 37.611 35.472 37.693 C 35.358 37.825 34.924 37.882 34.924 37.882 C 34.924 37.882 33.156 37.759 33.156 37.759 C 33.156 37.759 32.873 37.668 32.802 37.571 M 40.148 15.785 C 40.148 15.785 40.148 15.785 40.148 15.785 C 39.941 16.153 39.627 16.624 39.460 17.011 C 39.267 17.460 39.039 18.082 38.981 18.566 C 38.909 19.183 38.981 20.027 39.131 20.630 C 39.251 21.113 39.542 21.722 39.789 22.155 C 40.053 22.618 40.439 23.234 40.835 23.590 C 41.236 23.950 41.874 24.335 42.390 24.487 C 42.925 24.645 43.689 24.623 44.244 24.577 C 44.978 24.516 45.948 24.298 46.637 24.039 C 47.084 23.870 47.656 23.572 48.042 23.291 C 48.468 22.981 49.244 22.589 49.298 22.065 C 49.340 21.656 48.812 21.238 48.580 20.899 C 48.263 20.433 47.824 19.820 47.444 19.404 C 47.059 18.981 46.495 18.462 46.039 18.118 C 45.560 17.756 44.862 17.357 44.334 17.071 C 43.837 16.802 43.167 16.442 42.630 16.264 C 41.910 16.025 40.148 15.785 40.148 15.785 "/>
</g>
<g id="Riga">
<path fill="#cc6427" fill-rule="evenodd" stroke="#000000" stroke-width="0" stroke-linecap="round" stroke-linejoin="round" d="M 33.611 14.170 C 33.437 14.188 33.139 14.070 32.943 14.114 C 32.534 14.205 32.051 14.558 31.767 14.866 C 31.572 15.077 31.338 15.419 31.299 15.705 C 31.246 16.089 31.423 16.629 31.633 16.956 C 31.874 17.329 32.371 17.724 32.786 17.884 C 33.304 18.083 34.091 18.075 34.636 17.964 C 34.973 17.895 35.429 17.726 35.681 17.491 C 35.975 17.217 36.190 16.690 36.302 16.305 C 36.417 15.909 36.548 15.328 36.417 14.937 C 36.281 14.530 35.865 14.012 35.459 13.873 C 35.273 13.810 35.002 13.914 34.808 13.942 C 34.446 13.995 33.974 14.133 33.611 14.170 M 34.224 15.687 C 34.120 15.617 33.906 15.582 33.776 15.621 C 33.463 15.717 33.343 16.312 33.034 16.421 C 32.862 16.482 32.584 16.464 32.429 16.368 C 32.244 16.254 32.071 15.960 32.059 15.742 C 32.048 15.534 32.187 15.244 32.344 15.107 C 32.470 14.997 32.709 14.962 32.875 14.938 C 33.195 14.892 33.633 15.039 33.952 14.984 C 34.218 14.938 34.535 14.744 34.789 14.655 C 34.971 14.591 35.216 14.416 35.403 14.464 C 35.555 14.502 35.714 14.685 35.777 14.828 C 35.858 15.010 35.844 15.300 35.787 15.491 C 35.708 15.760 35.494 16.120 35.248 16.256 C 35.068 16.356 34.743 16.413 34.561 16.315 C 34.373 16.213 34.401 15.806 34.224 15.687 M 28.661 8.337 C 28.525 9.228 28.717 11.340 28.717 11.340 C 28.717 11.340 29.206 9.073 29.550 8.143 C 29.759 7.580 30.413 6.335 30.413 6.335 C 30.413 6.335 31.910 6.673 32.562 6.741 C 33.347 6.822 34.405 6.845 35.192 6.789 C 36.013 6.730 37.899 6.345 37.899 6.345 C 37.899 6.345 38.105 7.259 38.133 7.658 C 38.163 8.092 38.062 8.672 38.077 9.106 C 38.100 9.782 38.333 11.346 38.333 11.346 C 38.333 11.346 38.736 11.112 38.892 10.988 C 39.137 10.793 39.630 10.251 39.630 10.251 C 39.630 10.251 39.554 9.613 39.607 9.347 C 39.637 9.197 39.781 9.027 39.805 8.876 C 39.851 8.579 39.750 8.174 39.681 7.882 C 39.476 7.008 39.157 5.805 38.621 5.086 C 38.038 4.305 36.954 3.430 36.026 3.132 C 34.904 2.770 33.182 2.810 32.098 3.274 C 31.107 3.698 30.076 4.850 29.508 5.767 C 29.081 6.457 28.784 7.535 28.661 8.337 Z"/>
</g>
<g id="Face">
<path fill="#d4d4d4" fill-rule="evenodd" stroke="none" d="M 32.404 15.318 C 32.404 15.318 32.683 15.301 32.803 15.293 C 33.036 15.280 33.346 15.269 33.578 15.249 C 33.918 15.221 34.380 15.222 34.706 15.122 C 34.843 15.079 35.023 14.999 35.135 14.910 C 35.216 14.845 35.356 14.643 35.356 14.643 C 35.356 14.643 35.210 14.592 35.210 14.592 C 35.210 14.592 35.301 14.558 35.340 14.566 C 35.464 14.592 35.661 14.840 35.661 14.840 C 35.661 14.840 35.472 14.727 35.472 14.727 C 35.472 14.727 35.149 15.028 34.988 15.124 C 34.877 15.190 34.717 15.262 34.591 15.290 C 34.407 15.330 34.153 15.299 33.965 15.307 C 33.697 15.318 33.339 15.339 33.071 15.358 C 32.949 15.367 32.786 15.404 32.665 15.391 C 32.584 15.383 32.404 15.318 32.404 15.318 Z"/>
<path fill="none" stroke="#000000" stroke-width="0" stroke-linecap="round" stroke-linejoin="round" d="M 32.665 15.391 C 32.584 15.383 32.404 15.318 32.404 15.318 C 32.404 15.318 32.683 15.301 32.803 15.293 C 33.036 15.280 33.346 15.269 33.578 15.249 C 33.918 15.221 34.380 15.222 34.706 15.122 C 34.843 15.079 35.023 14.999 35.135 14.910 C 35.216 14.845 35.356 14.643 35.356 14.643 C 35.356 14.643 35.210 14.592 35.210 14.592 C 35.210 14.592 35.301 14.558 35.340 14.566 C 35.464 14.592 35.661 14.840 35.661 14.840 C 35.661 14.840 35.472 14.727 35.472 14.727 C 35.472 14.727 35.149 15.028 34.988 15.124 C 34.877 15.190 34.717 15.262 34.591 15.290 C 34.407 15.330 34.153 15.299 33.965 15.307 C 33.697 15.318 33.339 15.339 33.071 15.358 C 32.949 15.367 32.786 15.404 32.665 15.391 M 36.588 10.971 C 36.689 10.947 36.915 10.859 36.915 10.859 M 36.385 11.000 C 36.438 10.969 36.528 10.985 36.588 10.971 M 36.209 11.239 C 36.258 11.165 36.308 11.045 36.385 11.000 M 35.966 11.676 C 36.091 11.593 36.128 11.365 36.209 11.239 M 35.382 11.724 C 35.540 11.802 35.819 11.772 35.966 11.676 M 35.200 11.484 C 35.243 11.563 35.301 11.685 35.382 11.724 M 35.110 11.247 C 35.172 11.291 35.163 11.417 35.200 11.484 M 34.806 11.245 C 34.897 11.246 35.036 11.194 35.110 11.247 M 34.318 11.243 C 34.318 11.243 34.660 11.244 34.806 11.245 M 37.005 10.074 C 37.055 10.060 37.177 10.046 37.177 10.046 M 36.181 10.453 C 36.440 10.369 36.743 10.149 37.005 10.074 M 34.894 10.703 C 35.283 10.641 35.807 10.576 36.181 10.453 M 34.088 10.807 C 34.088 10.807 34.653 10.741 34.894 10.703 M 30.390 10.849 C 30.296 10.823 30.071 10.782 30.071 10.782 M 30.710 10.954 C 30.686 10.856 30.488 10.875 30.390 10.849 M 30.605 11.102 C 30.628 11.053 30.723 11.007 30.710 10.954 M 30.497 11.524 C 30.462 11.398 30.548 11.220 30.605 11.102 M 30.917 11.911 C 30.755 11.854 30.542 11.689 30.497 11.524 M 31.342 11.895 C 31.229 11.954 31.037 11.954 30.917 11.911 M 31.486 11.729 C 31.446 11.781 31.401 11.865 31.342 11.895 M 31.764 11.295 C 31.626 11.365 31.579 11.605 31.486 11.729 M 32.348 11.339 C 32.348 11.339 31.920 11.215 31.764 11.295 M 34.381 12.678 C 34.297 12.584 34.093 12.369 34.093 12.369 M 34.684 13.034 C 34.616 12.912 34.474 12.783 34.381 12.678 M 34.829 13.489 C 34.860 13.349 34.753 13.159 34.684 13.034 M 34.354 13.959 C 34.532 13.866 34.785 13.684 34.829 13.489 M 33.213 14.127 C 33.559 14.129 34.047 14.119 34.354 13.959 M 32.196 13.966 C 32.393 14.203 32.904 14.124 33.213 14.127 M 32.154 13.651 C 32.148 13.746 32.135 13.892 32.196 13.966 M 32.518 12.573 C 32.411 12.897 32.179 13.311 32.154 13.651 M 32.855 11.524 C 32.808 11.851 32.621 12.259 32.518 12.573 M 32.852 11.043 C 32.926 11.167 32.875 11.381 32.855 11.524 M 32.151 10.716 C 32.371 10.789 32.732 10.845 32.852 11.043 M 29.742 10.291 C 29.743 10.291 31.455 10.486 32.151 10.716 "/>
</g>
</g>
</svg>
