<?xml version="1.0" encoding="utf-8"?>
<!-- Generator: Moho 12.2 build 21774 -->
<!DOCTYPE svg PUBLIC "-//W3C//DTD SVG 1.1//EN" "http://www.w3.org/Graphics/SVG/1.1/DTD/svg11.dtd">
<svg version="1.1" id="Frame_32" xmlns="http://www.w3.org/2000/svg" xmlns:xlink="http://www.w3.org/1999/xlink" width="70px" height="70px">
<g id="Layer_3">
<g id="Gray">
<path fill="#7f001a" fill-rule="evenodd" stroke="#000000" stroke-width="0" stroke-linecap="round" stroke-linejoin="round" d="M 34.800 44.030 C 35.091 44.676 35.243 45.622 35.419 46.308 C 35.671 47.291 36.298 48.587 36.206 49.598 C 36.161 50.103 35.737 50.688 35.588 51.173 C 35.442 51.644 35.288 52.287 35.222 52.776 C 35.175 53.127 35.118 53.605 35.166 53.957 C 35.210 54.282 35.397 54.687 35.503 54.997 C 35.600 55.277 35.636 55.712 35.841 55.925 C 36.350 56.454 37.441 56.649 38.175 56.657 C 38.797 56.663 39.749 56.551 40.172 56.094 C 40.420 55.825 40.385 55.267 40.481 54.913 C 40.636 54.338 40.918 53.588 41.015 53.001 C 41.112 52.417 41.136 51.624 41.128 51.032 C 41.117 50.278 40.946 49.282 40.903 48.529 C 40.867 47.906 40.875 47.072 40.847 46.448 C 40.822 45.916 40.830 45.201 40.734 44.677 C 40.516 43.480 40.439 41.557 39.469 40.824 C 38.686 40.233 37.187 40.586 36.206 40.599 C 34.017 40.627 30.668 40.028 28.951 41.386 C 28.300 41.902 28.050 43.108 27.770 43.889 C 27.541 44.529 27.383 45.426 27.208 46.083 C 27.029 46.751 26.643 47.615 26.589 48.304 C 26.541 48.914 26.771 49.719 26.814 50.329 C 26.879 51.247 26.909 52.475 26.898 53.394 C 26.887 54.391 26.773 55.717 26.729 56.713 C 26.720 56.932 26.555 57.281 26.701 57.444 C 27.209 58.009 28.494 57.244 29.176 56.910 C 29.869 56.569 30.739 55.908 31.145 55.250 C 31.595 54.521 31.685 53.317 31.791 52.466 C 31.870 51.838 31.918 50.986 31.848 50.357 C 31.819 50.099 31.594 49.767 31.651 49.514 C 31.728 49.169 32.215 48.908 32.410 48.614 C 32.871 47.919 33.341 46.897 33.619 46.111 C 33.917 45.270 34.294 43.215 34.294 43.214 C 34.294 43.214 34.682 43.767 34.800 44.030 Z"/>
</g>
<g id="Orange">
<path fill="#de9c78" fill-rule="evenodd" stroke="none" d="M 24.668 29.324 C 24.675 29.513 24.548 29.781 24.438 29.947 C 24.096 30.467 23.254 30.813 22.863 31.298 C 22.470 31.787 22.127 32.565 21.873 33.138 C 21.595 33.762 21.393 34.661 21.110 35.282 C 20.917 35.704 20.613 36.247 20.357 36.635 C 20.035 37.126 19.507 37.710 19.157 38.182 C 19.056 38.319 18.917 38.500 18.827 38.645 C 18.687 38.870 18.514 39.182 18.412 39.427 C 18.227 39.871 18.019 40.486 17.950 40.962 C 17.907 41.257 17.899 41.661 17.942 41.956 C 17.979 42.213 18.132 42.531 18.192 42.783 C 18.274 43.128 18.403 43.594 18.391 43.949 C 18.382 44.234 18.315 44.625 18.179 44.876 C 18.083 45.055 17.917 45.329 17.718 45.373 C 17.539 45.412 17.259 45.295 17.149 45.147 C 17.067 45.038 17.088 44.833 17.092 44.697 C 17.097 44.502 17.215 44.253 17.216 44.057 C 17.218 43.819 17.128 43.509 17.070 43.278 C 17.051 43.202 17.071 43.039 16.993 43.029 C 16.869 43.013 16.983 43.321 16.967 43.445 C 16.926 43.744 16.827 44.136 16.749 44.428 C 16.653 44.789 16.439 45.248 16.377 45.616 C 16.313 46.000 16.370 46.524 16.341 46.912 C 16.318 47.215 16.331 47.636 16.219 47.919 C 16.144 48.110 16.031 48.473 15.825 48.481 C 15.620 48.489 15.496 48.127 15.389 47.951 C 15.208 47.655 15.049 47.215 14.947 46.883 C 14.835 46.517 14.754 46.010 14.692 45.632 C 14.609 45.134 14.482 44.468 14.482 43.964 C 14.481 43.384 14.632 42.619 14.727 42.047 C 14.814 41.525 14.947 40.830 15.080 40.318 C 15.223 39.767 15.470 39.049 15.653 38.510 C 15.887 37.824 16.232 36.922 16.484 36.242 C 16.746 35.534 17.114 34.597 17.365 33.885 C 17.615 33.175 17.887 32.207 18.154 31.504 C 18.394 30.873 18.764 30.052 19.039 29.436 C 19.312 28.824 19.537 27.912 19.982 27.410 C 20.188 27.177 20.535 26.888 20.840 26.827 C 21.717 26.651 23.000 27.119 23.694 27.681 C 24.140 28.042 24.650 28.752 24.668 29.324 M 46.221 27.821 C 46.880 27.753 47.922 27.853 48.341 28.358 C 48.758 28.860 48.447 29.876 48.479 30.528 C 48.492 30.807 48.481 31.180 48.512 31.457 C 48.573 32.003 48.803 32.708 48.871 33.254 C 48.939 33.806 48.958 34.549 48.960 35.105 C 48.961 35.858 48.866 36.858 48.844 37.610 C 48.831 38.068 48.756 38.684 48.824 39.136 C 48.903 39.659 49.233 40.302 49.374 40.812 C 49.425 41.000 49.497 41.251 49.522 41.445 C 49.598 42.034 49.622 42.839 49.531 43.427 C 49.483 43.735 49.341 44.130 49.228 44.420 C 49.030 44.929 48.652 45.559 48.427 46.057 C 48.221 46.512 47.928 47.114 47.788 47.593 C 47.748 47.729 47.807 47.969 47.696 48.057 C 47.604 48.130 47.402 48.120 47.303 48.055 C 47.159 47.961 47.129 47.687 47.102 47.517 C 47.063 47.270 47.135 46.933 47.153 46.683 C 47.190 46.171 47.253 45.490 47.297 44.979 C 47.332 44.581 47.415 44.054 47.417 43.655 C 47.417 43.489 47.403 43.266 47.379 43.102 C 47.357 42.954 47.417 42.629 47.268 42.617 C 47.104 42.603 47.139 42.979 47.096 43.138 C 47.049 43.314 47.007 43.555 46.973 43.734 C 46.920 44.011 46.906 44.395 46.810 44.660 C 46.740 44.855 46.675 45.221 46.472 45.264 C 46.329 45.295 46.148 45.120 46.061 45.002 C 45.936 44.831 45.928 44.526 45.899 44.316 C 45.857 44.014 45.828 43.604 45.860 43.301 C 45.914 42.782 46.185 42.127 46.315 41.621 C 46.470 41.017 46.841 40.223 46.803 39.600 C 46.769 39.035 46.334 38.365 46.154 37.828 C 45.971 37.281 45.723 36.550 45.596 35.988 C 45.447 35.334 45.361 34.442 45.264 33.778 C 45.196 33.315 45.218 32.666 45.042 32.232 C 44.854 31.771 44.312 31.324 44.060 30.895 C 43.897 30.617 43.587 30.242 43.606 29.920 C 43.637 29.411 44.184 28.850 44.579 28.527 C 44.994 28.188 45.687 27.876 46.221 27.821 M 29.113 18.759 C 29.213 18.426 29.734 18.217 30.022 18.014 C 30.225 17.872 30.572 17.778 30.730 17.587 C 30.973 17.292 31.177 16.758 31.132 16.379 C 31.092 16.037 30.713 15.694 30.534 15.399 C 30.186 14.824 29.646 14.094 29.379 13.476 C 29.068 12.757 28.809 11.733 28.678 10.961 C 28.583 10.397 28.520 9.629 28.543 9.057 C 28.566 8.510 28.643 7.771 28.822 7.253 C 29.004 6.727 29.375 6.063 29.734 5.637 C 30.184 5.105 30.912 4.472 31.548 4.188 C 32.411 3.803 33.722 3.641 34.664 3.721 C 35.453 3.789 36.502 4.116 37.179 4.528 C 37.738 4.870 38.375 5.513 38.737 6.059 C 39.061 6.548 39.351 7.299 39.461 7.876 C 39.573 8.462 39.305 9.288 39.457 9.865 C 39.551 10.222 40.043 10.579 40.041 10.948 C 40.040 11.189 39.819 11.470 39.682 11.669 C 39.502 11.934 39.159 12.204 38.959 12.454 C 38.793 12.663 38.669 13.030 38.453 13.188 C 38.341 13.270 38.155 13.339 38.016 13.342 C 37.913 13.344 37.782 13.208 37.686 13.246 C 37.485 13.326 37.464 13.700 37.401 13.906 C 37.274 14.329 37.148 14.917 37.162 15.358 C 37.170 15.638 37.195 16.041 37.355 16.272 C 37.676 16.737 38.780 16.668 39.002 17.188 C 39.921 19.347 37.523 23.433 35.261 24.056 C 34.184 24.352 32.714 23.283 31.840 22.588 C 30.736 21.710 28.707 20.109 29.113 18.759 Z"/>
<path fill="none" stroke="#000000" stroke-width="0" stroke-linecap="round" stroke-linejoin="round" d="M 18.442 39.062 C 18.272 39.306 18.008 39.953 18.008 39.953 M 18.827 38.645 C 18.827 38.645 18.539 38.922 18.442 39.062 M 22.863 31.298 C 22.594 31.444 22.325 31.590 22.056 31.736 M 24.668 29.324 C 24.675 29.513 24.548 29.781 24.438 29.947 C 24.096 30.467 23.254 30.813 22.863 31.298 C 22.470 31.787 22.127 32.565 21.873 33.138 C 21.595 33.762 21.393 34.661 21.110 35.282 C 20.917 35.704 20.613 36.247 20.357 36.635 C 20.035 37.126 19.507 37.710 19.157 38.182 C 19.056 38.319 18.917 38.500 18.827 38.645 C 18.687 38.870 18.514 39.182 18.412 39.427 C 18.227 39.871 18.019 40.486 17.950 40.962 C 17.907 41.257 17.899 41.661 17.942 41.956 C 17.979 42.213 18.132 42.531 18.192 42.783 C 18.274 43.128 18.403 43.594 18.391 43.949 C 18.382 44.234 18.315 44.625 18.179 44.876 C 18.083 45.055 17.917 45.329 17.718 45.373 C 17.539 45.412 17.259 45.295 17.149 45.147 C 17.067 45.038 17.088 44.833 17.092 44.697 C 17.097 44.502 17.215 44.253 17.216 44.057 C 17.218 43.819 17.128 43.509 17.070 43.278 C 17.051 43.202 17.071 43.039 16.993 43.029 C 16.869 43.013 16.983 43.321 16.967 43.445 C 16.926 43.744 16.827 44.136 16.749 44.428 C 16.653 44.789 16.439 45.248 16.377 45.616 C 16.313 46.000 16.370 46.524 16.341 46.912 C 16.318 47.215 16.331 47.636 16.219 47.919 C 16.144 48.110 16.031 48.473 15.825 48.481 C 15.620 48.489 15.496 48.127 15.389 47.951 C 15.208 47.655 15.049 47.215 14.947 46.883 C 14.835 46.517 14.754 46.010 14.692 45.632 C 14.609 45.134 14.482 44.468 14.482 43.964 C 14.481 43.384 14.632 42.619 14.727 42.047 C 14.814 41.525 14.947 40.830 15.080 40.318 C 15.223 39.767 15.470 39.049 15.653 38.510 C 15.887 37.824 16.232 36.922 16.484 36.242 C 16.746 35.534 17.114 34.597 17.365 33.885 C 17.615 33.175 17.887 32.207 18.154 31.504 C 18.394 30.873 18.764 30.052 19.039 29.436 C 19.312 28.824 19.537 27.912 19.982 27.410 C 20.188 27.177 20.535 26.888 20.840 26.827 C 21.717 26.651 23.000 27.119 23.694 27.681 C 24.140 28.042 24.650 28.752 24.668 29.324 M 46.221 27.821 C 46.880 27.753 47.922 27.853 48.341 28.358 C 48.758 28.860 48.447 29.876 48.479 30.528 C 48.492 30.807 48.481 31.180 48.512 31.457 C 48.573 32.003 48.803 32.708 48.871 33.254 C 48.939 33.806 48.958 34.549 48.960 35.105 C 48.961 35.858 48.866 36.858 48.844 37.610 C 48.831 38.068 48.756 38.684 48.824 39.136 C 48.903 39.659 49.233 40.302 49.374 40.812 C 49.425 41.000 49.497 41.251 49.522 41.445 C 49.598 42.034 49.622 42.839 49.531 43.427 C 49.483 43.735 49.341 44.130 49.228 44.420 C 49.030 44.929 48.652 45.559 48.427 46.057 C 48.221 46.512 47.928 47.114 47.788 47.593 C 47.748 47.729 47.807 47.969 47.696 48.057 C 47.604 48.130 47.402 48.120 47.303 48.055 C 47.159 47.961 47.129 47.687 47.102 47.517 C 47.063 47.270 47.135 46.933 47.153 46.683 C 47.190 46.171 47.253 45.490 47.297 44.979 C 47.332 44.581 47.415 44.054 47.417 43.655 C 47.417 43.489 47.403 43.266 47.379 43.102 C 47.357 42.954 47.417 42.629 47.268 42.617 C 47.104 42.603 47.139 42.979 47.096 43.138 C 47.049 43.314 47.007 43.555 46.973 43.734 C 46.920 44.011 46.906 44.395 46.810 44.660 C 46.740 44.855 46.675 45.221 46.472 45.264 C 46.329 45.295 46.148 45.120 46.061 45.002 C 45.936 44.831 45.928 44.526 45.899 44.316 C 45.857 44.014 45.828 43.604 45.860 43.301 C 45.914 42.782 46.185 42.127 46.315 41.621 C 46.470 41.017 46.841 40.223 46.803 39.600 C 46.769 39.035 46.334 38.365 46.154 37.828 C 45.971 37.281 45.723 36.550 45.596 35.988 C 45.447 35.334 45.361 34.442 45.264 33.778 C 45.196 33.315 45.218 32.666 45.042 32.232 C 44.854 31.771 44.312 31.324 44.060 30.895 C 43.897 30.617 43.587 30.242 43.606 29.920 C 43.637 29.411 44.184 28.850 44.579 28.527 C 44.994 28.188 45.687 27.876 46.221 27.821 M 29.113 18.759 C 29.213 18.426 29.734 18.217 30.022 18.014 C 30.225 17.872 30.572 17.778 30.730 17.587 C 30.973 17.292 31.177 16.758 31.132 16.379 C 31.092 16.037 30.713 15.694 30.534 15.399 C 30.186 14.824 29.646 14.094 29.379 13.476 C 29.068 12.757 28.809 11.733 28.678 10.961 C 28.583 10.397 28.520 9.629 28.543 9.057 C 28.566 8.510 28.643 7.771 28.822 7.253 C 29.004 6.727 29.375 6.063 29.734 5.637 C 30.184 5.105 30.912 4.472 31.548 4.188 C 32.411 3.803 33.722 3.641 34.664 3.721 C 35.453 3.789 36.502 4.116 37.179 4.528 C 37.738 4.870 38.375 5.513 38.737 6.059 C 39.061 6.548 39.351 7.299 39.461 7.876 C 39.573 8.462 39.305 9.288 39.457 9.865 C 39.551 10.222 40.043 10.579 40.041 10.948 C 40.040 11.189 39.819 11.470 39.682 11.669 C 39.502 11.934 39.159 12.204 38.959 12.454 C 38.793 12.663 38.669 13.030 38.453 13.188 C 38.341 13.270 38.155 13.339 38.016 13.342 C 37.913 13.344 37.782 13.208 37.686 13.246 C 37.485 13.326 37.464 13.700 37.401 13.906 C 37.274 14.329 37.148 14.917 37.162 15.358 C 37.170 15.638 37.195 16.041 37.355 16.272 C 37.676 16.737 38.780 16.668 39.002 17.188 C 39.921 19.347 37.523 23.433 35.261 24.056 C 34.184 24.352 32.714 23.283 31.840 22.588 C 30.736 21.710 28.707 20.109 29.113 18.759 "/>
</g>
<g id="Brown">
<path fill="#88431a" fill-rule="evenodd" stroke="none" d="M 36.540 58.194 C 36.388 57.358 35.638 55.511 35.638 55.511 C 35.638 55.511 37.069 55.892 37.699 55.940 C 38.239 55.980 39.006 56.064 39.504 55.848 C 39.810 55.716 40.330 55.104 40.330 55.104 C 40.330 55.104 39.872 58.375 39.824 59.787 C 39.801 60.459 39.776 61.364 39.889 62.026 C 40.065 63.058 41.073 64.291 40.994 65.335 C 40.932 66.149 40.291 67.126 39.802 67.780 C 39.568 68.094 38.861 68.685 38.861 68.685 C 38.861 68.685 37.630 68.157 37.202 67.787 C 36.872 67.502 36.474 67.041 36.317 66.634 C 36.177 66.270 36.205 65.339 36.205 65.339 C 36.205 65.339 35.810 64.782 35.729 64.506 C 35.646 64.224 35.649 63.820 35.677 63.528 C 35.774 62.496 36.517 61.236 36.630 60.206 C 36.695 59.605 36.648 58.788 36.540 58.194 M 26.542 57.908 C 26.616 57.348 26.784 56.042 26.784 56.042 C 26.785 56.042 28.336 56.089 28.992 55.993 C 29.593 55.905 30.945 55.458 30.946 55.458 C 30.946 55.458 30.185 57.506 30.073 58.428 C 29.989 59.119 30.044 60.060 30.152 60.747 C 30.216 61.161 30.471 61.678 30.518 62.094 C 30.552 62.398 30.618 62.838 30.484 63.113 C 30.294 63.499 29.352 63.993 29.352 63.993 C 29.352 63.993 29.126 64.676 28.971 64.941 C 28.823 65.195 28.590 65.524 28.359 65.706 C 27.566 66.331 26.218 66.733 25.232 66.955 C 24.654 67.085 23.261 67.109 23.261 67.109 C 23.261 67.109 23.269 66.383 23.360 66.088 C 23.578 65.377 24.282 64.616 24.626 63.956 C 24.957 63.322 25.331 62.442 25.614 61.784 C 25.804 61.344 26.094 60.767 26.220 60.304 C 26.411 59.605 26.448 58.627 26.542 57.908 M 42.924 28.986 C 43.115 29.370 43.608 30.242 43.608 30.243 C 43.346 30.415 44.163 29.762 44.428 29.596 C 44.906 29.298 45.595 28.982 46.129 28.805 C 46.727 28.607 47.556 28.404 48.185 28.385 C 48.338 28.380 48.588 28.549 48.691 28.437 C 48.806 28.312 48.610 28.048 48.569 27.883 C 48.313 26.851 48.003 25.457 47.591 24.477 C 47.232 23.623 46.597 22.551 46.077 21.784 C 45.683 21.203 45.213 20.322 44.613 19.958 C 44.330 19.787 43.857 19.797 43.543 19.693 C 42.103 19.214 38.929 17.623 38.929 17.623 C 38.757 17.502 38.559 17.161 38.357 17.218 C 38.187 17.266 38.180 17.590 38.104 17.749 C 37.746 18.493 37.294 19.496 36.903 20.222 C 36.613 20.762 36.209 21.473 35.865 21.980 C 35.622 22.338 35.294 22.819 34.987 23.124 C 34.878 23.233 34.739 23.440 34.585 23.444 C 34.212 23.455 33.940 22.859 33.683 22.588 C 33.097 21.971 32.378 21.089 31.858 20.416 C 31.403 19.827 30.707 19.081 30.421 18.394 C 30.335 18.186 30.473 17.739 30.262 17.662 C 30.105 17.604 29.935 17.875 29.792 17.963 C 29.422 18.192 28.936 18.516 28.540 18.698 C 27.433 19.208 25.725 19.328 24.673 19.945 C 24.130 20.264 23.538 20.884 23.097 21.335 C 22.676 21.766 22.160 22.385 21.804 22.870 C 21.203 23.689 20.427 24.815 20.010 25.742 C 19.729 26.367 19.342 27.926 19.342 27.927 C 18.866 27.947 20.436 28.140 20.881 28.310 C 21.496 28.544 22.300 28.937 22.815 29.347 C 23.235 29.682 23.466 30.666 24.003 30.688 C 24.294 30.700 24.565 30.302 24.774 30.099 C 25.001 29.878 25.235 29.520 25.438 29.276 C 25.584 29.103 25.709 28.666 25.932 28.706 C 26.182 28.751 26.092 29.277 26.195 29.509 C 26.432 30.042 26.878 30.686 27.191 31.178 C 27.509 31.679 28.017 32.294 28.298 32.816 C 28.615 33.403 28.990 34.222 29.148 34.870 C 29.248 35.280 29.317 35.848 29.286 36.268 C 29.260 36.625 29.084 37.077 29.004 37.425 C 28.803 38.291 28.583 39.456 28.374 40.319 C 28.088 41.499 27.647 43.056 27.321 44.226 C 27.269 44.410 27.058 44.669 27.145 44.840 C 27.316 45.176 28.000 45.057 28.374 45.103 C 28.779 45.153 29.326 45.140 29.734 45.147 C 30.208 45.155 30.841 45.131 31.314 45.147 C 31.868 45.167 32.604 45.259 33.158 45.279 C 33.816 45.303 34.696 45.334 35.352 45.279 C 35.911 45.232 36.820 45.388 37.195 44.972 C 37.313 44.842 37.288 44.573 37.315 44.400 C 37.406 43.826 37.477 43.051 37.503 42.470 C 37.513 42.246 37.317 41.848 37.503 41.724 C 37.954 41.422 38.011 42.884 38.205 43.392 C 38.349 43.769 38.714 44.267 38.644 44.664 C 38.619 44.805 38.338 44.923 38.380 45.059 C 38.502 45.449 39.334 45.142 39.741 45.103 C 40.104 45.069 40.564 44.876 40.926 44.840 C 41.070 44.825 41.311 44.947 41.409 44.840 C 41.612 44.619 41.212 44.167 41.145 43.874 C 40.994 43.210 40.880 42.305 40.750 41.636 C 40.617 40.949 40.447 40.030 40.268 39.354 C 40.079 38.646 39.721 37.733 39.519 37.028 C 39.388 36.573 39.158 35.972 39.129 35.499 C 39.103 35.092 39.207 34.548 39.290 34.149 C 39.393 33.656 39.581 33.006 39.781 32.544 C 39.964 32.121 40.322 31.615 40.541 31.209 C 40.799 30.731 41.135 30.089 41.361 29.595 C 41.556 29.170 41.722 28.560 41.953 28.153 C 42.061 27.962 42.174 27.487 42.380 27.560 C 42.498 27.601 42.426 27.848 42.463 27.966 C 42.563 28.287 42.775 28.685 42.924 28.986 Z"/>
<path fill="none" stroke="#000000" stroke-width="0" stroke-linecap="round" stroke-linejoin="round" d="M 36.540 58.194 C 36.388 57.358 35.638 55.511 35.638 55.511 C 35.638 55.511 37.069 55.892 37.699 55.940 C 38.239 55.980 39.006 56.064 39.504 55.848 C 39.810 55.716 40.330 55.104 40.330 55.104 C 40.330 55.104 39.872 58.375 39.824 59.787 C 39.801 60.459 39.776 61.364 39.889 62.026 C 40.065 63.058 41.073 64.291 40.994 65.335 C 40.932 66.149 40.291 67.126 39.802 67.780 C 39.568 68.094 38.861 68.685 38.861 68.685 C 38.861 68.685 37.630 68.157 37.202 67.787 C 36.872 67.502 36.474 67.041 36.317 66.634 C 36.177 66.270 36.205 65.339 36.205 65.339 C 36.205 65.339 35.810 64.782 35.729 64.506 C 35.646 64.224 35.649 63.820 35.677 63.528 C 35.774 62.496 36.517 61.236 36.630 60.206 C 36.695 59.605 36.648 58.788 36.540 58.194 M 26.542 57.908 C 26.616 57.348 26.784 56.042 26.784 56.042 C 26.785 56.042 28.336 56.089 28.992 55.993 C 29.593 55.905 30.945 55.458 30.946 55.458 C 30.946 55.458 30.185 57.506 30.073 58.428 C 29.989 59.119 30.044 60.060 30.152 60.747 C 30.216 61.161 30.471 61.678 30.518 62.094 C 30.552 62.398 30.618 62.838 30.484 63.113 C 30.294 63.499 29.352 63.993 29.352 63.993 C 29.352 63.993 29.126 64.676 28.971 64.941 C 28.823 65.195 28.590 65.524 28.359 65.706 C 27.566 66.331 26.218 66.733 25.232 66.955 C 24.654 67.085 23.261 67.109 23.261 67.109 C 23.261 67.109 23.269 66.383 23.360 66.088 C 23.578 65.377 24.282 64.616 24.626 63.956 C 24.957 63.322 25.331 62.442 25.614 61.784 C 25.804 61.344 26.094 60.767 26.220 60.304 C 26.411 59.605 26.448 58.627 26.542 57.908 M 42.924 28.986 C 43.115 29.370 43.608 30.242 43.608 30.243 C 43.723 30.167 43.973 29.962 43.973 29.962 M 42.463 27.966 C 42.563 28.287 42.775 28.685 42.924 28.986 M 42.380 27.560 C 42.498 27.601 42.426 27.848 42.463 27.966 M 41.953 28.153 C 42.061 27.962 42.174 27.487 42.380 27.560 C 42.299 27.322 42.219 27.083 42.138 26.845 M 41.361 29.595 C 41.556 29.170 41.722 28.560 41.953 28.153 M 40.541 31.209 C 40.799 30.731 41.135 30.089 41.361 29.595 M 39.781 32.544 C 39.964 32.121 40.322 31.615 40.541 31.209 M 39.290 34.149 C 39.393 33.656 39.581 33.006 39.781 32.544 M 39.129 35.499 C 39.103 35.092 39.207 34.548 39.290 34.149 M 39.519 37.028 C 39.388 36.573 39.158 35.972 39.129 35.499 M 40.268 39.354 C 40.079 38.646 39.721 37.733 39.519 37.028 M 40.750 41.636 C 40.617 40.949 40.447 40.030 40.268 39.354 M 41.145 43.874 C 40.994 43.210 40.880 42.305 40.750 41.636 M 41.409 44.840 C 41.612 44.619 41.212 44.167 41.145 43.874 M 40.926 44.840 C 41.070 44.825 41.311 44.947 41.409 44.840 M 39.741 45.103 C 40.104 45.069 40.564 44.876 40.926 44.840 M 38.380 45.059 C 38.502 45.449 39.334 45.142 39.741 45.103 M 38.644 44.664 C 38.619 44.805 38.338 44.923 38.380 45.059 M 38.205 43.392 C 38.349 43.769 38.714 44.267 38.644 44.664 M 37.503 41.724 C 37.954 41.422 38.011 42.884 38.205 43.392 M 37.503 42.470 C 37.513 42.246 37.317 41.848 37.503 41.724 C 37.459 41.461 37.415 41.197 37.371 40.934 M 37.315 44.400 C 37.406 43.826 37.477 43.051 37.503 42.470 M 37.195 44.972 C 37.313 44.842 37.288 44.573 37.315 44.400 M 35.352 45.279 C 35.911 45.232 36.820 45.388 37.195 44.972 M 33.158 45.279 C 33.816 45.303 34.696 45.334 35.352 45.279 M 31.314 45.147 C 31.868 45.167 32.604 45.259 33.158 45.279 M 29.734 45.147 C 30.208 45.155 30.841 45.131 31.314 45.147 M 28.374 45.103 C 28.779 45.153 29.326 45.140 29.734 45.147 M 27.145 44.840 C 27.316 45.176 28.000 45.057 28.374 45.103 M 27.321 44.226 C 27.269 44.410 27.058 44.669 27.145 44.840 M 28.374 40.319 C 28.088 41.499 27.647 43.056 27.321 44.226 M 29.004 37.425 C 28.803 38.291 28.583 39.456 28.374 40.319 M 29.286 36.268 C 29.260 36.625 29.084 37.077 29.004 37.425 M 29.148 34.870 C 29.248 35.280 29.317 35.848 29.286 36.268 M 28.298 32.816 C 28.615 33.403 28.990 34.222 29.148 34.870 M 27.191 31.178 C 27.509 31.679 28.017 32.294 28.298 32.816 M 26.195 29.509 C 26.432 30.042 26.878 30.686 27.191 31.178 M 25.932 28.706 C 26.182 28.751 26.092 29.277 26.195 29.509 M 25.438 29.276 C 25.584 29.103 25.709 28.666 25.932 28.706 C 26.227 27.980 26.523 27.255 26.818 26.530 M 24.774 30.099 C 25.001 29.878 25.235 29.520 25.438 29.276 M 24.003 30.688 C 24.294 30.700 24.565 30.302 24.774 30.099 M 22.815 29.347 C 23.235 29.682 23.466 30.666 24.003 30.688 M 20.881 28.310 C 21.496 28.544 22.300 28.937 22.815 29.347 M 19.342 27.927 C 18.866 27.947 20.436 28.140 20.881 28.310 M 19.762 28.005 C 19.762 28.005 19.470 27.921 19.342 27.927 C 19.342 27.926 19.729 26.367 20.010 25.742 C 20.427 24.815 21.203 23.689 21.804 22.870 C 22.160 22.385 22.676 21.766 23.097 21.335 C 23.538 20.884 24.130 20.264 24.673 19.945 C 25.725 19.328 27.433 19.208 28.540 18.698 C 28.936 18.516 29.422 18.192 29.792 17.963 C 29.935 17.875 30.105 17.604 30.262 17.662 C 30.473 17.739 30.335 18.186 30.421 18.394 C 30.707 19.081 31.403 19.827 31.858 20.416 C 32.378 21.089 33.097 21.971 33.683 22.588 C 33.940 22.859 34.212 23.455 34.585 23.444 C 34.739 23.440 34.878 23.233 34.987 23.124 C 35.294 22.819 35.622 22.338 35.865 21.980 C 36.209 21.473 36.613 20.762 36.903 20.222 C 37.294 19.496 37.746 18.493 38.104 17.749 C 38.180 17.590 38.187 17.266 38.357 17.218 C 38.559 17.161 38.757 17.502 38.929 17.623 C 38.929 17.623 38.929 17.623 38.929 17.623 C 38.929 17.623 42.103 19.214 43.543 19.693 C 43.857 19.797 44.330 19.787 44.613 19.958 C 45.213 20.322 45.683 21.203 46.077 21.784 C 46.597 22.551 47.232 23.623 47.591 24.477 C 48.003 25.457 48.313 26.851 48.569 27.883 C 48.610 28.048 48.806 28.312 48.691 28.437 C 48.588 28.549 48.338 28.380 48.185 28.385 C 47.556 28.404 46.727 28.607 46.129 28.805 C 45.595 28.982 44.906 29.298 44.428 29.596 C 44.163 29.762 43.346 30.415 43.608 30.243 "/>
</g>
<g id="DarkBrown">
<path fill="#4a000a" fill-rule="evenodd" stroke="#000000" stroke-width="0" stroke-linecap="round" stroke-linejoin="round" d="M 37.094 56.860 C 37.436 56.810 38.194 56.514 38.194 56.514 C 38.194 56.514 37.385 56.280 37.046 56.156 C 36.672 56.019 35.822 55.637 35.822 55.637 C 35.822 55.637 36.145 56.849 36.145 56.849 C 36.145 56.849 36.812 56.901 37.094 56.860 M 40.352 55.264 C 40.352 55.264 40.267 56.571 40.267 56.571 C 40.267 56.571 39.905 56.685 39.745 56.696 C 39.402 56.720 38.608 56.555 38.608 56.555 C 38.608 56.555 39.184 56.202 39.418 56.031 C 39.711 55.818 40.352 55.264 40.352 55.264 M 39.942 67.516 C 39.627 67.896 38.741 68.642 38.741 68.642 C 38.741 68.642 38.071 68.256 37.810 68.054 C 37.561 67.861 37.291 67.533 37.046 67.335 C 36.871 67.194 36.433 66.909 36.433 66.909 C 36.433 66.909 36.591 66.583 36.697 66.472 C 36.917 66.242 37.320 66.063 37.602 65.914 C 37.937 65.738 38.382 65.464 38.756 65.403 C 39.419 65.294 40.979 65.678 40.979 65.678 C 40.979 65.678 40.747 66.236 40.624 66.463 C 40.444 66.794 40.183 67.226 39.942 67.516 M 37.388 58.522 C 37.388 58.522 40.003 58.732 40.003 58.732 C 40.003 58.733 39.910 59.396 39.874 59.680 C 39.834 60.007 39.751 60.769 39.751 60.769 C 39.751 60.769 39.779 61.616 39.846 61.971 C 39.942 62.476 40.357 63.604 40.357 63.604 C 40.357 63.604 39.897 63.422 39.690 63.387 C 39.502 63.356 39.055 63.376 39.055 63.376 C 39.054 63.376 38.065 63.631 37.632 63.625 C 37.474 63.622 37.115 63.537 37.115 63.537 C 37.115 63.537 37.254 62.832 37.350 62.539 C 37.446 62.243 37.702 61.890 37.754 61.584 C 37.907 60.671 37.388 58.522 37.388 58.522 M 30.277 17.562 C 30.277 17.562 28.669 18.545 28.669 18.545 C 28.669 18.546 29.853 20.342 30.431 21.059 C 31.121 21.915 32.149 22.965 32.922 23.745 C 33.507 24.335 34.930 25.647 34.930 25.647 C 34.930 25.647 36.279 24.623 36.751 24.077 C 37.444 23.276 38.144 22.027 38.614 21.077 C 39.111 20.072 39.937 17.583 39.937 17.582 C 39.937 17.582 38.471 16.820 38.471 16.820 C 38.471 16.820 38.065 18.046 37.840 18.550 C 37.546 19.208 37.065 20.044 36.701 20.666 C 36.497 21.015 36.225 21.481 35.985 21.806 C 35.601 22.326 34.565 23.428 34.565 23.428 C 34.565 23.428 33.101 21.906 32.505 21.226 C 32.094 20.756 31.509 20.150 31.181 19.618 C 30.827 19.044 30.277 17.562 30.277 17.562 M 20.621 28.553 C 20.225 28.380 19.263 28.072 19.263 28.072 C 19.263 28.071 19.889 26.338 19.889 26.338 C 19.889 26.338 20.820 26.482 21.196 26.620 C 21.786 26.836 22.519 27.264 23.030 27.630 C 23.760 28.152 25.223 29.665 25.223 29.665 C 25.223 29.665 23.833 30.915 23.833 30.915 C 23.833 30.915 23.151 30.005 22.776 29.702 C 22.206 29.242 21.292 28.846 20.621 28.553 M 43.502 30.261 C 43.502 30.261 42.735 28.576 42.735 28.576 C 42.735 28.576 44.256 27.632 44.963 27.343 C 45.362 27.180 45.922 27.034 46.343 26.944 C 46.898 26.824 48.217 26.684 48.218 26.684 C 48.218 26.684 48.651 28.450 48.651 28.450 C 48.651 28.450 47.173 28.650 46.558 28.819 C 46.068 28.953 45.430 29.192 44.970 29.408 C 44.510 29.626 43.502 30.261 43.502 30.261 M 30.770 34.906 C 30.770 34.906 29.131 34.812 29.091 34.818 C 29.091 34.818 28.981 34.007 28.981 34.007 C 28.981 34.007 29.605 33.862 29.850 33.742 C 32.209 32.595 34.828 30.145 36.696 28.304 C 37.578 27.434 38.665 26.175 39.356 25.147 C 40.026 24.150 41.218 21.603 41.218 21.602 C 41.218 21.602 43.892 23.719 43.893 23.719 C 43.892 23.720 40.143 27.399 38.463 28.896 C 36.883 30.303 34.750 32.156 33.045 33.408 C 32.387 33.892 30.770 34.906 30.770 34.906 M 29.239 36.206 C 29.228 35.816 29.112 34.912 29.112 34.912 C 29.112 34.912 30.455 34.959 31.031 34.980 C 32.167 35.020 33.685 35.194 34.820 35.117 C 35.789 35.050 37.079 34.846 38.011 34.572 C 38.489 34.431 39.548 33.941 39.548 33.941 C 39.548 33.941 39.301 34.813 39.278 35.198 C 39.253 35.629 39.340 36.205 39.417 36.629 C 39.459 36.859 39.613 37.383 39.613 37.383 C 39.613 37.383 38.301 37.817 37.717 37.900 C 35.638 38.193 32.799 38.067 30.719 37.779 C 30.338 37.726 29.811 37.665 29.469 37.488 C 29.341 37.421 29.096 37.183 29.096 37.183 C 29.096 37.183 29.199 36.917 29.220 36.798 C 29.252 36.623 29.244 36.383 29.239 36.206 M 29.580 56.948 C 29.398 56.923 28.998 56.762 28.998 56.762 C 28.998 56.762 29.497 56.455 29.711 56.324 C 30.071 56.103 30.913 55.591 30.913 55.591 C 30.913 55.591 30.494 56.896 30.494 56.897 C 30.494 56.897 29.852 56.984 29.580 56.948 M 26.806 56.034 C 26.806 56.034 26.648 56.873 26.648 56.873 C 26.648 56.873 27.093 56.987 27.289 56.998 C 27.708 57.022 28.682 56.857 28.682 56.857 C 28.682 56.857 27.998 56.466 27.689 56.333 C 27.432 56.223 26.807 56.034 26.806 56.034 M 23.552 65.422 C 23.635 65.271 23.906 64.969 23.906 64.969 C 23.906 64.969 25.308 64.539 25.928 64.542 C 26.300 64.544 26.836 64.577 27.144 64.786 C 27.494 65.024 27.896 65.979 27.896 65.980 C 27.896 65.980 27.526 66.299 27.344 66.399 C 27.123 66.520 26.797 66.616 26.555 66.685 C 25.752 66.912 24.657 67.237 23.824 67.204 C 23.646 67.197 23.244 67.077 23.244 67.077 C 23.244 67.077 23.231 66.489 23.276 66.243 C 23.322 65.987 23.427 65.650 23.552 65.422 M 28.366 58.262 C 28.366 58.262 26.467 58.419 26.467 58.419 C 26.467 58.419 26.300 59.069 26.260 59.353 C 26.220 59.645 26.206 60.335 26.206 60.335 C 26.206 60.335 25.778 61.366 25.586 61.805 C 25.331 62.387 24.708 63.732 24.708 63.732 C 24.708 63.732 25.221 63.762 25.441 63.769 C 25.879 63.783 26.903 63.784 26.903 63.784 C 26.903 63.784 27.643 62.636 27.984 62.160 C 28.159 61.915 28.592 61.363 28.593 61.363 C 28.592 61.363 28.418 60.057 28.363 59.495 C 28.347 59.329 28.321 59.108 28.320 58.941 C 28.319 58.737 28.366 58.262 28.366 58.262 Z"/>
</g>
<g id="Silver">
<path fill="#d4d4d4" fill-rule="evenodd" stroke="none" d="M 32.802 37.571 C 32.745 37.492 32.741 37.251 32.741 37.251 C 32.741 37.251 32.710 35.391 32.710 35.391 C 32.710 35.391 32.732 35.145 32.800 35.074 C 32.894 34.976 33.233 34.945 33.233 34.945 C 33.233 34.945 35.047 34.899 35.047 34.899 C 35.047 34.899 35.343 34.987 35.430 35.080 C 35.528 35.186 35.600 35.529 35.600 35.529 C 35.600 35.529 35.554 37.343 35.554 37.343 C 35.554 37.344 35.542 37.611 35.472 37.693 C 35.358 37.825 34.924 37.882 34.924 37.882 C 34.924 37.882 33.156 37.759 33.156 37.759 C 33.156 37.759 32.873 37.668 32.802 37.571 M 39.073 18.102 C 39.240 17.715 39.554 17.244 39.761 16.876 C 39.761 16.876 41.523 17.116 42.243 17.354 C 42.780 17.533 43.450 17.892 43.947 18.162 C 44.475 18.448 45.173 18.847 45.652 19.208 C 46.108 19.553 46.672 20.072 47.057 20.494 C 47.437 20.910 47.876 21.524 48.193 21.989 C 48.425 22.329 48.953 22.747 48.911 23.156 C 48.857 23.679 48.081 24.072 47.655 24.382 C 47.269 24.663 46.696 24.961 46.250 25.129 C 45.561 25.389 44.590 25.607 43.857 25.668 C 43.302 25.714 42.538 25.735 42.003 25.578 C 41.487 25.426 40.849 25.041 40.448 24.681 C 40.052 24.325 39.666 23.708 39.402 23.245 C 39.155 22.812 38.864 22.204 38.744 21.720 C 38.594 21.118 38.522 20.273 38.594 19.657 C 38.652 19.172 38.880 18.550 39.073 18.102 Z"/>
<path fill="none" stroke="#000000" stroke-width="0" stroke-linecap="round" stroke-linejoin="round" d="M 32.802 37.571 C 32.745 37.492 32.741 37.251 32.741 37.251 C 32.741 37.251 32.710 35.391 32.710 35.391 C 32.710 35.391 32.732 35.145 32.800 35.074 C 32.894 34.976 33.233 34.945 33.233 34.945 C 33.233 34.945 35.047 34.899 35.047 34.899 C 35.047 34.899 35.343 34.987 35.430 35.080 C 35.528 35.186 35.600 35.529 35.600 35.529 C 35.600 35.529 35.554 37.343 35.554 37.343 C 35.554 37.344 35.542 37.611 35.472 37.693 C 35.358 37.825 34.924 37.882 34.924 37.882 C 34.924 37.882 33.156 37.759 33.156 37.759 C 33.156 37.759 32.873 37.668 32.802 37.571 M 39.761 16.876 C 39.761 16.876 39.761 16.876 39.761 16.876 C 39.554 17.244 39.240 17.715 39.073 18.102 C 38.880 18.550 38.652 19.172 38.594 19.657 C 38.522 20.273 38.594 21.118 38.744 21.720 C 38.864 22.204 39.155 22.812 39.402 23.245 C 39.666 23.708 40.052 24.325 40.448 24.681 C 40.849 25.041 41.487 25.426 42.003 25.578 C 42.538 25.735 43.302 25.714 43.857 25.668 C 44.590 25.607 45.561 25.389 46.250 25.129 C 46.696 24.961 47.269 24.663 47.655 24.382 C 48.081 24.072 48.857 23.679 48.911 23.156 C 48.953 22.747 48.425 22.329 48.193 21.989 C 47.876 21.524 47.437 20.910 47.057 20.494 C 46.672 20.072 46.108 19.553 45.652 19.208 C 45.173 18.847 44.475 18.448 43.947 18.162 C 43.450 17.892 42.780 17.533 42.243 17.354 C 41.523 17.116 39.761 16.876 39.761 16.876 "/>
</g>
<g id="Riga">
<path fill="#cc6427" fill-rule="evenodd" stroke="#000000" stroke-width="0" stroke-linecap="round" stroke-linejoin="round" d="M 33.611 14.423 C 33.437 14.442 33.139 14.320 32.942 14.362 C 32.535 14.449 32.052 14.797 31.767 15.101 C 31.572 15.309 31.338 15.647 31.299 15.929 C 31.245 16.314 31.423 16.853 31.633 17.179 C 31.874 17.552 32.371 17.949 32.786 18.108 C 33.304 18.307 34.092 18.298 34.636 18.184 C 34.974 18.114 35.429 17.940 35.681 17.703 C 35.974 17.428 36.190 16.902 36.302 16.516 C 36.418 16.119 36.550 15.535 36.417 15.143 C 36.280 14.739 35.865 14.222 35.459 14.091 C 35.271 14.031 35.002 14.145 34.808 14.178 C 34.446 14.238 33.975 14.385 33.611 14.423 M 34.224 15.958 C 34.120 15.889 33.906 15.856 33.776 15.895 C 33.465 15.990 33.342 16.581 33.034 16.686 C 32.861 16.745 32.584 16.720 32.429 16.623 C 32.244 16.506 32.070 16.211 32.059 15.992 C 32.049 15.784 32.186 15.496 32.344 15.361 C 32.470 15.253 32.710 15.223 32.875 15.201 C 33.195 15.158 33.634 15.309 33.952 15.252 C 34.220 15.205 34.535 15.003 34.789 14.907 C 34.972 14.839 35.214 14.653 35.403 14.697 C 35.555 14.733 35.714 14.915 35.777 15.056 C 35.859 15.239 35.843 15.532 35.787 15.725 C 35.708 15.997 35.495 16.362 35.248 16.503 C 35.069 16.607 34.745 16.673 34.561 16.577 C 34.374 16.479 34.400 16.075 34.224 15.958 M 28.361 8.846 C 28.289 9.647 28.640 11.514 28.640 11.514 C 28.640 11.514 28.900 9.606 29.148 8.822 C 29.297 8.353 29.810 7.321 29.810 7.321 C 29.810 7.321 31.211 7.811 31.838 7.875 C 32.653 7.958 33.756 7.830 34.560 7.678 C 35.482 7.503 37.542 6.737 37.542 6.737 C 37.542 6.738 37.809 7.575 37.863 7.946 C 37.921 8.350 37.855 8.900 37.897 9.306 C 37.964 9.946 38.303 11.412 38.303 11.412 C 38.303 11.412 38.708 11.157 38.864 11.025 C 39.108 10.820 39.599 10.260 39.599 10.260 C 39.599 10.260 39.500 9.635 39.547 9.373 C 39.573 9.223 39.719 9.054 39.738 8.903 C 39.774 8.615 39.655 8.228 39.571 7.950 C 39.320 7.125 38.924 5.986 38.339 5.352 C 37.679 4.638 36.468 3.954 35.515 3.756 C 34.313 3.507 32.558 3.718 31.452 4.253 C 30.530 4.698 29.512 5.736 28.994 6.619 C 28.643 7.218 28.423 8.154 28.361 8.846 Z"/>
</g>
<g id="Face">
<path fill="#d4d4d4" fill-rule="evenodd" stroke="none" d="M 32.600 15.782 C 32.600 15.782 32.855 15.767 32.964 15.759 C 33.174 15.744 33.456 15.728 33.665 15.703 C 33.973 15.665 34.394 15.640 34.683 15.531 C 34.809 15.483 34.971 15.396 35.071 15.306 C 35.145 15.240 35.269 15.042 35.269 15.042 C 35.269 15.042 35.134 15.006 35.134 15.006 C 35.134 15.006 35.216 14.966 35.252 14.971 C 35.364 14.986 35.552 15.199 35.552 15.199 C 35.552 15.199 35.376 15.110 35.376 15.110 C 35.376 15.110 35.088 15.413 34.941 15.513 C 34.841 15.581 34.697 15.658 34.581 15.691 C 34.417 15.738 34.185 15.725 34.015 15.740 C 33.772 15.761 33.449 15.791 33.206 15.814 C 33.096 15.824 32.948 15.859 32.837 15.848 C 32.764 15.841 32.600 15.782 32.600 15.782 Z"/>
<path fill="none" stroke="#000000" stroke-width="0" stroke-linecap="round" stroke-linejoin="round" d="M 32.837 15.848 C 32.764 15.841 32.600 15.782 32.600 15.782 C 32.600 15.782 32.855 15.767 32.964 15.759 C 33.174 15.744 33.456 15.728 33.665 15.703 C 33.973 15.665 34.394 15.640 34.683 15.531 C 34.809 15.483 34.971 15.396 35.071 15.306 C 35.145 15.240 35.269 15.042 35.269 15.042 C 35.269 15.042 35.134 15.006 35.134 15.006 C 35.134 15.006 35.216 14.966 35.252 14.971 C 35.364 14.986 35.552 15.199 35.552 15.199 C 35.552 15.199 35.376 15.110 35.376 15.110 C 35.376 15.110 35.088 15.413 34.941 15.513 C 34.841 15.581 34.697 15.658 34.581 15.691 C 34.417 15.738 34.185 15.725 34.015 15.740 C 33.772 15.761 33.449 15.791 33.206 15.814 C 33.096 15.824 32.948 15.859 32.837 15.848 M 36.375 11.320 C 36.473 11.284 36.690 11.169 36.690 11.169 M 36.180 11.371 C 36.230 11.336 36.318 11.340 36.375 11.320 M 36.014 11.636 C 36.059 11.554 36.104 11.426 36.180 11.371 M 35.786 12.106 C 35.909 12.010 35.937 11.773 36.014 11.636 M 35.246 12.215 C 35.397 12.281 35.655 12.208 35.786 12.106 M 35.076 11.987 C 35.116 12.062 35.167 12.181 35.246 12.215 M 34.993 11.752 C 35.056 11.793 35.041 11.921 35.076 11.987 M 34.716 11.775 C 34.799 11.768 34.923 11.706 34.993 11.752 M 34.273 11.808 C 34.273 11.808 34.583 11.786 34.716 11.775 M 36.789 10.346 C 36.838 10.326 36.958 10.299 36.958 10.299 M 35.991 10.824 C 36.245 10.709 36.531 10.451 36.789 10.346 M 34.792 11.202 C 35.157 11.105 35.648 10.980 35.991 10.824 M 34.059 11.366 C 34.059 11.366 34.574 11.260 34.792 11.202 M 30.666 11.346 C 30.575 11.312 30.355 11.250 30.355 11.250 M 30.975 11.480 C 30.953 11.382 30.761 11.381 30.666 11.346 M 30.882 11.628 C 30.903 11.580 30.987 11.532 30.975 11.480 M 30.797 12.057 C 30.762 11.930 30.832 11.749 30.882 11.628 M 31.209 12.484 C 31.045 12.415 30.845 12.228 30.797 12.057 M 31.605 12.494 C 31.500 12.548 31.319 12.530 31.209 12.484 M 31.733 12.332 C 31.698 12.383 31.661 12.466 31.605 12.494 M 31.972 11.896 C 31.840 11.965 31.815 12.208 31.733 12.332 M 32.506 11.959 C 32.506 11.959 32.115 11.822 31.972 11.896 M 34.352 13.252 C 34.275 13.164 34.089 12.965 34.089 12.965 M 34.629 13.575 C 34.567 13.464 34.437 13.347 34.352 13.252 M 34.768 14.000 C 34.793 13.868 34.695 13.692 34.629 13.575 M 34.351 14.478 C 34.514 14.380 34.734 14.188 34.768 14.000 M 33.332 14.686 C 33.644 14.680 34.084 14.639 34.351 14.478 M 32.419 14.540 C 32.597 14.754 33.055 14.691 33.332 14.686 M 32.381 14.244 C 32.375 14.334 32.362 14.471 32.419 14.540 M 32.692 13.210 C 32.605 13.522 32.399 13.921 32.381 14.244 M 32.967 12.153 C 32.934 12.479 32.781 12.894 32.692 13.210 M 32.951 11.653 C 33.027 11.782 32.982 12.004 32.967 12.153 M 32.305 11.300 C 32.509 11.384 32.840 11.462 32.951 11.653 M 30.010 10.702 C 30.010 10.702 31.647 11.030 32.305 11.300 "/>
</g>
</g>
</svg>
